<svg xmlns="http://www.w3.org/2000/svg" width="156" height="156" fill="none" viewBox="0 0 156 156"><path fill="#A9D379" d="M78 34a44 44 0 1 1 0 88 44 44 0 0 1 0-88Z"/><path fill="#FFD875" d="M91.23 79.42c0 14.4-13.5 17.73-13.5 17.73s-13.5-3.33-13.5-17.73c0-1.06.11-2.03.3-2.93.2-.89.48-1.7.85-2.43a65.96 65.96 0 0 1 24.7 0c.37.74.66 1.54.85 2.43.2.9.3 1.87.3 2.93Z"/><path fill="#995C0D" d="M77.93 67.1h-.03c-.4-.02-.7-.37-.69-.8 0-.02.07-1.87-.47-3.79-.68-2.4-1.98-3.8-3.86-4.12-.4-.06-.66-.46-.6-.88.07-.42.44-.7.83-.63 2.45.42 4.2 2.23 5.03 5.23.6 2.16.52 4.18.52 4.26a.74.74 0 0 1-.73.74Z"/><path fill="#B27214" d="M92.47 72.98c0 .48-.05.97-.15 1.47a68.34 68.34 0 0 0-28.97 0c-.83-4.18 1.98-8.19 6.04-8.65a75.2 75.2 0 0 1 16.9 0 7.12 7.12 0 0 1 6.18 7.18Z"/><path fill="#995C0D" d="M75.46 65.8c1.82-.2 3.64-.34 5.47-.41a75.92 75.92 0 0 0-11.51.41c-4.08.46-6.9 4.47-6.07 8.65a68.74 68.74 0 0 1 5.91-1 7.15 7.15 0 0 1 6.2-7.65Z"/><path fill="#313137" fill-opacity=".5" d="m156 80.12-.56 5.99a5.26 5.26 0 0 1-1.52 3.54c-.86.81-2.02 1.15-3.5 1a4.7 4.7 0 0 1-2.56-.95 4.1 4.1 0 0 1-1.37-2.15l-5.3 2.15.29-3.08 4.9-2 .22-2.34-4.68-.44.28-3 13.8 1.28Zm-7.12 4.84c-.07.76.04 1.38.33 1.84.28.48.78.75 1.5.82.74.07 1.3-.1 1.63-.5.36-.41.57-1 .65-1.78l.22-2.45-4.1-.38-.23 2.45ZM139.2 96.15c.32-1.1.8-2.02 1.43-2.74.65-.7 1.4-1.18 2.26-1.43.87-.23 1.79-.2 2.76.08a5 5 0 0 1 2.34 1.4c.6.68.99 1.49 1.15 2.43.17.96.09 1.99-.24 3.1a6.7 6.7 0 0 1-1.44 2.69c-.65.72-1.41 1.2-2.28 1.42a4.9 4.9 0 0 1-2.73-.05 4.7 4.7 0 0 1-3.51-3.83 6.93 6.93 0 0 1 .25-3.07Zm2.24.66c-.22.77-.17 1.45.17 2.05.35.6.91 1 1.7 1.24.81.23 1.51.2 2.1-.13.6-.31 1.02-.86 1.25-1.64.23-.8.17-1.48-.16-2.07-.33-.6-.9-1-1.7-1.25a2.76 2.76 0 0 0-2.11.14c-.6.33-1.02.88-1.25 1.66ZM135.47 106.05a4.49 4.49 0 0 1 2.05-2.16 2.96 2.96 0 0 1 2.65.1 3.02 3.02 0 0 1 1.73 2.04c.22.9.04 1.91-.53 3.06-.25.5-.55.97-.88 1.37-.34.41-.7.75-1.06 1l.21.11c.54.27 1.02.28 1.46.02a3.6 3.6 0 0 0 1.24-1.55c.52-1.04.8-2.1.85-3.17l1.95.98a10.48 10.48 0 0 1-1.05 3.57c-.77 1.54-1.66 2.53-2.68 2.96-1 .45-2.08.39-3.21-.18l-5.18-2.59 1.26-2.52.78.4a4.48 4.48 0 0 1 .4-3.44Zm1.4 1.61c-.21.44-.33.88-.34 1.32-.01.43.08.83.28 1.17l.85.43c.7-.4 1.23-.96 1.6-1.69.24-.5.33-.93.25-1.3-.07-.37-.3-.65-.71-.85-.38-.19-.73-.2-1.06-.04-.34.16-.62.48-.87.96ZM129.5 116.09a5.46 5.46 0 0 1 2.06-1.73c.8-.34 1.62-.47 2.48-.36.87.12 1.7.48 2.51 1.08.8.6 1.37 1.3 1.73 2.1.36.8.48 1.62.36 2.5a5.2 5.2 0 0 1-1.05 2.48 6.2 6.2 0 0 1-1.42 1.39 4.2 4.2 0 0 1-1.58.7l4.79 3.59-1.8 2.4-11.72-8.8 1.74-2.32.82.62c-.08-.67-.02-1.3.16-1.89.17-.58.47-1.17.92-1.76Zm1.4 2.01a2.81 2.81 0 0 0-.17 3.25l1.45 1.09c.54.17 1.1.16 1.66-.04a2.83 2.83 0 0 0 1.41-1.03c.49-.64.68-1.32.6-2.04-.11-.7-.49-1.3-1.14-1.79a2.68 2.68 0 0 0-2.04-.59c-.7.12-1.3.5-1.78 1.15ZM131.5 129.67l-2.13 1.8-.74-.87c-.02.62-.15 1.2-.4 1.74-.25.55-.6 1-1.04 1.38-.55.47-1.07.76-1.55.86-.48.11-.96.08-1.45-.1-.02.6-.18 1.18-.47 1.74-.3.56-.67 1.03-1.11 1.41-.93.8-1.8 1.12-2.59.98-.8-.13-1.59-.65-2.35-1.54l-4.01-4.71 2.17-1.85 3.75 4.39c.39.46.76.72 1.11.76.36.05.73-.1 1.14-.44.56-.48.83-1.09.8-1.82-.3-.3-.54-.56-.7-.76l-3.62-4.24 2.19-1.87 3.8 4.47c.38.44.73.69 1.04.73.32.06.66-.07 1.05-.4.6-.5.83-1.29.72-2.35l-3.98-4.68 2.2-1.88 6.17 7.25ZM109.08 134.37c1.02-.56 2-.76 2.92-.6.92.18 1.63.71 2.11 1.6.5.94.59 1.83.25 2.67a4.47 4.47 0 0 1-2.19 2.2c-.5.27-1 .48-1.51.62s-1 .21-1.44.22l.11.2c.28.53.68.81 1.18.85a3.6 3.6 0 0 0 1.9-.56 7.78 7.78 0 0 0 2.52-2.1l1.04 1.92a10.5 10.5 0 0 1-2.91 2.32c-1.51.82-2.81 1.12-3.9.9a3.62 3.62 0 0 1-2.52-2l-2.76-5.1 2.48-1.33.41.76a4.48 4.48 0 0 1 2.3-2.57Zm.23 2.13a3.1 3.1 0 0 0-1.04.87c-.26.35-.41.73-.45 1.13l.45.83c.8.08 1.57-.08 2.28-.46.48-.27.8-.58.96-.93.15-.34.11-.7-.1-1.1-.2-.37-.48-.58-.85-.64-.36-.06-.78.04-1.25.3ZM105.96 147.02l-2.75.9-.33-1a5.04 5.04 0 0 1-2.97 2.4c-.94.31-1.83.38-2.68.22a4.33 4.33 0 0 1-2.25-1.12 5.3 5.3 0 0 1-1.42-2.31 5.37 5.37 0 0 1-.22-2.7c.16-.86.53-1.62 1.13-2.28a5.25 5.25 0 0 1 2.29-1.42 6.2 6.2 0 0 1 1.92-.31c.64 0 1.21.1 1.73.32l-1.62-4.93 2.84-.94 4.33 13.17Zm-7.76-5.32c-.76.25-1.3.7-1.63 1.33a2.64 2.64 0 0 0-.11 2.13c.25.78.7 1.32 1.34 1.62.63.3 1.33.34 2.1.08a2.9 2.9 0 0 0 2.02-2.56l-.57-1.71a2.63 2.63 0 0 0-1.4-.94 3 3 0 0 0-1.75.05ZM74.79 156.95l-5.98-.62a5.25 5.25 0 0 1-3.53-1.57c-.8-.86-1.12-2.03-.96-3.5a4.7 4.7 0 0 1 .98-2.56 4.1 4.1 0 0 1 2.17-1.34l-2.1-5.33 3.08.32 1.94 4.93 2.35.25.49-4.68 3 .31-1.44 13.8Zm-4.76-7.17a2.93 2.93 0 0 0-1.84.3c-.49.28-.76.78-.84 1.49-.08.75.09 1.3.49 1.65.4.36.99.58 1.76.66l2.45.25.43-4.1-2.45-.25ZM58.97 139.93c1.1.34 2 .83 2.72 1.48.7.66 1.16 1.42 1.4 2.28.21.87.17 1.79-.13 2.76a5 5 0 0 1-1.44 2.32c-.68.59-1.5.96-2.44 1.11-.96.15-1.99.05-3.09-.28a6.7 6.7 0 0 1-2.67-1.5 4.63 4.63 0 0 1-1.39-2.29 4.9 4.9 0 0 1 .1-2.73 4.7 4.7 0 0 1 3.88-3.45 6.93 6.93 0 0 1 3.06.3Zm-.69 2.24a2.55 2.55 0 0 0-2.05.13c-.6.34-1.03.9-1.27 1.69-.25.8-.21 1.5.1 2.1.3.6.84 1.03 1.62 1.27.79.24 1.48.2 2.08-.13.59-.31 1.01-.88 1.26-1.69.24-.78.21-1.48-.1-2.1a2.62 2.62 0 0 0-1.64-1.27ZM49.16 136.08a4.49 4.49 0 0 1 2.13 2.08c.38.87.33 1.75-.14 2.66a3.02 3.02 0 0 1-2.07 1.7c-.9.2-1.9 0-3.05-.58-.5-.26-.96-.57-1.36-.9-.4-.35-.73-.7-.99-1.08l-.1.21c-.28.53-.3 1.02-.04 1.46.24.44.76.86 1.53 1.26 1.03.54 2.08.84 3.15.9l-1 1.93a10.52 10.52 0 0 1-3.56-1.1c-1.52-.8-2.5-1.7-2.92-2.72a3.62 3.62 0 0 1 .23-3.21l2.67-5.14 2.5 1.3-.4.77a4.48 4.48 0 0 1 3.42.46Zm-1.63 1.38a3.1 3.1 0 0 0-1.31-.36c-.44-.02-.83.06-1.18.25l-.44.85c.39.71.94 1.25 1.66 1.62.5.26.93.35 1.3.28.37-.07.65-.3.86-.7.2-.38.21-.73.06-1.06a2 2 0 0 0-.95-.88ZM39.27 130.02c.77.6 1.34 1.29 1.7 2.08.34.8.45 1.62.34 2.49-.13.86-.5 1.7-1.11 2.5-.6.78-1.3 1.35-2.11 1.7-.8.35-1.64.46-2.5.33a5.2 5.2 0 0 1-2.48-1.08 6.2 6.2 0 0 1-1.38-1.43 4.2 4.2 0 0 1-.67-1.6l-3.65 4.76-2.37-1.82 8.92-11.63 2.3 1.76-.63.82c.67-.07 1.3-.01 1.89.18.58.17 1.16.49 1.75.94Zm-2.03 1.37a2.82 2.82 0 0 0-3.25-.2l-1.1 1.44a2.5 2.5 0 0 0 .02 1.66c.18.57.52 1.05 1.01 1.43.64.49 1.32.69 2.03.6.7-.09 1.31-.46 1.8-1.11.5-.65.71-1.33.62-2.03-.11-.7-.49-1.3-1.13-1.8ZM25.7 131.88l-1.79-2.15.89-.74a4.32 4.32 0 0 1-1.74-.41c-.54-.26-1-.6-1.37-1.06a3.64 3.64 0 0 1-.84-1.56c-.1-.48-.07-.96.12-1.44a4.73 4.73 0 0 1-3.13-1.62c-.79-.94-1.1-1.8-.95-2.6.14-.8.66-1.58 1.56-2.33L23.2 114l1.83 2.19-4.43 3.7c-.47.38-.73.75-.78 1.1-.05.36.1.74.43 1.14.48.57 1.08.84 1.81.82.31-.3.57-.53.77-.7l4.28-3.56 1.84 2.2-4.5 3.77c-.45.37-.7.71-.75 1.02-.06.32.06.67.39 1.05.5.6 1.28.85 2.35.75l4.72-3.93 1.85 2.22-7.3 6.1ZM21.28 109.44c.55 1.03.73 2 .56 2.93a2.96 2.96 0 0 1-1.63 2.1c-.93.49-1.82.56-2.66.22a4.47 4.47 0 0 1-2.18-2.22 7.21 7.21 0 0 1-.6-1.52c-.13-.51-.2-1-.2-1.44l-.21.1c-.53.29-.81.68-.86 1.18-.05.5.13 1.14.54 1.91a7.79 7.79 0 0 0 2.08 2.54l-1.93 1.02a10.52 10.52 0 0 1-2.3-2.94c-.8-1.52-1.08-2.82-.84-3.9.22-1.08.9-1.91 2.02-2.5l5.12-2.7 1.31 2.48-.77.41a4.48 4.48 0 0 1 2.55 2.33Zm-2.13.2a3.1 3.1 0 0 0-.87-1.04 2.24 2.24 0 0 0-1.11-.46l-.85.44c-.08.8.07 1.57.44 2.28.26.5.57.82.92.97.34.16.7.13 1.1-.08.37-.2.6-.48.66-.84a2 2 0 0 0-.29-1.26ZM8.68 106.22l-.87-2.76 1-.31a5.04 5.04 0 0 1-2.36-3 5.26 5.26 0 0 1-.19-2.69c.16-.85.54-1.6 1.15-2.23a5.3 5.3 0 0 1 2.32-1.4c.94-.3 1.85-.36 2.7-.19a4.6 4.6 0 0 1 2.26 1.16c.63.59 1.1 1.36 1.4 2.3.2.64.3 1.29.3 1.93-.01.64-.13 1.21-.35 1.73l4.95-1.57.9 2.86-13.21 4.17Zm5.4-7.7a2.66 2.66 0 0 0-1.3-1.64 2.64 2.64 0 0 0-2.13-.14c-.78.25-1.33.7-1.64 1.33a2.7 2.7 0 0 0-.1 2.1c.18.59.5 1.07.97 1.43.46.37.98.57 1.56.61l1.72-.54c.47-.36.8-.82.96-1.39a3 3 0 0 0-.04-1.75ZM-.94 75.1l.7-5.97a5.26 5.26 0 0 1 1.6-3.51c.87-.79 2.05-1.1 3.52-.93 1.02.12 1.87.46 2.54 1.02a4.1 4.1 0 0 1 1.32 2.19l5.35-2.04-.36 3.07-4.95 1.88-.27 2.35 4.66.54-.34 3-13.77-1.6Zm7.23-4.67c.09-.77 0-1.38-.29-1.85-.27-.49-.76-.77-1.47-.85-.75-.1-1.3.06-1.66.46-.36.4-.59.98-.68 1.76l-.28 2.44 4.1.48.28-2.44ZM16.27 59.3c-.35 1.1-.85 2-1.51 2.71a4.83 4.83 0 0 1-2.3 1.37c-.86.2-1.78.15-2.75-.16a5 5 0 0 1-2.3-1.46 4.78 4.78 0 0 1-1.1-2.45 6.88 6.88 0 0 1 .33-3.09 6.7 6.7 0 0 1 1.52-2.66 4.63 4.63 0 0 1 2.3-1.36 4.9 4.9 0 0 1 2.74.13 4.7 4.7 0 0 1 3.4 3.92c.13.94.02 1.96-.33 3.06Zm-2.23-.7c.25-.77.21-1.46-.11-2.06a2.77 2.77 0 0 0-1.67-1.29c-.8-.25-1.5-.23-2.1.08-.61.29-1.04.83-1.3 1.6-.24.79-.2 1.48.11 2.08.31.6.87 1.03 1.67 1.29.78.25 1.49.22 2.11-.08a2.63 2.63 0 0 0 1.3-1.63ZM20.22 49.57a4.48 4.48 0 0 1-2.12 2.1c-.86.37-1.75.31-2.64-.17-.94-.5-1.5-1.19-1.68-2.08-.2-.9 0-1.91.61-3.05.27-.5.57-.95.92-1.35.35-.4.71-.72 1.08-.97l-.2-.11c-.53-.28-1.02-.3-1.46-.06a3.6 3.6 0 0 0-1.28 1.52 7.8 7.8 0 0 0-.93 3.14l-1.93-1.02a10.49 10.49 0 0 1 1.15-3.55c.8-1.51 1.72-2.48 2.75-2.89a3.62 3.62 0 0 1 3.2.27l5.12 2.72-1.33 2.49-.77-.41c.31 1.07.15 2.21-.5 3.42Zm-1.37-1.65c.23-.44.35-.87.38-1.3.02-.44-.06-.84-.25-1.2l-.84-.44c-.71.38-1.26.93-1.64 1.64-.26.5-.35.93-.29 1.3.07.37.3.66.7.87.36.2.72.22 1.05.07a2 2 0 0 0 .89-.94ZM26.24 39.91c-.6.77-1.3 1.33-2.1 1.68-.8.33-1.63.44-2.5.31a5.41 5.41 0 0 1-2.48-1.14 5.37 5.37 0 0 1-1.68-2.12 4.46 4.46 0 0 1-.3-2.51c.13-.87.5-1.7 1.1-2.46.44-.56.92-1.02 1.45-1.36a4.2 4.2 0 0 1 1.6-.66l-4.71-3.7 1.85-2.36 11.52 9.05-1.78 2.28-.81-.64c.06.67 0 1.3-.2 1.89-.19.58-.5 1.16-.96 1.74Zm-1.35-2.04a2.81 2.81 0 0 0 .23-3.25l-1.42-1.11a2.5 2.5 0 0 0-1.67 0c-.57.17-1.05.5-1.43 1-.5.63-.7 1.3-.63 2.02.08.7.45 1.3 1.1 1.82.64.5 1.31.71 2.02.63.7-.1 1.3-.48 1.8-1.11ZM24.49 26.28l2.16-1.76.73.89c.03-.62.17-1.2.43-1.73.26-.54.62-1 1.07-1.36a3.65 3.65 0 0 1 1.58-.82c.48-.1.96-.06 1.44.13.04-.6.21-1.17.51-1.73.31-.56.7-1.02 1.14-1.39.95-.76 1.81-1.07 2.6-.91.8.14 1.58.67 2.32 1.59l3.91 4.8-2.21 1.8-3.65-4.48c-.38-.47-.75-.73-1.1-.79-.35-.05-.73.09-1.14.42a2.14 2.14 0 0 0-.83 1.8l.68.78 3.52 4.32-2.23 1.82-3.7-4.56c-.38-.45-.72-.7-1.03-.75-.31-.07-.67.06-1.05.37-.6.5-.87 1.28-.78 2.35l3.88 4.76-2.24 1.83-6.01-7.38ZM47.28 21.89c-1.04.52-2.02.7-2.94.51-.92-.2-1.61-.75-2.07-1.66a3.02 3.02 0 0 1-.18-2.67 4.46 4.46 0 0 1 2.24-2.14c.51-.26 1.02-.45 1.53-.58.52-.13 1-.19 1.45-.18l-.11-.21c-.27-.53-.66-.82-1.16-.88a3.6 3.6 0 0 0-1.92.51 7.8 7.8 0 0 0-2.57 2.04l-.99-1.94a10.48 10.48 0 0 1 2.97-2.25c1.54-.78 2.84-1.04 3.92-.79 1.07.24 1.9.93 2.47 2.06l2.63 5.16-2.51 1.28-.4-.78a4.48 4.48 0 0 1-2.36 2.52Zm-.18-2.14c.44-.22.79-.5 1.06-.85s.43-.72.48-1.11l-.43-.85c-.8-.1-1.57.04-2.29.4-.5.26-.82.56-.98.9-.16.34-.14.7.07 1.1.19.38.46.6.82.68a2 2 0 0 0 1.27-.27ZM50.72 9.29l2.78-.83.3 1a5.04 5.04 0 0 1 3.03-2.31A5.26 5.26 0 0 1 59.52 7c.85.18 1.6.57 2.22 1.18a5.3 5.3 0 0 1 1.36 2.35c.29.95.34 1.85.15 2.7a4.6 4.6 0 0 1-1.2 2.25 5.26 5.26 0 0 1-2.32 1.36c-.64.19-1.28.28-1.92.26a4.38 4.38 0 0 1-1.73-.37l1.5 4.98-2.88.86-3.98-13.28Zm7.62 5.52A2.66 2.66 0 0 0 60 13.52c.35-.62.41-1.33.18-2.12a2.58 2.58 0 0 0-1.3-1.65 2.7 2.7 0 0 0-2.1-.14 2.9 2.9 0 0 0-2.08 2.5l.51 1.73c.35.48.81.8 1.37.98a3 3 0 0 0 1.76-.01ZM75.94-.01l6 .32c1.57.09 2.77.55 3.6 1.39.84.83 1.23 1.98 1.15 3.46a4.71 4.71 0 0 1-.86 2.6 4.1 4.1 0 0 1-2.1 1.45l2.36 5.2-3.1-.16-2.18-4.82-2.35-.13-.26 4.7-3-.17.74-13.84Zm5.11 6.93c.77.04 1.37-.1 1.83-.4.46-.3.72-.81.76-1.53.04-.75-.15-1.29-.57-1.62a3.05 3.05 0 0 0-1.8-.57l-2.45-.13-.23 4.12 2.46.13ZM92.68 16.15a7.06 7.06 0 0 1-2.79-1.33 4.83 4.83 0 0 1-1.51-2.2 5.08 5.08 0 0 1-.03-2.77 5 5 0 0 1 1.32-2.39 4.78 4.78 0 0 1 2.38-1.24c.94-.2 1.98-.16 3.1.12a6.7 6.7 0 0 1 2.74 1.35A4.63 4.63 0 0 1 99.4 9.9c.28.86.3 1.77.05 2.74a4.7 4.7 0 0 1-3.7 3.65c-.93.19-1.95.14-3.07-.14Zm.57-2.27c.78.2 1.47.12 2.05-.24.58-.37.97-.96 1.17-1.75.2-.82.14-1.52-.2-2.1-.34-.59-.9-.98-1.7-1.18-.8-.2-1.48-.12-2.06.24-.58.35-.97.93-1.17 1.75-.2.8-.13 1.5.2 2.1.36.6.93.99 1.71 1.18ZM102.8 19.51a4.49 4.49 0 0 1-2.23-1.97 2.96 2.96 0 0 1 0-2.65 3.02 3.02 0 0 1 1.98-1.8c.88-.26 1.9-.12 3.07.4.52.24.99.52 1.41.84.42.32.77.66 1.04 1.02l.1-.22c.25-.54.23-1.02-.04-1.45a3.6 3.6 0 0 0-1.6-1.18 7.8 7.8 0 0 0-3.19-.74l.9-1.98a10.5 10.5 0 0 1 3.61.92c1.57.71 2.59 1.57 3.06 2.57.48.98.46 2.05-.06 3.21l-2.4 5.27-2.56-1.16.36-.8c-1.06.38-2.2.29-3.45-.28Zm1.56-1.46c.45.2.9.3 1.33.3.44-.01.83-.12 1.17-.33l.4-.86c-.44-.7-1.02-1.2-1.75-1.54-.5-.23-.95-.3-1.32-.2-.36.08-.63.33-.82.74-.17.38-.18.74 0 1.06.17.33.5.6 1 .83ZM112.86 24.95a5.46 5.46 0 0 1-1.8-2 4.68 4.68 0 0 1-.48-2.46c.09-.87.42-1.72.99-2.55a5.38 5.38 0 0 1 2.02-1.8c.78-.4 1.6-.55 2.48-.47.88.08 1.72.4 2.53.95.58.4 1.07.86 1.44 1.36.38.5.63 1.02.76 1.56l3.4-4.94 2.46 1.7-8.31 12.07-2.38-1.64.58-.85c-.66.1-1.3.08-1.9-.08a5.6 5.6 0 0 1-1.8-.85Zm1.95-1.47a2.81 2.81 0 0 0 3.26.02l1.02-1.48a2.5 2.5 0 0 0-.1-1.66 2.83 2.83 0 0 0-1.08-1.37 2.72 2.72 0 0 0-2.06-.5c-.7.12-1.29.52-1.75 1.2a2.68 2.68 0 0 0-.5 2.06c.14.7.55 1.27 1.21 1.73ZM126.4 22.41l1.9 2.06-.85.78c.61-.01 1.2.1 1.75.32.55.23 1.03.56 1.42.98.5.54.8 1.05.92 1.53.13.47.12.95-.04 1.44a4.72 4.72 0 0 1 3.21 1.46c.82.9 1.18 1.75 1.08 2.55-.1.8-.58 1.6-1.45 2.4l-4.54 4.2-1.94-2.1 4.24-3.9c.45-.42.69-.8.72-1.16.03-.35-.13-.72-.49-1.11a2.14 2.14 0 0 0-1.85-.72l-.73.73-4.1 3.78-1.95-2.12 4.32-3.98c.42-.4.66-.75.69-1.06.05-.32-.1-.66-.44-1.03-.53-.58-1.33-.79-2.39-.63L121.36 31l-1.96-2.13 7-6.46ZM131.95 44.53c-.6-1-.83-1.97-.71-2.9.14-.93.64-1.66 1.52-2.18.9-.54 1.79-.66 2.65-.35.87.3 1.63 1 2.29 2.1.29.48.51.98.68 1.48.16.5.25.98.27 1.43l.2-.12c.52-.3.78-.7.8-1.21a3.6 3.6 0 0 0-.63-1.89 7.8 7.8 0 0 0-2.21-2.42l1.87-1.12a10.46 10.46 0 0 1 2.44 2.82c.88 1.47 1.23 2.76 1.05 3.85a3.62 3.62 0 0 1-1.89 2.6l-4.97 2.97-1.44-2.42.75-.45a4.48 4.48 0 0 1-2.67-2.2Zm2.12-.32c.25.42.56.75.92 1 .36.24.74.38 1.14.4l.82-.48c.04-.81-.15-1.56-.56-2.26-.29-.47-.6-.78-.97-.92-.34-.14-.7-.09-1.09.14-.36.22-.57.5-.61.87-.05.37.07.78.35 1.25ZM144.88 47.4l1 2.72-.98.36a5.04 5.04 0 0 1 2.5 2.88c.35.93.45 1.82.32 2.67a4.33 4.33 0 0 1-1.03 2.29 5.3 5.3 0 0 1-2.26 1.51c-.93.35-1.82.45-2.69.32a4.6 4.6 0 0 1-2.31-1.04 5.26 5.26 0 0 1-1.5-2.23 6.13 6.13 0 0 1-.4-1.91c-.02-.64.06-1.22.26-1.75l-4.87 1.8-1.04-2.8 13-4.82Zm-5.03 7.96a2.64 2.64 0 0 0 3.52 1.61c.77-.29 1.3-.76 1.57-1.4a2.7 2.7 0 0 0 0-2.1 2.9 2.9 0 0 0-2.63-1.92l-1.69.62c-.45.38-.75.86-.89 1.43a3 3 0 0 0 .13 1.76Z"><animateTransform attributeName="transform" attributeType="XML" type="rotate" from="0 78 78" to="-360 78 78" dur="60s" begin="0s" repeatCount="indefinite" fill="freeze"/></path></svg>