<svg width="235" height="127" viewBox="0 0 235 127" fill="none" xmlns="http://www.w3.org/2000/svg">
<path d="M152.01 69.3917L216.751 52.0826C218.764 51.5459 220.91 52.7534 221.447 54.7662L234.261 102.332C234.798 104.345 233.59 106.425 231.511 106.961L166.77 124.27C164.757 124.807 162.61 123.6 162.074 121.587L149.327 74.0207C148.79 72.0081 149.998 69.9284 152.01 69.3917Z" fill="#E1EAF1"/>
<path d="M157.447 73.2155L214.07 58.1206C215.613 57.718 217.223 58.6573 217.693 60.2003L228.293 99.5815C228.695 101.124 227.756 102.735 226.213 103.137L169.59 118.232C168.047 118.635 166.437 117.695 165.967 116.152L155.367 76.7712C154.898 75.2281 155.837 73.618 157.447 73.2155Z" fill="#80CA5C"/>
<path d="M163.752 68.7202H231.176C233.323 68.7202 235 70.4645 235 72.5442V122.525C235 124.672 233.256 126.349 231.176 126.349H163.752C161.605 126.349 159.928 124.605 159.928 122.525V72.5444C159.928 70.4645 161.672 68.7202 163.752 68.7202Z" fill="#F1C9DC"/>
<path d="M168.245 74.0874H226.814C228.424 74.0874 229.765 75.4292 229.765 77.0393V118.098C229.765 119.708 228.424 121.05 226.814 121.05H168.245C166.635 121.05 165.293 119.708 165.293 118.098V77.0393C165.293 75.4292 166.568 74.0874 168.245 74.0874Z" fill="#E1EAF1"/>
<path d="M165.293 77.0393V91.3963C165.964 91.4634 166.635 91.5305 167.306 91.5305C175.826 91.5305 182.736 84.6204 182.736 76.1C182.736 75.4292 182.669 74.7582 182.602 74.0874H168.245C166.568 74.0874 165.293 75.4292 165.293 77.0393Z" fill="#F1C9DC"/>
<path d="M170.19 106.962C168.513 106.962 166.836 107.097 165.293 107.298V118.099C165.293 119.709 166.635 121.051 168.245 121.051H190.585C190.72 120.447 190.787 119.911 190.787 119.307C190.787 112.464 181.596 106.962 170.19 106.962Z" fill="#80CA5C"/>
<path d="M216.953 100.923C198.57 100.923 183.609 109.913 183.408 121.05H226.748C228.358 121.05 229.7 119.708 229.7 118.098V102.466C225.741 101.527 221.448 100.923 216.953 100.923Z" fill="#A9D379"/>
<path fill-rule="evenodd" clip-rule="evenodd" d="M132.045 99.9477C152.561 99.9477 169.193 83.3158 169.193 62.7993C169.193 42.2828 152.561 25.6509 132.045 25.6509C111.528 25.6509 94.8965 42.2828 94.8965 62.7993C94.8965 83.3158 111.528 99.9477 132.045 99.9477ZM132.045 72.2348C137.256 72.2348 141.481 68.0104 141.481 62.7992C141.481 57.5881 137.256 53.3637 132.045 53.3637C126.834 53.3637 122.61 57.5881 122.61 62.7992C122.61 68.0104 126.834 72.2348 132.045 72.2348Z" fill="#313137"/>
<path fill-rule="evenodd" clip-rule="evenodd" d="M132.044 79.8495C141.461 79.8495 149.094 72.216 149.094 62.7995C149.094 53.3831 141.461 45.7495 132.044 45.7495C122.628 45.7495 114.994 53.3831 114.994 62.7995C114.994 72.216 122.628 79.8495 132.044 79.8495ZM132.044 72.2348C137.255 72.2348 141.479 68.0104 141.479 62.7992C141.479 57.5881 137.255 53.3637 132.044 53.3637C126.832 53.3637 122.608 57.5881 122.608 62.7992C122.608 68.0104 126.832 72.2348 132.044 72.2348Z" fill="#F1C9DC"/>
<g clip-path="url(#clip0)">
<path d="M112.338 76.7901V74.0525C111.078 73.6017 109.728 73.3555 108.323 73.3555C106.758 73.3555 105.261 73.6594 103.883 74.2132V76.9508L112.338 76.7901Z" fill="#A9D379"/>
<path d="M75.463 76.9507V74.2132C74.0844 73.6593 72.588 73.3555 71.0231 73.3555C69.6176 73.3555 68.2675 73.6017 67.0078 74.0525V76.7901L75.463 76.9507Z" fill="#A9D379"/>
<path d="M58.4478 125.102C64.9653 128.131 68.1542 123.59 69.5803 119.157L73.0277 108.397C73.0278 108.397 73.0279 108.397 73.0281 108.397L73.0279 108.397L73.7793 107.42C73.7793 107.42 75.9056 108.626 77.7121 108.626C79.8663 108.626 81.8194 107.728 83.2526 106.271C83.3854 106.136 83.565 106.064 83.75 106.064H95.5972C95.7822 106.064 95.9618 106.136 96.0946 106.271C97.5279 107.728 99.481 108.626 101.635 108.626C103.442 108.626 105.568 107.42 105.568 107.42L106.319 108.397L109.765 119.152C111.188 123.588 116.775 127.155 120.899 125.36C123.393 124.275 125.539 121.008 125.539 117.947L120.639 87.3551L120.636 87.3577C119.814 80.9968 114.617 76.0928 108.324 76.0928C104.772 76.0928 101.57 77.6573 99.3062 80.1627H80.0409C77.7768 77.6573 74.5756 76.0928 71.0233 76.0928C64.7303 76.0928 59.5332 80.9968 58.7112 87.3577L58.7079 87.3551L53.8027 117.977L53.8077 117.947C53.6958 121.717 55.9537 124.016 58.4478 125.102Z" fill="#F1C9DC"/>
<path d="M74.8359 100.376C74.8359 101.733 76.5656 103.951 77.986 103.951C79.4063 103.951 81.136 101.723 81.136 100.376C80.6234 99.0814 79.4063 98.1704 77.986 98.1704C76.5656 98.1704 75.3484 99.0814 74.8359 100.376Z" fill="#313137"/>
<path d="M74.7524 87.0009H73.4179V85.6022C73.4179 84.2656 72.3844 83.1821 71.1094 83.1821C69.8345 83.1821 68.801 84.2656 68.801 85.6022V87.0009H67.4668C66.1918 87.0009 65.1582 88.0844 65.1582 89.421C65.1582 90.7576 66.1918 91.8411 67.4668 91.8411H68.801V93.2398C68.801 94.5765 69.8345 95.6599 71.1094 95.6599C72.3844 95.6599 73.4179 94.5765 73.4179 93.2398V91.8411H74.7524C76.0273 91.8411 77.0609 90.7576 77.0609 89.421C77.0607 88.0844 76.0272 87.0009 74.7524 87.0009Z" fill="#B3E59F"/>
<path d="M74.7524 87.0009H73.4179V85.6022C73.4179 84.2656 72.3844 83.1821 71.1094 83.1821C69.8345 83.1821 68.801 84.2656 68.801 85.6022V87.0009H67.4668C66.1918 87.0009 65.1582 88.0844 65.1582 89.421C65.1582 90.7576 66.1918 91.8411 67.4668 91.8411H68.801V93.2398C68.801 94.5765 69.8345 95.6599 71.1094 95.6599C72.3844 95.6599 73.4179 94.5765 73.4179 93.2398V91.8411H74.7524C76.0273 91.8411 77.0609 90.7576 77.0609 89.421C77.0607 88.0844 76.0272 87.0009 74.7524 87.0009Z" fill="#F8F5EF"/>
<path d="M108.814 81.624C107.757 81.624 106.893 82.489 106.893 83.5463C106.893 84.6037 107.757 85.4687 108.814 85.4687C109.871 85.4687 110.736 84.6037 110.736 83.5463C110.736 82.489 109.871 81.624 108.814 81.624Z" fill="#A9D379"/>
<path d="M108.814 92.8359C107.757 92.8359 106.893 93.7009 106.893 94.7583C106.893 95.8156 107.757 96.6806 108.814 96.6806C109.871 96.6806 110.736 95.8156 110.736 94.7583C110.736 93.7009 109.871 92.8359 108.814 92.8359Z" fill="#CDC7A7"/>
<path d="M116.083 89.1523C116.083 88.095 115.219 87.23 114.162 87.23C113.105 87.23 112.24 88.095 112.24 89.1523C112.24 90.2096 113.105 91.0746 114.162 91.0746C115.219 91.0745 116.083 90.2094 116.083 89.1523Z" fill="#313137"/>
<path d="M105.388 89.1523C105.388 88.095 104.523 87.23 103.466 87.23C102.41 87.23 101.545 88.095 101.545 89.1523C101.545 90.2096 102.41 91.0746 103.466 91.0746C104.523 91.0745 105.388 90.2094 105.388 89.1523Z" fill="#E1EAF1"/>
<path d="M82.9439 83.8645H96.4061C97.7753 83.8645 99.2251 81.5025 99.2251 80.1631H80.125C80.2235 81.5025 81.5748 83.8645 82.9439 83.8645Z" fill="#DDBACB"/>
<path d="M98.2109 100.376C98.2109 101.733 99.9405 103.951 101.361 103.951C102.782 103.951 104.511 101.723 104.511 100.376C103.999 99.0814 102.782 98.1704 101.361 98.1704C99.9405 98.1704 98.7233 99.0814 98.2109 100.376Z" fill="#313137"/>
</g>
<g opacity="0.97" clip-path="url(#clip1)">
<path d="M86.3893 28.9351H83.4559V62.9868C83.4559 62.9868 79.5121 64.0034 70.1944 61.5183C63.9122 59.8427 59.2127 61.8644 56.8173 63.3592C56.3077 63.6772 55.7023 64.203 55.0789 64.203H55.0399H55.0011C54.3777 64.203 53.7721 63.6773 53.2627 63.3594C50.8674 61.8645 46.1677 59.8427 39.8854 61.5183C30.568 64.0034 26.6239 62.9868 26.6239 62.9868V28.9351H23.6905C22.9024 28.9351 22.2637 29.5004 22.2637 30.1978V65.7005C22.2637 66.3979 22.9026 66.9632 23.6905 66.9632H49.3216C50.0776 66.9632 50.7803 67.3377 51.1035 67.9426C51.8004 69.2477 53.3006 70.1506 55.0398 70.1506C56.7789 70.1506 58.2793 69.2477 58.9762 67.9426C59.2993 67.3376 60.0019 66.9632 60.7581 66.9632H86.3892C87.1772 66.9632 87.8159 66.3979 87.8159 65.7005V30.1978C87.8162 29.5004 87.1774 28.9351 86.3893 28.9351Z" fill="#A9D379"/>
<path d="M29.562 65.7004V63.1889C27.5494 63.2252 26.6242 62.9868 26.6242 62.9868V28.9351H23.6905C22.9024 28.9351 22.2637 29.5004 22.2637 30.1978V65.7004C22.2637 66.3979 22.9024 66.9632 23.6905 66.9632H30.9888C30.2008 66.9632 29.562 66.3978 29.562 65.7004Z" fill="#80CA5C"/>
<path d="M82.5791 26.2176C80.6786 26.3525 76.6207 26.3038 70.1964 24.5903C60.8789 22.1051 55.0419 27.7532 55.0419 27.7532L54.0254 28.9351V62.9496L55.0419 64.1571V64.2031H55.0808C55.7043 64.2031 56.3097 64.0276 56.8192 63.7097C59.2145 62.2147 63.9141 60.1931 70.1964 61.8688C79.5139 64.3538 83.8537 63.3372 83.8537 63.3372V27.2608C83.8537 26.6504 83.2667 26.1687 82.5791 26.2176Z" fill="#E1EAF1"/>
<path d="M58.9117 25.3311C56.4224 26.4175 55.0419 27.7528 55.0419 27.7528L54.0254 28.9348V62.9493L55.0419 64.1567V64.2028H55.0808C55.7043 64.2028 56.3097 64.0273 56.8192 63.7094C57.389 63.3537 58.0907 62.9685 58.9117 62.6101V25.3311Z" fill="#E1EAF1"/>
<path d="M79.2512 33.1121C79.2258 33.1121 79.2002 33.1113 79.1744 33.1095C76.4024 32.9212 73.2852 32.3693 69.9092 31.4688C66.4752 30.5527 63.1522 30.6903 60.0325 31.8771C59.5305 32.0682 58.9488 31.8626 58.733 31.4186C58.5173 30.9743 58.7492 30.4594 59.2512 30.2685C62.8103 28.9145 66.5882 28.7545 70.48 29.7925C73.7194 30.6565 76.6956 31.1852 79.3257 31.3639C79.8706 31.4008 80.2782 31.8216 80.2362 32.3038C80.1966 32.763 79.7632 33.1121 79.2512 33.1121Z" fill="#FDFBF8"/>
<path d="M79.2512 36.8324C79.2258 36.8324 79.2002 36.8316 79.1744 36.8298C76.403 36.6417 73.2858 36.0896 69.9092 35.189C66.475 34.273 63.1522 34.4105 60.0325 35.5974C59.5305 35.7883 58.9488 35.583 58.733 35.1388C58.5173 34.6945 58.7492 34.1797 59.2512 33.9888C62.8103 32.6348 66.5882 32.4747 70.48 33.5128C73.7202 34.3769 76.6962 34.9056 79.3255 35.0841C79.8704 35.121 80.2781 35.5418 80.2362 36.0239C80.1968 36.4833 79.7632 36.8324 79.2512 36.8324Z" fill="#FDFBF8"/>
<path d="M79.2512 55.437C79.2258 55.437 79.2002 55.4361 79.1744 55.4343C76.4022 55.246 73.285 54.694 69.9092 53.7935C66.4752 52.8777 63.1523 53.0152 60.0325 54.202C59.5305 54.393 58.9488 54.1875 58.733 53.7434C58.5173 53.2992 58.7492 52.7843 59.2512 52.5933C62.8103 51.2394 66.5882 51.0792 70.48 52.1172C73.7194 52.9813 76.6956 53.51 79.3257 53.6886C79.8706 53.7257 80.2782 54.1465 80.2362 54.6286C80.1966 55.0878 79.7632 55.437 79.2512 55.437Z" fill="#FDFBF8"/>
<path d="M79.2512 59.1581C79.2258 59.1581 79.2002 59.1572 79.1744 59.1554C76.4024 58.967 73.2852 58.4151 69.9092 57.5147C66.4752 56.5987 63.1522 56.7363 60.0325 57.923C59.5305 58.114 58.9488 57.9086 58.733 57.4645C58.5173 57.0202 58.7492 56.5054 59.2512 56.3144C62.8103 54.9605 66.5882 54.8004 70.48 55.8383C73.7194 56.7024 76.6956 57.231 79.3257 57.4097C79.8706 57.4467 80.2782 57.8675 80.2362 58.3496C80.1966 58.8088 79.7632 59.1581 79.2512 59.1581Z" fill="#FDFBF8"/>
<path d="M79.2512 40.5537C79.2258 40.5537 79.2002 40.5529 79.1744 40.551C76.4022 40.3627 73.285 39.8106 69.9092 38.9102C66.4752 37.9944 63.1523 38.1319 60.0325 39.3186C59.5305 39.5096 58.9488 39.3042 58.733 38.8601C58.5173 38.4158 58.7492 37.901 59.2512 37.71C62.8103 36.3561 66.5882 36.1959 70.48 37.2339C73.7194 38.098 76.6956 38.6266 79.3257 38.8054C79.8706 38.8423 80.2782 39.2631 80.2362 39.7452C80.1966 40.2045 79.7632 40.5537 79.2512 40.5537Z" fill="#FDFBF8"/>
<path d="M79.2511 47.9955C79.2258 47.9955 79.2002 47.9947 79.1744 47.993C76.403 47.8047 73.2858 47.2527 69.9092 46.3521C66.4752 45.4361 63.1522 45.5737 60.0325 46.7605C59.5305 46.9516 58.9488 46.746 58.733 46.302C58.5173 45.8577 58.7492 45.3428 59.2512 45.1519C62.8103 43.7979 66.5882 43.6378 70.48 44.6759C73.7202 45.5401 76.6964 46.0687 79.3257 46.2471C79.8704 46.2842 80.2781 46.7048 80.2364 47.187C80.1966 47.6462 79.7632 47.9955 79.2511 47.9955Z" fill="#FDFBF8"/>
<path d="M79.2512 44.2748C79.2258 44.2748 79.2002 44.274 79.1744 44.2722C76.4024 44.0839 73.2852 43.5319 69.9092 42.6315C66.4754 41.7156 63.1525 41.8528 60.0325 43.0399C59.5305 43.2308 58.9488 43.0253 58.733 42.5813C58.5173 42.137 58.7492 41.6221 59.2512 41.4312C62.8103 40.0773 66.5882 39.917 70.48 40.9552C73.7194 41.8191 76.6956 42.3479 79.3257 42.5266C79.8704 42.5635 80.2781 42.9843 80.2362 43.4664C80.1966 43.9256 79.7632 44.2748 79.2512 44.2748Z" fill="#FDFBF8"/>
<path d="M79.2511 51.7167C79.2258 51.7167 79.2002 51.7159 79.1744 51.7142C76.4025 51.5259 73.2853 50.9739 69.9092 50.0733C66.4752 49.1574 63.1523 49.2949 60.0325 50.4818C59.5305 50.6728 58.9488 50.4675 58.733 50.0233C58.5173 49.579 58.7492 49.0641 59.2512 48.8731C62.8103 47.5192 66.5882 47.3589 70.48 48.397C73.7197 49.2611 76.6958 49.7898 79.3257 49.9683C79.8704 50.0054 80.2781 50.426 80.2364 50.9081C80.1966 51.3674 79.7632 51.7167 79.2511 51.7167Z" fill="#FDFBF8"/>
<path d="M27.505 26.2176C29.4057 26.3525 33.4635 26.3038 39.8878 24.5903C49.2052 22.1051 55.0422 27.7532 55.0422 27.7532V64.2031H55.0033C54.3799 64.2031 53.7744 64.0276 53.2649 63.7097C50.8694 62.2147 46.17 60.1931 39.8877 61.8686C30.5701 64.3537 26.2305 63.3371 26.2305 63.3371V27.2608C26.2306 26.6504 26.8175 26.1687 27.505 26.2176Z" fill="#E1EAF1"/>
<path d="M30.583 26.2124C29.2436 26.293 28.221 26.2683 27.5049 26.2175C26.8174 26.1687 26.2305 26.6503 26.2305 27.2607V63.3371C26.2305 63.3371 27.6437 63.6666 30.583 63.4903V26.2124Z" fill="#E1EAF1"/>
<path d="M30.83 33.1113C30.318 33.1113 29.8846 32.7622 29.8448 32.3029C29.8029 31.8207 30.2107 31.3999 30.7553 31.363C33.3854 31.1843 36.3615 30.6556 39.6011 29.7916C43.493 28.7534 47.2709 28.9137 50.8299 30.2676C51.3318 30.4585 51.5638 30.9734 51.3481 31.4177C51.1322 31.862 50.5505 32.0671 50.0486 31.8763C46.9289 30.6893 43.6059 30.5521 40.1718 31.4679C36.796 32.3684 33.6788 32.9203 30.9067 33.1086C30.881 33.1106 30.8553 33.1113 30.83 33.1113Z" fill="#FDFBF8"/>
<path d="M30.8299 36.8325C30.3179 36.8325 29.8844 36.4833 29.8447 36.024C29.803 35.5419 30.2107 35.1211 30.7554 35.0842C33.3848 34.9057 36.3609 34.377 39.6011 33.5128C43.493 32.4746 47.2709 32.6349 50.8299 33.9888C51.3317 34.1797 51.5638 34.6946 51.3481 35.1389C51.1322 35.5832 50.5505 35.7884 50.0484 35.5975C46.9289 34.4104 43.6058 34.2734 40.1718 35.1891C36.7952 36.0896 33.678 36.6417 30.9066 36.8298C30.8809 36.8318 30.8553 36.8325 30.8299 36.8325Z" fill="#FDFBF8"/>
<path d="M30.83 55.437C30.318 55.437 29.8846 55.0878 29.8448 54.6285C29.8029 54.1464 30.2107 53.7255 30.7553 53.6886C33.3855 53.5099 36.3616 52.9812 39.6009 52.1171C43.4927 51.0792 47.2707 51.2393 50.8297 52.5932C51.3317 52.7841 51.5636 53.299 51.3479 53.7433C51.1322 54.1875 50.5504 54.3928 50.0484 54.2019C46.9287 53.0151 43.6057 52.8775 40.1717 53.7934C36.796 54.6939 33.6788 55.2459 30.9065 55.4342C30.881 55.4362 30.8553 55.437 30.83 55.437Z" fill="#FDFBF8"/>
<path d="M30.83 59.1582C30.318 59.1582 29.8846 58.809 29.8448 58.3498C29.8029 57.8676 30.2107 57.4467 30.7553 57.4098C33.3854 57.2311 36.3615 56.7025 39.6011 55.8384C43.493 54.8003 47.2709 54.9605 50.8299 56.3145C51.3318 56.5054 51.5638 57.0202 51.3481 57.4645C51.1322 57.9088 50.5505 58.1139 50.0486 57.9231C46.9289 56.7361 43.6059 56.5991 40.1718 57.5148C36.796 58.4153 33.6788 58.9672 30.9067 59.1555C30.881 59.1573 30.8553 59.1582 30.83 59.1582Z" fill="#FDFBF8"/>
<path d="M30.83 40.5537C30.318 40.5537 29.8846 40.2045 29.8448 39.7453C29.8029 39.2631 30.2107 38.8423 30.7553 38.8054C33.3855 38.6267 36.3616 38.0979 39.6009 37.2339C43.4927 36.1959 47.2707 36.356 50.8297 37.71C51.3317 37.9009 51.5636 38.4158 51.3479 38.8601C51.1322 39.3042 50.5504 39.5096 50.0484 39.3187C46.9287 38.1318 43.6057 37.9943 40.1717 38.9101C36.796 39.8107 33.6788 40.3627 30.9065 40.551C30.881 40.5529 30.8553 40.5537 30.83 40.5537Z" fill="#FDFBF8"/>
<path d="M30.8299 47.9947C30.3179 47.9947 29.8844 47.6454 29.8447 47.1861C29.803 46.7039 30.2107 46.2833 30.7554 46.2462C33.3848 46.0678 36.3609 45.5392 39.6011 44.675C43.493 43.6367 47.2709 43.797 50.8299 45.151C51.3317 45.3419 51.5638 45.8568 51.3481 46.3011C51.1322 46.7454 50.5505 46.9507 50.0484 46.7596C46.9289 45.5726 43.6058 45.4356 40.1718 46.3512C36.7952 47.2518 33.678 47.8038 30.9066 47.9921C30.8809 47.9939 30.8553 47.9947 30.8299 47.9947Z" fill="#FDFBF8"/>
<path d="M30.83 44.2749C30.318 44.2749 29.8846 43.9258 29.8448 43.4665C29.8029 42.9843 30.2107 42.5635 30.7553 42.5265C33.3854 42.3478 36.3615 41.8192 39.6011 40.9552C43.4929 39.917 47.2709 40.0772 50.8299 41.4312C51.3318 41.6221 51.5638 42.137 51.3481 42.5812C51.1322 43.0255 50.5505 43.2307 50.0486 43.0398C46.9287 41.8528 43.6059 41.7157 40.172 42.6315C36.7961 43.532 33.6788 44.0839 30.9068 44.2722C30.881 44.2741 30.8553 44.2749 30.83 44.2749Z" fill="#FDFBF8"/>
<path d="M30.8299 51.7156C30.3179 51.7156 29.8844 51.3666 29.8447 50.9071C29.803 50.4249 30.2107 50.0043 30.7554 49.9672C33.3852 49.7887 36.3613 49.26 39.6011 48.3959C43.4928 47.358 47.2709 47.5181 50.8299 48.872C51.3317 49.0629 51.5638 49.5779 51.3481 50.0221C51.1322 50.4664 50.5505 50.6717 50.0484 50.4807C46.9289 49.2939 43.6058 49.1565 40.1718 50.0722C36.7957 50.9728 33.6785 51.5248 30.9066 51.713C30.8809 51.7148 30.8553 51.7156 30.8299 51.7156Z" fill="#FDFBF8"/>
</g>
<g clip-path="url(#clip2)">
<path d="M47.1827 76.6323C43.5348 73.9273 35.7289 72.2251 35.3978 72.1545C34.7874 72.0234 34.1798 72.3839 34.041 72.9596C34.0222 73.0371 34.0128 73.1164 34.0127 73.1959C34.0127 74.6393 30.8726 76.4034 27.2111 76.4034C23.5496 76.4034 20.4096 74.6393 20.4096 73.1959C20.4098 72.8705 20.2529 72.5628 19.9833 72.3598C19.7168 72.1508 19.3618 72.0716 19.0243 72.146C18.6933 72.2166 10.8897 73.9209 7.23498 76.6238C3.46013 79.4335 2.38549 92.9737 2.27209 94.5069C2.24106 94.9427 2.4942 95.3524 2.91143 95.5419C5.57488 96.7052 8.42241 97.4492 11.3408 97.7444V120.24C11.3415 120.635 11.5734 120.998 11.9439 121.183C12.1275 121.277 16.5779 123.448 27.2111 123.448C37.8443 123.448 42.2947 121.277 42.4784 121.183C42.8487 120.998 43.0807 120.635 43.0815 120.24V97.7444C45.9991 97.4489 48.8458 96.7049 51.5086 95.5419C51.9266 95.353 52.1808 94.9431 52.1501 94.5069C52.0368 92.9737 50.9621 79.4335 47.1827 76.6323Z" fill="#313137"/>
<path d="M12.474 97.7879C11.8479 97.7879 11.3403 97.3092 11.3403 96.7186V90.3036C11.433 88.2599 10.7462 86.2525 9.40412 84.6455C8.96925 84.2208 8.98168 83.5439 9.43195 83.1336C9.87128 82.7335 10.5677 82.7335 11.0069 83.1336C12.7939 85.1327 13.7217 87.691 13.6073 90.3036V96.7186C13.6076 97.3092 13.1 97.7879 12.474 97.7879Z" fill="#A9D379"/>
<path d="M41.9479 97.7875C41.3219 97.7875 40.8143 97.3088 40.8143 96.7182V90.3032C40.6988 87.6901 41.6259 85.1311 43.4125 83.1311C43.8475 82.7064 44.565 82.6946 45.0154 83.1048C45.4658 83.5151 45.4782 84.1919 45.0433 84.6167C45.0342 84.6256 45.0249 84.6343 45.0154 84.643C43.6738 86.2508 42.9876 88.2591 43.0816 90.3032V96.7182C43.0816 97.3088 42.574 97.7875 41.9479 97.7875Z" fill="#A9D379"/>
<path d="M35.8674 72.3729C35.6084 72.1681 35.265 72.0848 34.9333 72.1463C32.3825 72.6342 29.8043 72.9847 27.2113 73.1963C24.6182 72.9848 22.0401 72.6343 19.4893 72.1463C19.1577 72.0851 18.8144 72.1684 18.5553 72.3729C18.2945 72.5756 18.1433 72.8775 18.1426 73.1962C18.1426 76.4037 22.8311 78.542 27.2113 78.542C31.5915 78.542 36.28 76.4037 36.28 73.1962C36.2795 72.8775 36.1281 72.5756 35.8674 72.3729Z" fill="#A9D379"/>
<path d="M23.7365 87.1528L20.315 86.1758C20.2671 86.1621 20.2161 86.1621 20.1681 86.1758L16.7466 87.1528C16.6385 87.1836 16.5645 87.2783 16.5645 87.3857V90.968C16.5645 91.4339 16.7626 91.9109 17.1535 92.3856C17.452 92.7482 17.865 92.5362 18.3809 92.8917C19.2477 93.4888 20.1012 93.4711 20.1372 93.4864C20.1704 93.5006 20.206 93.498 20.2416 93.498C20.2772 93.498 20.3128 93.5006 20.346 93.4864C20.3819 93.4711 21.2354 93.4888 22.1022 92.8917C22.6181 92.5362 23.0311 92.7482 23.3296 92.3856C23.7205 91.9109 23.9186 91.4339 23.9186 90.968V87.3857C23.9186 87.2783 23.8446 87.1836 23.7365 87.1528Z" fill="#F1C9DC"/>
</g>
<rect x="159.928" width="42.2965" height="55.1632" rx="8" fill="#A9D379"/>
<rect x="163.623" y="4.92139" width="34.9041" height="26.147" rx="6" fill="#80CA5C"/>
<path d="M180.974 18.0601C183.077 18.0601 184.774 16.3628 184.774 14.2596C184.774 12.1563 183.077 10.459 180.974 10.459C178.87 10.459 177.173 12.1563 177.173 14.2596C177.173 16.3628 178.87 18.0601 180.974 18.0601ZM181.084 18.7981C177.265 18.7981 173.981 21.584 172.598 25.5321H189.553C188.187 21.584 184.903 18.7981 181.084 18.7981Z" fill="#FDFBF8"/>
<path d="M176.69 43.8203C176.69 43.6673 176.682 43.516 176.671 43.3654C176.67 43.3516 176.669 43.3381 176.668 43.3243C176.412 40.2354 173.822 37.8037 170.668 37.8037C170.494 37.8037 170.323 37.8127 170.153 37.8273C170.149 37.8275 170.146 37.8278 170.143 37.8281C168.289 37.9886 166.673 38.9901 165.682 40.4502C165.682 40.4504 165.682 40.4504 165.682 40.4507C165.681 40.4514 165.681 40.4522 165.68 40.4532C165.604 40.5659 165.532 40.6825 165.463 40.8007C165.451 40.8216 165.439 40.8421 165.427 40.863C165.29 41.1061 165.169 41.3595 165.065 41.6217C165.061 41.632 165.057 41.6423 165.053 41.6526C164.95 41.9181 164.866 42.1921 164.801 42.4739C164.798 42.4844 164.796 42.495 164.794 42.5055C164.733 42.7747 164.691 43.051 164.668 43.3328C164.666 43.3604 164.664 43.3882 164.662 43.4161C164.653 43.5513 164.646 43.6876 164.646 43.8253C164.646 43.8274 164.646 43.8294 164.646 43.8306C164.647 43.8386 164.647 43.8467 164.647 43.8547C164.654 45.2363 165.128 46.5077 165.918 47.5214C165.92 47.5242 165.92 47.527 165.923 47.5297C165.931 47.5408 165.941 47.5505 165.949 47.5616C166.118 47.7744 166.301 47.9751 166.497 48.1633C166.502 48.1688 166.508 48.1743 166.514 48.1799C167.595 49.2114 169.058 49.8467 170.668 49.8467C173.985 49.8467 176.679 47.1581 176.69 43.8442C176.69 43.8409 176.69 43.8376 176.69 43.8344C176.69 43.8304 176.69 43.8266 176.69 43.8231C176.69 43.8223 176.69 43.8213 176.69 43.8203ZM175.135 47.0698L173.239 47.0858L172.202 45.6844L172.912 43.5084L174.562 42.9363L176.182 44.0647C176.134 45.1861 175.753 46.2194 175.135 47.0698ZM175.027 40.4374L174.414 42.4566L172.754 43.0322L170.913 41.689L170.908 39.9386L172.645 38.6686C173.593 39.0322 174.414 39.6492 175.027 40.4374ZM168.665 38.6794L170.405 39.9388L170.411 41.6897L168.54 43.0445L166.802 42.4872L166.168 40.6273C166.788 39.7561 167.653 39.0734 168.665 38.6794ZM168.044 47.1222L166.24 47.1242C165.598 46.2633 165.203 45.2084 165.154 44.0627L166.628 42.9587L168.417 43.5325L169.107 45.6699L168.044 47.1222ZM168.987 49.0842L168.447 47.4221L169.509 45.9707L171.79 45.9743L172.84 47.3912L172.301 49.1002C171.785 49.2596 171.237 49.3454 170.668 49.3454C170.081 49.3451 169.517 49.2533 168.987 49.0842Z" fill="#313137"/>
<rect x="180.377" y="38.2227" width="18.1491" height="1.84567" rx="0.922834" fill="#E1EAF1"/>
<rect x="180.377" y="42.5293" width="18.1491" height="1.84567" rx="0.922834" fill="#E1EAF1"/>
<rect x="180.377" y="46.8359" width="9.68975" height="1.84567" rx="0.922834" fill="#E1EAF1"/>
<defs>
<clipPath id="clip0">
<rect width="71.7367" height="53.1841" fill="white" transform="translate(53.8027 73.3555)"/>
</clipPath>
<clipPath id="clip1">
<rect width="65.5525" height="47.6183" fill="white" transform="translate(22.2637 23.2637)"/>
</clipPath>
<clipPath id="clip2">
<rect width="54.421" height="51.3289" fill="white" transform="translate(0 72.1187)"/>
</clipPath>
</defs>
</svg>
