<svg width="381" height="205" viewBox="0 0 381 205" fill="none" xmlns="http://www.w3.org/2000/svg">
<path d="M246.479 112.59L351.167 84.6007C354.421 83.7328 357.892 85.6855 358.76 88.9402L379.481 165.856C380.349 169.11 378.396 172.473 375.033 173.341L270.346 201.33C267.091 202.198 263.62 200.245 262.752 196.991L242.14 120.075C241.272 116.821 243.225 113.458 246.479 112.59Z" fill="#E1EAF1"/>
<path d="M255.267 118.774L346.828 94.3651C349.323 93.7142 351.926 95.233 352.686 97.7281L369.826 161.408C370.477 163.903 368.958 166.507 366.463 167.158L274.902 191.567C272.407 192.218 269.804 190.699 269.044 188.204L251.904 124.524C251.144 122.028 252.663 119.425 255.267 118.774Z" fill="#80CA5C"/>
<path d="M265.464 111.505H374.491C377.962 111.505 380.674 114.325 380.674 117.688V198.509C380.674 201.981 377.853 204.693 374.491 204.693H265.464C261.992 204.693 259.28 201.872 259.28 198.509V117.689C259.28 114.325 262.101 111.505 265.464 111.505Z" fill="#F1C9DC"/>
<path d="M272.731 120.184H367.438C370.042 120.184 372.211 122.354 372.211 124.957V191.35C372.211 193.953 370.042 196.123 367.438 196.123H272.731C270.128 196.123 267.958 193.953 267.958 191.35V124.957C267.958 122.354 270.019 120.184 272.731 120.184Z" fill="#E1EAF1"/>
<path d="M267.958 124.957V148.173C269.043 148.282 270.128 148.39 271.212 148.39C284.99 148.39 296.164 137.216 296.164 123.439C296.164 122.354 296.055 121.269 295.947 120.184H272.731C270.019 120.184 267.958 122.354 267.958 124.957Z" fill="#F1C9DC"/>
<path d="M275.877 173.343C273.165 173.343 270.453 173.56 267.958 173.886V191.352C267.958 193.955 270.128 196.125 272.731 196.125H308.857C309.074 195.148 309.182 194.281 309.182 193.304C309.182 182.239 294.32 173.343 275.877 173.343Z" fill="#80CA5C"/>
<path d="M351.493 163.578C321.768 163.578 297.576 178.115 297.251 196.123H367.332C369.936 196.123 372.105 193.954 372.105 191.35V166.073C365.705 164.555 358.762 163.578 351.493 163.578Z" fill="#A9D379"/>
<path fill-rule="evenodd" clip-rule="evenodd" d="M214.194 162C247.37 162 274.264 135.106 274.264 101.93C274.264 68.7546 247.37 41.8604 214.194 41.8604C181.018 41.8604 154.124 68.7546 154.124 101.93C154.124 135.106 181.018 162 214.194 162ZM214.194 117.188C222.62 117.188 229.451 110.357 229.451 101.93C229.451 93.5038 222.62 86.6728 214.194 86.6728C205.767 86.6728 198.936 93.5038 198.936 101.93C198.936 110.357 205.767 117.188 214.194 117.188Z" fill="#313137"/>
<path fill-rule="evenodd" clip-rule="evenodd" d="M214.192 129.501C229.419 129.501 241.763 117.157 241.763 101.931C241.763 86.704 229.419 74.3604 214.192 74.3604C198.966 74.3604 186.622 86.704 186.622 101.931C186.622 117.157 198.966 129.501 214.192 129.501ZM214.192 117.188C222.619 117.188 229.45 110.357 229.45 101.93C229.45 93.5038 222.619 86.6728 214.192 86.6728C205.766 86.6728 198.935 93.5038 198.935 101.93C198.935 110.357 205.766 117.188 214.192 117.188Z" fill="#F1C9DC"/>
<g clip-path="url(#clip0)">
<path d="M182.329 124.554V120.127C180.292 119.398 178.109 119 175.836 119C173.306 119 170.885 119.491 168.656 120.387V124.814L182.329 124.554Z" fill="#A9D379"/>
<path d="M122.7 124.814V120.387C120.471 119.491 118.052 119 115.521 119C113.248 119 111.065 119.398 109.028 120.127V124.554L122.7 124.814Z" fill="#A9D379"/>
<path d="M95.185 202.675C105.724 207.574 110.881 200.231 113.186 193.063L118.761 175.662C118.761 175.662 118.761 175.662 118.762 175.663L118.761 175.662L119.976 174.083C119.976 174.083 123.415 176.034 126.336 176.034C129.819 176.034 132.977 174.582 135.295 172.225C135.51 172.007 135.8 171.89 136.099 171.89H155.257C155.556 171.89 155.846 172.007 156.061 172.225C158.378 174.582 161.537 176.034 165.02 176.034C167.941 176.034 171.38 174.083 171.38 174.083L172.595 175.662L178.166 193.054C180.467 200.228 189.502 205.994 196.171 203.093C200.203 201.338 203.674 196.056 203.674 191.106L195.75 141.638L195.745 141.642C194.415 131.356 186.011 123.426 175.836 123.426C170.092 123.426 164.915 125.956 161.254 130.007H130.102C126.44 125.956 121.264 123.426 115.52 123.426C105.344 123.426 96.9401 131.356 95.6109 141.642L95.6057 141.638L87.6738 191.155L87.6818 191.105C87.5009 197.201 91.1519 200.92 95.185 202.675Z" fill="#F1C9DC"/>
<path d="M121.686 162.693C121.686 164.888 124.482 168.473 126.779 168.473C129.076 168.473 131.873 164.871 131.873 162.693C131.044 160.6 129.076 159.126 126.779 159.126C124.482 159.126 122.514 160.6 121.686 162.693Z" fill="#313137"/>
<path d="M121.551 141.065H119.393V138.803C119.393 136.642 117.722 134.89 115.66 134.89C113.599 134.89 111.928 136.642 111.928 138.803V141.065H109.77C107.708 141.065 106.037 142.817 106.037 144.979C106.037 147.14 107.708 148.892 109.77 148.892H111.928V151.154C111.928 153.315 113.599 155.067 115.66 155.067C117.722 155.067 119.393 153.315 119.393 151.154V148.892H121.551C123.613 148.892 125.284 147.14 125.284 144.979C125.284 142.817 123.613 141.065 121.551 141.065Z" fill="#B3E59F"/>
<path d="M121.551 141.065H119.393V138.803C119.393 136.642 117.722 134.89 115.66 134.89C113.599 134.89 111.928 136.642 111.928 138.803V141.065H109.77C107.708 141.065 106.037 142.817 106.037 144.979C106.037 147.14 107.708 148.892 109.77 148.892H111.928V151.154C111.928 153.315 113.599 155.067 115.66 155.067C117.722 155.067 119.393 153.315 119.393 151.154V148.892H121.551C123.613 148.892 125.284 147.14 125.284 144.979C125.284 142.817 123.613 141.065 121.551 141.065Z" fill="#F8F5EF"/>
<path d="M176.628 132.371C174.919 132.371 173.521 133.769 173.521 135.479C173.521 137.189 174.919 138.587 176.628 138.587C178.337 138.587 179.735 137.189 179.735 135.479C179.735 133.769 178.337 132.371 176.628 132.371Z" fill="#A9D379"/>
<path d="M176.628 150.5C174.919 150.5 173.521 151.899 173.521 153.609C173.521 155.319 174.919 156.717 176.628 156.717C178.337 156.717 179.735 155.319 179.735 153.609C179.735 151.899 178.337 150.5 176.628 150.5Z" fill="#CDC7A7"/>
<path d="M188.383 144.543C188.383 142.834 186.985 141.435 185.276 141.435C183.567 141.435 182.169 142.834 182.169 144.543C182.169 146.253 183.567 147.652 185.276 147.652C186.985 147.652 188.383 146.253 188.383 144.543Z" fill="#313137"/>
<path d="M171.088 144.543C171.088 142.834 169.69 141.435 167.981 141.435C166.272 141.435 164.874 142.834 164.874 144.543C164.874 146.253 166.272 147.652 167.981 147.652C169.69 147.652 171.088 146.253 171.088 144.543Z" fill="#E1EAF1"/>
<path d="M134.795 135.994H156.563C158.777 135.994 161.122 132.174 161.122 130.008H130.236C130.396 132.174 132.581 135.994 134.795 135.994Z" fill="#DDBACB"/>
<path d="M159.484 162.693C159.484 164.888 162.281 168.473 164.578 168.473C166.875 168.473 169.672 164.871 169.672 162.693C168.843 160.6 166.875 159.126 164.578 159.126C162.281 159.126 160.313 160.6 159.484 162.693Z" fill="#313137"/>
</g>
<g opacity="0.97" clip-path="url(#clip1)">
<path d="M140.367 47.1709H135.623V102.233C135.623 102.233 129.246 103.877 114.179 99.8588C104.02 97.1493 96.4212 100.418 92.5479 102.836C91.7239 103.35 90.7449 104.2 89.7369 104.2H89.6738H89.611C88.603 104.2 87.6237 103.35 86.8 102.836C82.9267 100.419 75.3272 97.1493 65.1686 99.8588C50.1021 103.877 43.7245 102.233 43.7245 102.233V47.1709H38.981C37.7067 47.1709 36.6738 48.085 36.6738 49.2128V106.621C36.6738 107.749 37.7069 108.663 38.981 108.663H80.4271C81.6496 108.663 82.7859 109.269 83.3085 110.247C84.4354 112.357 86.8613 113.817 89.6736 113.817C92.4859 113.817 94.912 112.357 96.0389 110.247C96.5613 109.269 97.6975 108.663 98.9203 108.663H140.366C141.641 108.663 142.673 107.749 142.673 106.621V49.2128C142.674 48.085 141.641 47.1709 140.367 47.1709Z" fill="#A9D379"/>
<path d="M48.4754 106.621V102.56C45.2209 102.619 43.7249 102.233 43.7249 102.233V47.1709H38.981C37.7067 47.1709 36.6738 48.085 36.6738 49.2128V106.621C36.6738 107.749 37.7067 108.663 38.981 108.663H50.7826C49.5083 108.663 48.4754 107.749 48.4754 106.621Z" fill="#80CA5C"/>
<path d="M134.204 42.7765C131.131 42.9947 124.569 42.916 114.181 40.1452C99.1145 36.1266 89.676 45.2596 89.676 45.2596L88.0322 47.1708V102.173L89.676 104.126V104.2H89.7388C90.7471 104.2 91.7261 103.916 92.5498 103.402C96.4231 100.985 104.023 97.7158 114.181 100.425C129.248 104.444 136.265 102.8 136.265 102.8V44.4635C136.265 43.4764 135.316 42.6976 134.204 42.7765Z" fill="#E1EAF1"/>
<path d="M95.9335 41.3428C91.9083 43.0995 89.676 45.2588 89.676 45.2588L88.0322 47.1701V102.172L89.676 104.125V104.199H89.7388C90.7471 104.199 91.7261 103.915 92.5498 103.401C93.4713 102.826 94.606 102.203 95.9335 101.624V41.3428Z" fill="#E1EAF1"/>
<path d="M128.824 53.9254C128.782 53.9254 128.741 53.9241 128.699 53.9212C124.217 53.6167 119.176 52.7242 113.717 51.2681C108.164 49.7867 102.791 50.0093 97.7464 51.9284C96.9347 52.2373 95.9941 51.905 95.645 51.1869C95.2962 50.4685 95.6713 49.6359 96.4829 49.3272C102.238 47.1378 108.347 46.8791 114.64 48.5575C119.878 49.9546 124.691 50.8095 128.944 51.0984C129.825 51.1582 130.484 51.8387 130.416 52.6183C130.352 53.3608 129.651 53.9254 128.824 53.9254Z" fill="#FDFBF8"/>
<path d="M128.824 59.9411C128.782 59.9411 128.741 59.9398 128.699 59.9369C124.218 59.6327 119.177 58.7401 113.717 57.2838C108.164 55.8026 102.791 56.0249 97.7464 57.9441C96.9347 58.2528 95.9941 57.9208 95.645 57.2026C95.2962 56.4841 95.6713 55.6517 96.4829 55.3429C102.238 53.1535 108.347 52.8946 114.64 54.5732C119.88 55.9706 124.692 56.8255 128.944 57.1141C129.825 57.1738 130.484 57.8542 130.416 58.6337C130.352 59.3766 129.651 59.9411 128.824 59.9411Z" fill="#FDFBF8"/>
<path d="M128.824 90.0248C128.782 90.0248 128.741 90.0234 128.699 90.0205C124.217 89.716 119.176 88.8234 113.717 87.3672C108.164 85.8864 102.791 86.1086 97.7464 88.0278C96.9347 88.3367 95.9941 88.0043 95.645 87.2863C95.2962 86.5679 95.6713 85.7353 96.4829 85.4265C102.238 83.2371 108.347 82.9781 114.64 84.6565C119.878 86.0539 124.691 86.9089 128.944 87.1977C129.825 87.2575 130.484 87.9381 130.416 88.7176C130.352 89.4602 129.651 90.0248 128.824 90.0248Z" fill="#FDFBF8"/>
<path d="M128.824 96.0417C128.782 96.0417 128.741 96.0404 128.699 96.0375C124.217 95.7328 119.176 94.8404 113.717 93.3843C108.164 91.9032 102.791 92.1256 97.7464 94.0446C96.9347 94.3534 95.9941 94.0212 95.645 93.3031C95.2962 92.5847 95.6713 91.7522 96.4829 91.4435C102.238 89.2541 108.347 88.9953 114.64 90.6736C119.878 92.0708 124.691 92.9257 128.944 93.2146C129.825 93.2743 130.484 93.9548 130.416 94.7344C130.352 95.477 129.651 96.0417 128.824 96.0417Z" fill="#FDFBF8"/>
<path d="M128.824 65.9584C128.782 65.9584 128.741 65.9571 128.699 65.954C124.217 65.6495 119.176 64.7569 113.717 63.3008C108.164 61.82 102.791 62.0423 97.7464 63.9613C96.9347 64.27 95.9941 63.9379 95.645 63.2198C95.2962 62.5014 95.6713 61.6689 96.4829 61.36C102.238 59.1707 108.347 58.9117 114.64 60.5902C119.878 61.9875 124.691 62.8423 128.944 63.1313C129.825 63.191 130.484 63.8715 130.416 64.6511C130.352 65.3938 129.651 65.9584 128.824 65.9584Z" fill="#FDFBF8"/>
<path d="M128.823 77.9919C128.782 77.9919 128.741 77.9906 128.699 77.9879C124.218 77.6835 119.177 76.7909 113.717 75.3346C108.164 73.8534 102.791 74.0758 97.7464 75.995C96.9347 76.3039 95.9941 75.9715 95.645 75.2535C95.2962 74.5351 95.6713 73.7024 96.4829 73.3937C102.238 71.2043 108.347 70.9454 114.64 72.624C119.88 74.0215 124.692 74.8763 128.944 75.1647C129.825 75.2247 130.484 75.9049 130.417 76.6847C130.352 77.4271 129.651 77.9919 128.823 77.9919Z" fill="#FDFBF8"/>
<path d="M128.824 71.9749C128.782 71.9749 128.741 71.9735 128.699 71.9706C124.217 71.6661 119.176 70.7737 113.717 69.3176C108.165 67.8366 102.791 68.0585 97.7464 69.9779C96.9347 70.2867 95.9941 69.9544 95.645 69.2364C95.2962 68.518 95.6713 67.6854 96.4829 67.3766C102.238 65.1874 108.347 64.9282 114.64 66.6069C119.878 68.004 124.691 68.859 128.944 69.1479C129.825 69.2076 130.484 69.8882 130.416 70.6677C130.352 71.4101 129.651 71.9749 128.824 71.9749Z" fill="#FDFBF8"/>
<path d="M128.823 84.009C128.782 84.009 128.741 84.0077 128.699 84.0049C124.217 83.7006 119.177 82.808 113.717 81.3516C108.164 79.8706 102.791 80.0929 97.7464 82.0122C96.9347 82.3211 95.9941 81.989 95.645 81.2707C95.2962 80.5523 95.6713 79.7197 96.4829 79.411C102.238 77.2215 108.347 76.9624 114.64 78.6411C119.879 80.0383 124.691 80.8933 128.944 81.1818C129.825 81.2418 130.484 81.922 130.417 82.7016C130.352 83.4443 129.651 84.009 128.823 84.009Z" fill="#FDFBF8"/>
<path d="M45.1479 42.7765C48.2213 42.9947 54.7829 42.916 65.1712 40.1452C80.2376 36.1266 89.6761 45.2596 89.6761 45.2596V104.2H89.6133C88.6053 104.2 87.626 103.916 86.8023 103.402C82.9287 100.985 75.3295 97.7158 65.171 100.425C50.1042 104.444 43.0869 102.8 43.0869 102.8V44.4635C43.0871 43.4764 44.0361 42.6976 45.1479 42.7765Z" fill="#E1EAF1"/>
<path d="M50.1251 42.7686C47.9592 42.8988 46.3056 42.8589 45.1477 42.7768C44.0359 42.6978 43.0869 43.4767 43.0869 44.4637V102.8C43.0869 102.8 45.3721 103.333 50.1251 103.048V42.7686Z" fill="#E1EAF1"/>
<path d="M50.5256 53.9237C49.6977 53.9237 48.9969 53.3593 48.9325 52.6165C48.8648 51.8369 49.5242 51.1564 50.4049 51.0966C54.6578 50.8077 59.4702 49.9528 64.7087 48.5557C71.0021 46.877 77.1109 47.136 82.866 49.3254C83.6777 49.6341 84.0527 50.4667 83.7039 51.1851C83.3549 51.9035 82.4142 52.2352 81.6026 51.9266C76.558 50.0073 71.1845 49.7855 65.6317 51.2663C60.1729 52.7224 55.1323 53.6148 50.6496 53.9194C50.6082 53.9226 50.5666 53.9237 50.5256 53.9237Z" fill="#FDFBF8"/>
<path d="M50.5256 59.9413C49.6977 59.9413 48.9967 59.3767 48.9325 58.6339C48.865 57.8543 49.5242 57.174 50.4051 57.1142C54.6569 56.8257 59.4693 55.9707 64.7087 54.5732C71.0021 52.8945 77.1109 53.1537 82.866 55.3429C83.6774 55.6517 84.0527 56.4843 83.7039 57.2027C83.3549 57.9211 82.4142 58.253 81.6023 57.9442C76.558 56.0248 71.1845 55.8032 65.6317 57.2839C60.1716 58.7401 55.131 59.6329 50.6496 59.9369C50.608 59.9401 50.5666 59.9413 50.5256 59.9413Z" fill="#FDFBF8"/>
<path d="M50.5256 90.0248C49.6977 90.0248 48.9969 89.4601 48.9325 88.7174C48.8648 87.9379 49.5242 87.2573 50.4049 87.1976C54.658 86.9087 59.4704 86.0537 64.7084 84.6565C71.0016 82.9782 77.1107 83.2371 82.8657 85.4263C83.6774 85.7351 84.0524 86.5677 83.7036 87.2861C83.3549 88.0044 82.414 88.3364 81.6023 88.0276C76.5577 86.1086 71.1843 85.886 65.6314 87.367C60.1729 88.8232 55.1323 89.7158 50.6494 90.0203C50.6082 90.0235 50.5666 90.0248 50.5256 90.0248Z" fill="#FDFBF8"/>
<path d="M50.5256 96.042C49.6977 96.042 48.9969 95.4773 48.9325 94.7347C48.8648 93.955 49.5242 93.2745 50.4049 93.2148C54.6578 92.9258 59.4702 92.0709 64.7087 90.6738C71.0021 88.9952 77.1109 89.2542 82.866 91.4436C83.6777 91.7523 84.0527 92.5848 83.7039 93.3032C83.3549 94.0217 82.4142 94.3533 81.6026 94.0448C76.558 92.1253 71.1845 91.9039 65.6317 93.3844C60.1729 94.8406 55.1323 95.7331 50.6496 96.0376C50.6082 96.0405 50.5666 96.042 50.5256 96.042Z" fill="#FDFBF8"/>
<path d="M50.5256 65.9584C49.6977 65.9584 48.9969 65.3937 48.9325 64.6512C48.8648 63.8716 49.5242 63.1911 50.4049 63.1313C54.658 62.8424 59.4704 61.9874 64.7084 60.5902C71.0016 58.9117 77.1107 59.1706 82.8657 61.3601C83.6774 61.6688 84.0524 62.5014 83.7036 63.2198C83.3549 63.938 82.414 64.2701 81.6023 63.9613C76.5577 62.0422 71.1843 61.8197 65.6314 63.3007C60.1729 64.7569 55.1323 65.6495 50.6494 65.954C50.6082 65.9571 50.5666 65.9584 50.5256 65.9584Z" fill="#FDFBF8"/>
<path d="M50.5256 77.9907C49.6977 77.9907 48.9967 77.426 48.9325 76.6833C48.865 75.9036 49.5242 75.2234 50.4051 75.1634C54.6569 74.875 59.4693 74.0201 64.7087 72.6227C71.0021 70.9438 77.1109 71.203 82.866 73.3924C83.6774 73.7011 84.0527 74.5337 83.7039 75.2521C83.3549 75.9706 82.4142 76.3025 81.6023 75.9937C76.558 74.0742 71.1845 73.8526 65.6317 75.3332C60.1716 76.7895 55.131 77.6821 50.6496 77.9865C50.608 77.9894 50.5666 77.9907 50.5256 77.9907Z" fill="#FDFBF8"/>
<path d="M50.5256 71.9756C49.6977 71.9756 48.9969 71.411 48.9325 70.6683C48.8648 69.8886 49.5242 69.2081 50.4049 69.1484C54.6578 68.8594 59.4702 68.0046 64.7087 66.6075C71.0018 64.9288 77.1109 65.1877 82.866 67.3772C83.6777 67.6859 84.0527 68.5184 83.7039 69.2368C83.3549 69.9553 82.4142 70.2871 81.6026 69.9784C76.5577 68.0589 71.1845 67.8372 65.6319 69.3181C60.1731 70.7742 55.1323 71.6667 50.6498 71.9712C50.6082 71.9743 50.5666 71.9756 50.5256 71.9756Z" fill="#FDFBF8"/>
<path d="M50.5256 84.0075C49.6977 84.0075 48.9967 83.443 48.9325 82.7001C48.865 81.9203 49.5242 81.2401 50.4051 81.1801C54.6575 80.8916 59.47 80.0366 64.7087 78.6394C71.0018 76.9611 77.1109 77.22 82.866 79.4093C83.6774 79.718 84.0527 80.5506 83.7039 81.269C83.3549 81.9875 82.4142 82.3194 81.6023 82.0106C76.558 80.0915 71.1845 79.8692 65.6317 81.35C60.1724 82.8063 55.1318 83.6989 50.6496 84.0033C50.608 84.0062 50.5666 84.0075 50.5256 84.0075Z" fill="#FDFBF8"/>
</g>
<g clip-path="url(#clip2)">
<path d="M76.9684 124.299C71.0697 119.925 58.4473 117.172 57.912 117.058C56.9249 116.846 55.9425 117.429 55.7179 118.36C55.6876 118.485 55.6723 118.613 55.6722 118.742C55.6722 121.076 50.5946 123.929 44.6739 123.929C38.7532 123.929 33.6756 121.076 33.6756 118.742C33.676 118.216 33.4223 117.718 32.9864 117.39C32.5554 117.052 31.9814 116.924 31.4356 117.044C30.9003 117.158 18.2817 119.914 12.372 124.285C6.268 128.828 4.53028 150.723 4.34692 153.202C4.29674 153.907 4.70608 154.57 5.38075 154.876C9.6876 156.757 14.2921 157.96 19.0112 158.437V194.813C19.0124 195.453 19.3874 196.039 19.9864 196.338C20.2834 196.49 27.4798 200 44.6739 200C61.868 200 69.0644 196.49 69.3614 196.338C69.9603 196.039 70.3354 195.453 70.3366 194.813V158.437C75.0545 157.96 79.6577 156.757 83.9635 154.876C84.6395 154.571 85.0504 153.908 85.0009 153.202C84.8176 150.723 83.0798 128.828 76.9684 124.299Z" fill="#313137"/>
<path d="M20.8447 158.508C19.8323 158.508 19.0116 157.734 19.0116 156.779V146.405C19.1614 143.101 18.0508 139.855 15.8807 137.256C15.1775 136.569 15.1976 135.475 15.9257 134.811C16.6361 134.164 17.7623 134.164 18.4725 134.811C21.3621 138.044 22.8624 142.181 22.6774 146.405V156.779C22.6778 157.734 21.857 158.508 20.8447 158.508Z" fill="#A9D379"/>
<path d="M68.5039 158.507C67.4916 158.507 66.6708 157.733 66.6708 156.778V146.405C66.484 142.179 67.9831 138.041 70.8722 134.807C71.5755 134.12 72.7358 134.101 73.4641 134.765C74.1923 135.428 74.2124 136.522 73.5092 137.209C73.4944 137.224 73.4794 137.238 73.4641 137.252C71.2946 139.852 70.1851 143.099 70.337 146.405V156.778C70.337 157.733 69.5163 158.507 68.5039 158.507Z" fill="#A9D379"/>
<path d="M58.6712 117.411C58.2524 117.08 57.6971 116.945 57.1608 117.045C53.0361 117.834 48.8671 118.4 44.6741 118.743C40.481 118.401 36.3122 117.834 32.1875 117.045C31.6512 116.946 31.0961 117.08 30.6771 117.411C30.2554 117.739 30.0109 118.227 30.0098 118.742C30.0098 123.929 37.5913 127.387 44.6741 127.387C51.757 127.387 59.3384 123.929 59.3384 118.742C59.3376 118.227 59.0929 117.739 58.6712 117.411Z" fill="#A9D379"/>
<path d="M39.0554 141.311L33.5228 139.731C33.4453 139.709 33.3627 139.709 33.2852 139.731L27.7525 141.311C27.5777 141.361 27.458 141.514 27.458 141.687V147.48C27.458 148.233 27.7785 149.005 28.4105 149.772C28.8932 150.359 29.561 150.016 30.3953 150.591C31.7969 151.556 33.1771 151.528 33.2352 151.552C33.2889 151.575 33.3464 151.571 33.404 151.571C33.4616 151.571 33.5192 151.575 33.5729 151.552C33.6309 151.528 35.0111 151.556 36.4127 150.591C37.247 150.016 37.9148 150.359 38.3975 149.772C39.0295 149.005 39.3499 148.233 39.3499 147.48V141.687C39.3499 141.514 39.2303 141.361 39.0554 141.311Z" fill="#F1C9DC"/>
</g>
<rect x="259.279" y="0.382324" width="68.3945" height="89.2002" rx="8" fill="#A9D379"/>
<rect x="265.256" y="8.34082" width="56.4408" height="42.2803" rx="6" fill="#80CA5C"/>
<path d="M293.313 29.5857C296.714 29.5857 299.458 26.841 299.458 23.44C299.458 20.0391 296.714 17.2944 293.313 17.2944C289.912 17.2944 287.167 20.0391 287.167 23.44C287.167 26.841 289.912 29.5857 293.313 29.5857ZM293.492 30.779C287.316 30.779 282.006 35.2838 279.769 41.6681H307.185C304.977 35.2838 299.667 30.779 293.492 30.779Z" fill="#FDFBF8"/>
<path d="M286.385 71.2407C286.384 70.9932 286.372 70.7486 286.354 70.5051C286.352 70.4828 286.35 70.4609 286.349 70.4386C285.936 65.4438 281.748 61.5117 276.647 61.5117C276.367 61.5117 276.089 61.5263 275.814 61.5499C275.809 61.5503 275.804 61.5507 275.798 61.5511C272.8 61.8108 270.188 63.4301 268.585 65.7911C268.585 65.7915 268.585 65.7915 268.584 65.792C268.583 65.7932 268.583 65.7944 268.582 65.796C268.458 65.9782 268.342 66.1669 268.231 66.358C268.211 66.3916 268.192 66.4249 268.173 66.4586C267.95 66.8518 267.755 67.2616 267.587 67.6856C267.58 67.7022 267.574 67.7188 267.567 67.7355C267.401 68.1648 267.265 68.6078 267.16 69.0635C267.156 69.0805 267.152 69.0976 267.148 69.1146C267.051 69.55 266.982 69.9967 266.945 70.4524C266.942 70.497 266.938 70.542 266.935 70.5871C266.92 70.8058 266.91 71.0261 266.91 71.2489C266.91 71.2521 266.91 71.2553 266.91 71.2574C266.911 71.2704 266.911 71.2833 266.911 71.2963C266.922 73.5304 267.688 75.5863 268.966 77.2255C268.969 77.23 268.97 77.2344 268.974 77.2389C268.988 77.2568 269.003 77.2726 269.017 77.2904C269.29 77.6345 269.585 77.9591 269.902 78.2634C269.911 78.2724 269.92 78.2813 269.93 78.2902C271.678 79.9582 274.043 80.9856 276.647 80.9856C282.01 80.9856 286.367 76.638 286.384 71.2793C286.384 71.274 286.384 71.2687 286.385 71.2635C286.385 71.257 286.385 71.2509 286.385 71.2452C286.385 71.244 286.385 71.2424 286.385 71.2407ZM283.87 76.4952L280.805 76.5211L279.127 74.255L280.276 70.7364L282.944 69.8113L285.563 71.6359C285.486 73.4492 284.87 75.1201 283.87 76.4952ZM283.696 65.7704L282.704 69.0355L280.02 69.9663L277.042 67.7943L277.034 64.9638L279.844 62.9103C281.377 63.4983 282.705 64.496 283.696 65.7704ZM273.407 62.9278L276.222 64.9642L276.231 67.7955L273.206 69.9862L270.396 69.085L269.371 66.0776C270.372 64.6688 271.772 63.5648 273.407 62.9278ZM272.404 76.58L269.487 76.5832C268.45 75.1911 267.81 73.4853 267.731 71.6327L270.114 69.8474L273.007 70.7753L274.122 74.2315L272.404 76.58ZM273.928 79.7525L273.056 77.0648L274.773 74.718L278.461 74.7237L280.159 77.0149L279.287 79.7785C278.453 80.0361 277.567 80.1749 276.648 80.1749C275.699 80.1745 274.786 80.026 273.928 79.7525Z" fill="#313137"/>
<rect x="292.351" y="62.1895" width="29.3475" height="2.98449" rx="1.49224" fill="#E1EAF1"/>
<rect x="292.35" y="69.1533" width="29.3475" height="2.98449" rx="1.49224" fill="#E1EAF1"/>
<rect x="292.35" y="76.1172" width="15.6686" height="2.98449" rx="1.49224" fill="#E1EAF1"/>
<defs>
<clipPath id="clip0">
<rect width="116" height="86" fill="white" transform="translate(87.6738 119)"/>
</clipPath>
<clipPath id="clip1">
<rect width="106" height="77" fill="white" transform="translate(36.6738 38)"/>
</clipPath>
<clipPath id="clip2">
<rect width="88" height="83" fill="white" transform="translate(0.673828 117)"/>
</clipPath>
</defs>
</svg>
