<svg width="232" height="110" viewBox="0 0 232 110" fill="none" xmlns="http://www.w3.org/2000/svg">
<g clip-path="url(#clip0)">
<g clip-path="url(#clip1)">
<path d="M32.1482 109.151C13.0646 109.151 0.870667 95.234 0.870667 76.1358C0.870667 55.9357 20.4191 42.0345 21.7224 28.1021C22.6683 17.9913 14.98 14.4409 6.62749 17.1519C5.62421 17.4777 4.6847 16.507 5.10722 15.5405C7.57984 9.88494 14.9779 -2.58442 30.6277 2.68886C49.0984 8.9126 43.0085 34.6494 37.7956 47.899L32.1482 109.151Z" fill="#F1C9DC"/>
<path d="M58.9359 85.9519C65.7019 78.3834 69.1445 68.7088 69.1445 68.7088L55.7502 62.6689L51.2613 75.2669L58.9359 85.9519Z" fill="#DDBACB"/>
<path d="M62.9267 36.8216C63.0174 36.4239 63.1228 36.0382 63.2408 35.6649C64.6931 31.0687 70.1282 27.0098 74.9018 26.3411C80.276 25.5882 85.8104 27.1045 89.8073 30.8026C94.9386 35.5504 96.9958 41.8162 97.5903 44.9045C97.7935 45.9604 97.3992 47.0224 96.5681 47.7046C95.569 48.5248 93.9395 49.5453 91.618 50.0491C91.618 50.0491 90.0411 53.4595 86.2403 56.3365C91.8768 56.3163 96.3966 55.202 98.2769 55.9898C100.618 57.097 101.269 58.9158 101.404 60.2413C101.509 61.2704 100.773 62.1899 99.7567 62.3802C96.9262 62.9096 90.6639 63.8112 84.1044 66.651C72.2307 71.7915 66.4234 69.6421 63.4698 68.262C57.388 65.4201 51.5437 68.3565 55.8133 74.4523C65.2074 87.8647 54.7816 98.6164 48.8085 102.2H56.5192C59.577 102.2 62.1738 104.175 63.1036 106.919C63.4763 108.018 62.5927 109.151 61.4319 109.151H33.6129C30.0365 109.151 26.7222 107.274 24.8821 104.207L22.6352 100.463C8.44402 71.5022 30.4544 37.9077 62.9267 36.8216Z" fill="#F1C9DC"/>
<path d="M74.2824 18.0257C76.2877 19.9992 77.7488 24.2471 78.5874 26.2461C79.7665 29.0573 77.8153 32.1872 74.7723 32.3684C72.0554 32.5302 69.7279 30.1483 69.7765 27.427C69.8308 24.386 70.7598 19.8603 71.8184 18.2645C72.3651 17.441 73.5779 17.3324 74.2824 18.0257Z" fill="#F1C9DC"/>
<path d="M85.1436 41.3833C83.7041 41.3833 82.5371 40.2164 82.5371 38.7769C82.5371 37.3374 83.7041 36.1704 85.1436 36.1704C86.5831 36.1704 87.75 37.3374 87.75 38.7769C87.75 40.2164 86.5831 41.3833 85.1436 41.3833Z" fill="#313137"/>
<path d="M84.0059 49.7453C87.0197 50.4007 89.5999 50.4586 91.5742 50.0493C91.5742 50.0493 89.9973 53.4598 86.1966 56.3368C80.2274 56.3583 73.0055 55.1526 66.339 49.1599C65.5641 48.4634 65.6846 47.1615 66.6385 46.7424C72.1623 44.3148 77.8405 48.4043 84.0059 49.7453Z" fill="#DDBACB"/>
<path d="M94.4829 49.0233C91.794 45.0097 94.5967 42.741 96.7413 41.8989C97.1236 43.0499 97.3854 44.0757 97.5417 44.8818C97.749 45.9516 97.3498 47.0295 96.5061 47.7191C95.9971 48.1353 95.3227 48.5997 94.4829 49.0233Z" fill="#313137"/>
<path d="M39.0986 98.7251H39.5537C42.8034 98.7251 46.0552 97.9531 48.7904 96.1984C56.7411 91.0979 57.7866 81.0947 57.0275 76.3765C62.4979 85.9204 58.1488 93.9415 53.2521 98.7251H53.2113C51.6879 100.213 50.1127 101.391 48.7641 102.2H39.0986C38.1391 102.2 37.361 101.422 37.361 100.463C37.361 99.5031 38.1391 98.7251 39.0986 98.7251Z" fill="#F1C9DC"/>
<path d="M0.869217 76.1358C0.869217 55.9357 20.4177 42.0344 21.721 28.102C22.6666 17.9914 14.9786 14.441 6.62605 17.1521C6.05581 17.3372 5.51546 17.0969 5.22487 16.6835C12.2364 5.61654 25.9203 3.58938 31.4953 11.843C37.9657 21.4227 34.0294 35.5184 23.4586 46.5958C17.0165 53.3469 -4.19891 83.0863 13.9299 103.782C5.65938 98.0323 0.869217 88.1026 0.869217 76.1358Z" fill="#F1C9DC"/>
</g>
<g clip-path="url(#clip2)">
<path d="M198.24 107.734C217.324 107.734 229.518 93.817 229.518 74.7188C229.518 54.5187 209.97 40.6175 208.666 26.6851C207.72 16.5743 215.409 13.0239 223.761 15.7349C224.764 16.0607 225.704 15.09 225.281 14.1236C222.809 8.46795 215.411 -4.00141 199.761 1.27187C181.29 7.4956 187.38 33.2324 192.593 46.482L198.24 107.734Z" fill="#F1C9DC"/>
<path d="M171.453 84.5349C164.687 76.9664 161.244 67.2918 161.244 67.2918L174.638 61.252L179.127 73.8499L171.453 84.5349Z" fill="#DDBACB"/>
<path d="M167.462 35.4046C167.371 35.0069 167.266 34.6212 167.148 34.2479C165.696 29.6517 160.26 25.5928 155.487 24.9241C150.113 24.1712 144.578 25.6875 140.581 29.3856C135.45 34.1334 133.393 40.3993 132.798 43.4876C132.595 44.5434 132.989 45.6054 133.821 46.2876C134.82 47.1078 136.449 48.1283 138.771 48.6321C138.771 48.6321 140.348 52.0425 144.148 54.9196C138.512 54.8994 133.992 53.785 132.112 54.5728C129.771 55.68 129.12 57.4989 128.985 58.8243C128.88 59.8534 129.615 60.773 130.632 60.9632C133.462 61.4926 139.725 62.3942 146.284 65.234C158.158 70.3745 163.965 68.2251 166.919 66.845C173.001 64.0031 178.845 66.9395 174.575 73.0353C165.181 86.4477 175.607 97.1994 181.58 100.783H173.869C170.812 100.783 168.215 102.758 167.285 105.502C166.912 106.601 167.796 107.734 168.957 107.734H196.776C200.352 107.734 203.666 105.857 205.507 102.79L207.753 99.0456C221.945 70.0852 199.934 36.4907 167.462 35.4046Z" fill="#F1C9DC"/>
<path d="M156.106 16.6087C154.101 18.5822 152.64 22.8301 151.801 24.8291C150.622 27.6403 152.573 30.7703 155.616 30.9514C158.333 31.1132 160.661 28.7313 160.612 26.01C160.558 22.969 159.629 18.4434 158.57 16.8475C158.024 16.024 156.811 15.9154 156.106 16.6087Z" fill="#F1C9DC"/>
<path d="M145.245 39.9663C146.685 39.9663 147.852 38.7994 147.852 37.3599C147.852 35.9204 146.685 34.7534 145.245 34.7534C143.806 34.7534 142.639 35.9204 142.639 37.3599C142.639 38.7994 143.806 39.9663 145.245 39.9663Z" fill="#313137"/>
<path d="M146.383 48.3283C143.369 48.9837 140.789 49.0416 138.814 48.6323C138.814 48.6323 140.391 52.0428 144.192 54.9198C150.161 54.9413 157.383 53.7356 164.05 47.7429C164.825 47.0464 164.704 45.7446 163.75 45.3254C158.226 42.8978 152.548 46.9873 146.383 48.3283Z" fill="#DDBACB"/>
<path d="M135.906 47.6063C138.595 43.5928 135.792 41.324 133.647 40.4819C133.265 41.6329 133.003 42.6587 132.847 43.4648C132.64 44.5346 133.039 45.6126 133.883 46.3021C134.392 46.7183 135.066 47.1827 135.906 47.6063Z" fill="#313137"/>
<path d="M191.29 97.3082H190.835C187.585 97.3082 184.333 96.5361 181.598 94.7815C173.648 89.6809 172.602 79.6777 173.361 74.9595C167.891 84.5034 172.24 92.5245 177.137 97.3082H177.177C178.701 98.7964 180.276 99.9741 181.625 100.783H191.29C192.25 100.783 193.028 100.005 193.028 99.0458C193.028 98.0861 192.25 97.3082 191.29 97.3082Z" fill="#F1C9DC"/>
<path d="M229.519 74.7188C229.519 54.5187 209.971 40.6174 208.668 26.685C207.722 16.5744 215.41 13.0241 223.763 15.7351C224.333 15.9202 224.873 15.6799 225.164 15.2665C218.152 4.19955 204.468 2.17239 198.893 10.426C192.423 20.0057 196.359 34.1014 206.93 45.1788C213.372 51.9299 234.588 81.6693 216.459 102.365C224.729 96.6153 229.519 86.6857 229.519 74.7188Z" fill="#F1C9DC"/>
</g>
<path d="M113.283 80.7454C108.966 78.1637 95.3377 69.3606 95.5493 59.2878C95.634 54.6322 99.7393 50.273 104.395 49.8921C109.347 49.4689 113.579 52.8124 114.595 57.3832C115.653 52.8547 119.843 49.5112 124.794 49.8921C129.45 50.273 133.513 54.6322 133.64 59.2878C133.851 69.3606 120.224 78.1637 115.907 80.7454C115.102 81.211 114.087 81.211 113.283 80.7454Z" fill="#A9D379"/>
</g>
<defs>
<clipPath id="clip0">
<rect width="230.389" height="110" fill="white"/>
</clipPath>
<clipPath id="clip1">
<rect width="107.734" height="107.734" fill="white" transform="matrix(-1 0 0 1 107.734 1.41699)"/>
</clipPath>
<clipPath id="clip2">
<rect width="107.734" height="107.734" fill="white" transform="translate(122.654)"/>
</clipPath>
</defs>
</svg>
