<svg width="264" height="174" viewBox="0 0 264 174" fill="none" xmlns="http://www.w3.org/2000/svg">
<g clip-path="url(#clip0)">
<path d="M36.802 173.932C14.955 173.932 0.995384 158 0.995384 136.136C0.995384 113.011 23.3745 97.0971 24.8665 81.1473C25.9493 69.5724 17.1478 65.5079 7.5858 68.6115C6.43726 68.9844 5.36169 67.8732 5.84539 66.7668C8.67605 60.2923 17.1454 46.0173 35.0613 52.0542C56.2066 59.1791 49.2349 88.6427 43.2671 103.811L36.802 173.932Z" fill="#F1C9DC"/>
<path d="M67.4694 147.374C75.2151 138.709 79.1562 127.634 79.1562 127.634L63.8224 120.719L58.6835 135.141L67.4694 147.374Z" fill="#DDBACB"/>
<path d="M72.0382 91.129C72.142 90.6738 72.2627 90.2322 72.3978 89.8049C74.0604 84.5432 80.2825 79.8965 85.7473 79.1309C91.8998 78.2691 98.2356 80.0049 102.811 84.2385C108.685 89.6738 111.041 96.847 111.721 100.382C111.954 101.591 111.502 102.807 110.551 103.588C109.407 104.527 107.542 105.695 104.884 106.272C104.884 106.272 103.079 110.176 98.7277 113.47C105.18 113.447 110.355 112.171 112.507 113.073C115.187 114.34 115.932 116.423 116.087 117.94C116.207 119.118 115.365 120.171 114.201 120.389C110.961 120.995 103.792 122.027 96.2825 125.278C82.6895 131.163 76.0412 128.702 72.6599 127.122C65.6976 123.869 59.0069 127.23 63.8948 134.209C74.6492 149.563 62.7137 161.872 55.8757 165.975H64.703C68.2035 165.975 71.1763 168.235 72.2408 171.376C72.6674 172.635 71.6559 173.932 70.3269 173.932H38.4798C34.3854 173.932 30.5912 171.783 28.4847 168.273L25.9125 163.985C9.66637 130.831 34.8638 92.3725 72.0382 91.129Z" fill="#F1C9DC"/>
<path d="M85.0393 69.6119C87.3349 71.8712 89.0077 76.7342 89.9676 79.0226C91.3175 82.2409 89.0838 85.824 85.6001 86.0314C82.4898 86.2167 79.8253 83.4898 79.8809 80.3745C79.9431 76.8932 81.0066 71.7122 82.2185 69.8853C82.8443 68.9425 84.2328 68.8182 85.0393 69.6119Z" fill="#F1C9DC"/>
<path d="M97.4722 96.3515C95.8243 96.3515 94.4883 95.0156 94.4883 93.3676C94.4883 91.7197 95.8243 90.3838 97.4722 90.3838C99.1201 90.3838 100.456 91.7197 100.456 93.3676C100.456 95.0156 99.1201 96.3515 97.4722 96.3515Z" fill="#313137"/>
<path d="M96.1688 105.925C99.619 106.675 102.573 106.741 104.833 106.273C104.833 106.273 103.028 110.177 98.6767 113.471C91.8432 113.495 83.5755 112.115 75.9437 105.254C75.0565 104.457 75.1946 102.967 76.2865 102.487C82.6103 99.7078 89.1106 104.389 96.1688 105.925Z" fill="#DDBACB"/>
<path d="M108.163 105.098C105.085 100.503 108.293 97.9059 110.748 96.9419C111.186 98.2595 111.486 99.4339 111.665 100.357C111.902 101.581 111.445 102.815 110.479 103.605C109.896 104.081 109.124 104.613 108.163 105.098Z" fill="#313137"/>
<path d="M44.7585 161.996H45.2796C48.9998 161.996 52.7225 161.113 55.8538 159.104C64.9557 153.265 66.1527 141.813 65.2836 136.412C71.5461 147.338 66.5672 156.52 60.9616 161.996H60.9148C59.1708 163.7 57.3675 165.048 55.8237 165.975H44.7585C43.6601 165.975 42.7693 165.084 42.7693 163.986C42.7693 162.887 43.6601 161.996 44.7585 161.996Z" fill="#F1C9DC"/>
<path d="M0.994278 136.136C0.994278 113.011 23.3734 97.0968 24.8654 81.147C25.948 69.5724 17.1467 65.5079 7.58471 68.6115C6.9319 68.8235 6.3133 68.5484 5.98064 68.075C14.0075 55.4056 29.6728 53.0849 36.0551 62.5337C43.4624 73.5005 38.9561 89.6373 26.8547 102.319C19.4797 110.047 -4.80772 144.093 15.9461 167.785C6.47807 161.203 0.994278 149.836 0.994278 136.136Z" fill="#F1C9DC"/>
</g>
<g clip-path="url(#clip1)">
<path d="M226.948 172.305C248.795 172.305 262.755 156.373 262.755 134.509C262.755 111.384 240.376 95.4701 238.883 79.5203C237.801 67.9455 246.602 63.881 256.164 66.9846C257.313 67.3575 258.388 66.2463 257.905 65.1399C255.074 58.6653 246.605 44.3904 228.689 50.4272C207.543 57.5522 214.515 87.0157 220.483 102.184L226.948 172.305Z" fill="#F1C9DC"/>
<path d="M196.281 145.747C188.535 137.082 184.594 126.007 184.594 126.007L199.928 119.092L205.066 133.514L196.281 145.747Z" fill="#DDBACB"/>
<path d="M191.712 89.5021C191.608 89.0468 191.487 88.6053 191.352 88.1779C189.69 82.9162 183.467 78.2695 178.003 77.504C171.85 76.6421 165.514 78.3779 160.939 82.6115C155.065 88.0469 152.709 95.22 152.029 98.7555C151.796 99.9643 152.248 101.18 153.199 101.961C154.343 102.9 156.208 104.068 158.866 104.645C158.866 104.645 160.671 108.549 165.022 111.843C158.57 111.82 153.395 110.544 151.243 111.446C148.563 112.713 147.818 114.796 147.663 116.313C147.543 117.491 148.385 118.544 149.549 118.762C152.789 119.368 159.958 120.4 167.468 123.651C181.061 129.536 187.709 127.075 191.09 125.495C198.052 122.242 204.743 125.603 199.855 132.582C189.101 147.936 201.036 160.245 207.874 164.348H199.047C195.546 164.348 192.574 166.608 191.509 169.749C191.083 171.008 192.094 172.305 193.423 172.305H225.27C229.365 172.305 233.159 170.156 235.265 166.646L237.838 162.358C254.084 129.205 228.886 90.7455 191.712 89.5021Z" fill="#F1C9DC"/>
<path d="M178.711 67.9849C176.415 70.2442 174.742 75.1072 173.782 77.3957C172.432 80.6139 174.666 84.1971 178.15 84.4045C181.26 84.5897 183.925 81.8629 183.869 78.7475C183.807 75.2662 182.743 70.0852 181.531 68.2583C180.906 67.3155 179.517 67.1912 178.711 67.9849Z" fill="#F1C9DC"/>
<path d="M166.278 94.7246C167.926 94.7246 169.262 93.3886 169.262 91.7407C169.262 90.0928 167.926 88.7568 166.278 88.7568C164.63 88.7568 163.294 90.0928 163.294 91.7407C163.294 93.3886 164.63 94.7246 166.278 94.7246Z" fill="#313137"/>
<path d="M167.581 104.298C164.131 105.048 161.177 105.114 158.917 104.646C158.917 104.646 160.722 108.55 165.073 111.844C171.907 111.868 180.175 110.488 187.806 103.628C188.693 102.83 188.555 101.34 187.464 100.86C181.14 98.0809 174.639 102.762 167.581 104.298Z" fill="#DDBACB"/>
<path d="M155.587 103.471C158.665 98.8762 155.457 96.279 153.002 95.3149C152.564 96.6326 152.264 97.8069 152.085 98.7298C151.848 99.9544 152.305 101.188 153.271 101.978C153.854 102.454 154.626 102.986 155.587 103.471Z" fill="#313137"/>
<path d="M218.991 160.369H218.47C214.75 160.369 211.027 159.486 207.896 157.477C198.794 151.638 197.597 140.186 198.466 134.785C192.204 145.711 197.183 154.893 202.788 160.369H202.835C204.579 162.073 206.382 163.422 207.926 164.348H218.991C220.09 164.348 220.981 163.457 220.981 162.359C220.981 161.26 220.09 160.369 218.991 160.369Z" fill="#F1C9DC"/>
<path d="M262.756 134.509C262.756 111.384 240.377 95.4699 238.885 79.52C237.802 67.9454 246.603 63.881 256.165 66.9845C256.818 67.1965 257.437 66.9214 257.769 66.4481C249.743 53.7787 234.077 51.4579 227.695 60.9067C220.288 71.8736 224.794 88.0103 236.895 100.692C244.27 108.42 268.558 142.466 247.804 166.158C257.272 159.576 262.756 148.209 262.756 134.509Z" fill="#F1C9DC"/>
</g>
<path d="M129.688 141.409C124.746 138.453 109.144 128.375 109.387 116.844C109.483 111.514 114.183 106.524 119.513 106.088C125.182 105.603 130.027 109.431 131.19 114.664C132.401 109.479 137.198 105.652 142.866 106.088C148.196 106.524 152.847 111.514 152.993 116.844C153.235 128.375 137.634 138.453 132.692 141.409C131.771 141.942 130.608 141.942 129.688 141.409Z" fill="#A9D379"/>
<defs>
<clipPath id="clip0">
<rect width="123.334" height="123.334" fill="white" transform="matrix(-1 0 0 1 123.334 50.5981)"/>
</clipPath>
<clipPath id="clip1">
<rect width="123.334" height="123.334" fill="white" transform="translate(140.416 48.9712)"/>
</clipPath>
</defs>
</svg>
