<svg xmlns="http://www.w3.org/2000/svg" width="156" height="156" fill="none" viewBox="0 0 156 156"><path fill="#A9D379" d="M78 34a44 44 0 1 1 0 88 44 44 0 0 1 0-88Z"/><path fill="#FFD875" d="M91.23 79.42c0 14.4-13.5 17.73-13.5 17.73s-13.5-3.33-13.5-17.73c0-1.06.11-2.03.3-2.93.2-.89.48-1.7.85-2.43a65.96 65.96 0 0 1 24.7 0c.37.74.66 1.54.85 2.43.2.9.3 1.87.3 2.93Z"/><path fill="#995C0D" d="M77.93 67.1h-.03c-.4-.02-.7-.37-.69-.8 0-.02.07-1.87-.47-3.79-.68-2.4-1.98-3.8-3.86-4.12-.4-.06-.66-.46-.6-.88.07-.42.44-.7.83-.63 2.45.42 4.2 2.23 5.03 5.23.6 2.16.52 4.18.52 4.26a.74.74 0 0 1-.73.74Z"/><path fill="#B27214" d="M92.47 72.98c0 .48-.05.97-.15 1.47a67.75 67.75 0 0 0-14.48-1.55 68.32 68.32 0 0 0-14.49 1.55c-.83-4.18 1.98-8.19 6.04-8.65a75.21 75.21 0 0 1 16.9 0 7.12 7.12 0 0 1 6.18 7.18Z"/><path fill="#995C0D" d="M75.46 65.8c1.82-.2 3.64-.34 5.47-.41a75.92 75.92 0 0 0-11.51.41c-4.08.46-6.9 4.47-6.07 8.65a68.44 68.44 0 0 1 5.91-1 7.15 7.15 0 0 1 6.2-7.65Z"/><path fill="#313137" fill-opacity=".5" d="m156 86.32-.52 2.9-9.88 4.14 8.86 1.58-.54 2.98-13.7-2.45.52-2.88 9.88-4.16-8.86-1.58.54-2.98 13.7 2.45ZM152.76 101.87l-3.43 9.03-2.38-.9 2.35-6.2-3.03-1.15-1.73 4.56-2.18-.83 1.73-4.56-5.42-2.06 1.08-2.83 13.01 4.94ZM144.06 115.46l2.04-3.51 2.19 1.27-5.6 9.64-2.19-1.27 2.04-3.51-9.85-5.72 1.52-2.62 9.85 5.72ZM127.59 119.01c.45-.55 1-1.1 1.65-1.63.63-.54 1.2-.9 1.7-1.08l1.82 1.5c-.58.2-1.19.53-1.81.98-.63.45-1.14.92-1.55 1.41-.34.42-.56.76-.65 1.01-.09.26-.03.47.16.63.16.12.33.17.51.13.2-.03.43-.13.7-.31.26-.16.69-.44 1.28-.85.7-.47 1.29-.81 1.77-1.02.48-.2.94-.26 1.38-.2.43.05.87.27 1.32.64.77.63 1.1 1.4.98 2.32-.11.94-.6 1.93-1.46 2.98-.42.51-.91 1-1.47 1.44-.56.47-1.05.79-1.47.94l-1.77-1.45a7.07 7.07 0 0 0 2.76-2.01c.35-.43.58-.79.69-1.1.1-.28.04-.52-.19-.7-.19-.17-.43-.18-.7-.05-.3.14-.77.45-1.42.93l-.32.24c-.71.5-1.32.85-1.83 1.03-.5.2-.96.24-1.37.14-.42-.08-.84-.3-1.29-.67a2.46 2.46 0 0 1-.9-2.22 5.8 5.8 0 0 1 1.48-3.03ZM119.04 145.56l-2.62 1.36-9.3-5.32 4.14 8-2.7 1.39-6.4-12.36 2.6-1.35 9.32 5.3-4.14-7.98 2.69-1.4 6.4 12.36ZM104.69 152.47l-9.25 2.77-.74-2.44 6.36-1.9-.93-3.12-4.68 1.4-.67-2.23 4.68-1.4-1.67-5.55 2.9-.87 4 13.34ZM88.51 153.83l4.03-.51.33 2.5-11.07 1.42-.32-2.5 4.03-.52-1.44-11.3 3-.39 1.44 11.3ZM75.49 142.9c.72.02 1.48.13 2.3.31.8.18 1.44.41 1.89.7l-.08 2.35a7.46 7.46 0 0 0-1.89-.84 8.03 8.03 0 0 0-2.06-.37c-.54-.02-.94.01-1.2.1-.25.08-.38.25-.4.5 0 .2.07.36.21.49.14.14.36.26.67.36.28.12.77.29 1.45.51.8.27 1.43.53 1.89.78.44.27.78.6 1 .97.21.38.31.87.3 1.45-.04 1-.46 1.72-1.26 2.19-.81.47-1.9.69-3.25.64-.67-.02-1.35-.12-2.04-.29a5.24 5.24 0 0 1-1.64-.6l.08-2.28a7.14 7.14 0 0 0 3.27.97c.55.02.98-.02 1.29-.12.3-.1.44-.29.45-.58.01-.25-.12-.45-.4-.59a11.2 11.2 0 0 0-1.59-.55l-.4-.12a7.88 7.88 0 0 1-1.92-.82 2.3 2.3 0 0 1-.94-1.01 2.98 2.98 0 0 1-.25-1.42c.03-.88.43-1.57 1.2-2.07a5.8 5.8 0 0 1 3.32-.67ZM49.2 152.16l-2.66-1.27-1.38-10.63-3.87 8.13-2.73-1.3 5.99-12.57 2.64 1.26 1.4 10.63 3.87-8.12 2.73 1.3-5.99 12.57ZM35.09 144.91l-7.82-5.68 1.5-2.06 5.37 3.9 1.9-2.63-3.94-2.87 1.37-1.88 3.95 2.87 3.4-4.69 2.46 1.78-8.2 11.26ZM24.23 132.9l2.85 2.89-1.8 1.78-7.83-7.95 1.8-1.77 2.85 2.89 8.12-8 2.12 2.16-8.11 8ZM25.17 116.11c.42.59.8 1.26 1.15 2.03.35.74.54 1.38.59 1.92l-1.92 1.36a7.47 7.47 0 0 0-.47-2 8.06 8.06 0 0 0-.96-1.87 3.73 3.73 0 0 0-.8-.89c-.23-.15-.44-.15-.65 0a.59.59 0 0 0-.26.45c-.02.2.01.44.12.75.08.3.24.78.48 1.46.27.8.44 1.46.52 1.98.05.51 0 .97-.16 1.38-.18.4-.5.77-.98 1.11-.8.58-1.64.69-2.5.33a5.98 5.98 0 0 1-2.48-2.19c-.39-.54-.72-1.14-1.01-1.8a5.22 5.22 0 0 1-.52-1.66l1.87-1.32a7.07 7.07 0 0 0 1.22 3.2c.3.43.6.75.86.94.26.17.5.18.74 0 .2-.14.28-.37.23-.67-.06-.31-.24-.85-.53-1.6l-.15-.38a7.86 7.86 0 0 1-.51-2.03 2.3 2.3 0 0 1 .23-1.36c.19-.38.51-.74.98-1.07.71-.5 1.5-.6 2.38-.3a5.8 5.8 0 0 1 2.53 2.23ZM1.8 100.84l-.6-2.88 7.6-7.55L0 92.27l-.63-2.97L13 86.44l.6 2.86L6 96.87 14.8 95l.63 2.96-13.63 2.87ZM-1.03 85.2l-.22-9.66 2.55-.06.15 6.63 3.25-.08-.12-4.88 2.33-.05.12 4.88 5.8-.14.06 3.03-13.92.32ZM1.92 69.12l-.57 4.02-2.5-.35L.42 61.74l2.5.36-.58 4.03 11.28 1.61-.43 3-11.28-1.62ZM15.82 59.78c-.22.68-.52 1.4-.92 2.13a5.74 5.74 0 0 1-1.18 1.63l-2.24-.7c.46-.4.9-.94 1.3-1.59.42-.65.72-1.28.91-1.89.16-.52.24-.91.22-1.18 0-.27-.14-.44-.38-.52a.59.59 0 0 0-.52.07c-.17.1-.34.28-.52.55-.2.24-.48.67-.88 1.27-.47.7-.89 1.24-1.25 1.6-.38.37-.78.6-1.2.72-.43.1-.92.07-1.48-.1-.95-.3-1.54-.9-1.78-1.8a5.98 5.98 0 0 1 .24-3.3c.2-.63.47-1.26.82-1.89.34-.64.68-1.12 1-1.42l2.2.68a7.09 7.09 0 0 0-1.8 2.9c-.17.53-.24.95-.23 1.27.01.31.16.5.44.6.24.07.46 0 .67-.23.22-.24.53-.7.96-1.4l.21-.34c.47-.73.9-1.28 1.3-1.64.4-.37.8-.58 1.23-.64.41-.08.9-.04 1.44.13.83.27 1.4.84 1.67 1.72.27.87.2 2-.23 3.37ZM13.88 31.8l1.93-2.23 10.61 1.5-6.8-5.9 1.97-2.29 10.54 9.1-1.92 2.22-10.63-1.47 6.82 5.89-1.98 2.29-10.54-9.1ZM24.4 20.24l7.54-6.04 1.6 1.99-5.18 4.15 2.03 2.53 3.8-3.05 1.47 1.81-3.8 3.06 3.62 4.52-2.36 1.9-8.72-10.87ZM38.8 12.9l-3.55 2-1.24-2.21 9.73-5.46 1.24 2.2-3.55 2 5.58 9.93-2.64 1.48-5.58-9.94ZM54.68 18.21c-.67.25-1.42.44-2.25.57-.81.14-1.48.16-2.02.06l-.8-2.2c.6.11 1.3.14 2.06.07a8.04 8.04 0 0 0 2.04-.44c.52-.18.87-.36 1.08-.54.2-.17.26-.38.18-.62a.59.59 0 0 0-.37-.37c-.19-.07-.44-.1-.76-.08-.3 0-.82.02-1.54.07-.84.06-1.52.05-2.04-.01a2.85 2.85 0 0 1-1.3-.52 2.73 2.73 0 0 1-.8-1.23 2.46 2.46 0 0 1 .33-2.5 5.98 5.98 0 0 1 2.77-1.82c.62-.23 1.29-.4 2-.5.72-.13 1.3-.15 1.74-.07l.78 2.15a7.08 7.08 0 0 0-3.4.33c-.5.2-.89.39-1.14.6-.23.2-.3.43-.2.7.09.24.28.38.59.4.32.03.88 0 1.69-.08l.4-.05a7.87 7.87 0 0 1 2.1.04c.52.1.94.28 1.25.58.31.28.57.7.77 1.23.3.82.19 1.61-.34 2.37a5.8 5.8 0 0 1-2.82 1.86ZM76.18-.4l2.95.2 5.24 9.33.56-8.98 3.02.19-.86 13.9-2.92-.19-5.27-9.34-.55 8.98-3.03-.19.86-13.9ZM91.88 1l9.37 2.35-.63 2.47L94.2 4.2l-.79 3.15 4.74 1.18-.57 2.26-4.73-1.18-1.41 5.62-2.94-.74L91.88 1ZM106.35 8.02l-3.72-1.63 1-2.32 10.23 4.46-1.01 2.32-3.72-1.62-4.56 10.44-2.77-1.21 4.55-10.44ZM111.67 23.86c-.6-.39-1.21-.87-1.82-1.45a5.72 5.72 0 0 1-1.27-1.57l1.27-1.98c.28.56.68 1.12 1.2 1.69a8.05 8.05 0 0 0 1.58 1.37c.45.3.81.47 1.08.53.26.06.46-.02.6-.23.1-.17.13-.35.07-.53a1.8 1.8 0 0 0-.39-.65c-.19-.24-.52-.64-1-1.18a11.3 11.3 0 0 1-1.21-1.63c-.25-.46-.37-.9-.37-1.35.01-.43.17-.9.49-1.39a2.45 2.45 0 0 1 2.2-1.24c.94 0 1.98.37 3.12 1.1.56.36 1.1.8 1.6 1.3.54.5.9.94 1.1 1.34l-1.23 1.93a7.08 7.08 0 0 0-2.32-2.5c-.46-.3-.84-.49-1.16-.56-.3-.07-.53.02-.7.26-.13.22-.11.45.05.72.17.26.54.7 1.09 1.29l.28.3c.58.64 1 1.2 1.23 1.69.25.47.35.92.3 1.34-.03.42-.2.87-.51 1.36a2.46 2.46 0 0 1-2.1 1.16 5.8 5.8 0 0 1-3.18-1.12ZM135.33 24.83l1.83 2.32-3.46 10.14 7.06-5.58 1.88 2.37-10.92 8.64-1.81-2.3 3.44-10.16-7.06 5.58-1.88-2.37 10.92-8.64ZM144.79 37.47l4.5 8.54-2.25 1.2-3.1-5.87-2.87 1.51 2.28 4.32-2.06 1.09-2.28-4.32-5.12 2.7-1.41-2.67 12.3-6.5ZM149.34 53.24l-1.27-3.86 2.4-.8 3.48 10.6-2.4.8-1.27-3.87-10.82 3.56-.95-2.88 10.83-3.55ZM141.04 67.8c-.11-.71-.16-1.49-.13-2.33.02-.82.13-1.48.33-1.98l2.32-.37a7.48 7.48 0 0 0-.47 2c-.08.77-.06 1.47.03 2.1.1.54.2.92.33 1.16.13.23.32.33.57.29.2-.03.34-.13.44-.3.1-.16.18-.4.23-.71.06-.3.13-.82.22-1.53.1-.84.24-1.5.4-2 .18-.49.44-.88.77-1.17.33-.28.78-.47 1.36-.56.98-.16 1.78.11 2.39.8.62.72 1.04 1.74 1.25 3.08.1.65.14 1.34.1 2.06-.01.72-.1 1.3-.26 1.71l-2.26.36a7.1 7.1 0 0 0 .33-3.4c-.1-.53-.21-.95-.37-1.23-.15-.27-.37-.39-.66-.34-.24.04-.41.2-.5.5-.09.31-.16.87-.24 1.68l-.03.4c-.1.87-.24 1.55-.44 2.05-.2.5-.46.87-.81 1.12-.34.25-.79.43-1.35.52a2.46 2.46 0 0 1-2.27-.8 5.8 5.8 0 0 1-1.28-3.12Z"><animateTransform attributeName="transform" attributeType="XML" type="rotate" from="0 78 78" to="-360 78 78" dur="60s" begin="0s" repeatCount="indefinite" fill="freeze"/></path></svg>