<svg width="112" height="114" viewBox="0 0 112 114" fill="none" xmlns="http://www.w3.org/2000/svg">
<path d="M94.4515 0H14.3892C13.2548 0 12.3359 0.916564 12.3359 2.04819V94.9929H71.6463H76.5587C74.1194 96.9038 72.5456 99.8665 72.5456 103.2C72.5456 108.66 76.7527 113.129 82.1075 113.586H82.1311C90.0689 113.586 96.5036 107.167 96.5036 99.249V2.04819C96.5047 0.916564 95.5848 0 94.4515 0Z" fill="#F1C9DC"/>
<path d="M0 103.2C0 108.621 4.1434 113.075 9.44379 113.586H82.1073C76.7525 113.128 72.5455 108.66 72.5455 103.2C72.5455 99.8653 74.1182 96.9036 76.5585 94.9927H71.6461H4.012C1.57277 96.9036 0 99.8653 0 103.2Z" fill="#DDBACB"/>
<path fill-rule="evenodd" clip-rule="evenodd" d="M80.429 24.6136H28.4141V16.9482H80.429V24.6136Z" fill="#E9F0F5"/>
<path fill-rule="evenodd" clip-rule="evenodd" d="M80.429 44.3245H28.4141V36.6592H80.429V44.3245Z" fill="#E9F0F5"/>
<path fill-rule="evenodd" clip-rule="evenodd" d="M80.429 64.0355H28.4141V56.3701H80.429V64.0355Z" fill="#E9F0F5"/>
<path fill-rule="evenodd" clip-rule="evenodd" d="M111.153 27.8714L83.257 55.7677L67.4062 39.917L72.8265 34.4967L83.257 44.9273L105.733 22.4512L111.153 27.8714Z" fill="#A9D379"/>
</svg>
