<svg width="248" height="136" viewBox="0 0 248 136" fill="none" xmlns="http://www.w3.org/2000/svg">
<path d="M168.641 1.95972H75.8342C74.5192 1.95972 73.4541 3.02218 73.4541 4.33393V112.074H142.206H147.9C145.072 114.289 143.248 117.723 143.248 121.587C143.248 127.917 148.125 133.096 154.332 133.627H154.359C163.561 133.627 171.02 126.186 171.02 117.007V4.33393C171.021 3.02218 169.955 1.95972 168.641 1.95972Z" fill="#F1C9DC"/>
<path d="M59.1533 121.587C59.1533 127.871 63.9563 133.034 70.1004 133.626H154.33C148.123 133.096 143.247 127.916 143.247 121.587C143.247 117.721 145.07 114.288 147.898 112.073H142.204H63.8039C60.9764 114.288 59.1533 117.721 59.1533 121.587Z" fill="#DDBACB"/>
<path fill-rule="evenodd" clip-rule="evenodd" d="M152.384 30.4913H92.0889V21.6057H152.384V30.4913Z" fill="#E9F0F5"/>
<path fill-rule="evenodd" clip-rule="evenodd" d="M152.384 53.3399H92.0889V44.4543H152.384V53.3399Z" fill="#E9F0F5"/>
<path fill-rule="evenodd" clip-rule="evenodd" d="M152.384 76.1883H92.0889V67.3027H152.384V76.1883Z" fill="#E9F0F5"/>
<path fill-rule="evenodd" clip-rule="evenodd" d="M188 34.2676L155.663 66.6045L137.289 48.2306L143.572 41.9476L155.663 54.0384L181.717 27.9846L188 34.2676Z" fill="#A9D379"/>
</svg>
