<svg width="152" height="103" viewBox="0 0 152 103" fill="none" xmlns="http://www.w3.org/2000/svg">
<path d="M0.679688 10.9137C0.679688 5.37811 5.16717 0.890625 10.7028 0.890625H141.825C147.361 0.890625 151.848 5.37811 151.848 10.9137V92.4579C151.848 97.9935 147.361 102.481 141.825 102.481H10.7028C5.16718 102.481 0.679688 97.9935 0.679688 92.4579V10.9137Z" fill="#F1C9DC"/>
<path d="M0.679688 10.9137C0.679688 5.37811 5.16717 0.890625 10.7028 0.890625H141.825C147.361 0.890625 151.848 5.37811 151.848 10.9137V15.5053H0.679688V10.9137Z" fill="#A9D379"/>
<path d="M17.0282 8.1982C17.0282 10.4124 15.2332 12.2074 13.019 12.2074C10.8048 12.2074 9.00977 10.4124 9.00977 8.1982C9.00977 5.98396 10.8048 4.18896 13.019 4.18896C15.2332 4.18896 17.0282 5.98396 17.0282 8.1982Z" fill="#E9F0F5"/>
<path fill-rule="evenodd" clip-rule="evenodd" d="M98.4205 72.9908C106.862 72.9908 113.706 66.1474 113.706 57.7056C113.706 49.2639 106.862 42.4205 98.4205 42.4205C89.9787 42.4205 83.1353 49.2639 83.1353 57.7056C83.1353 66.1474 89.9787 72.9908 98.4205 72.9908ZM98.4205 80.007C110.737 80.007 120.722 70.0223 120.722 57.7056C120.722 45.389 110.737 35.4043 98.4205 35.4043C86.1038 35.4043 76.1191 45.389 76.1191 57.7056C76.1191 70.0223 86.1038 80.007 98.4205 80.007Z" fill="#E9F0F5"/>
<path fill-rule="evenodd" clip-rule="evenodd" d="M125.908 86.1369L112.377 74.1092L117.038 68.8652L130.569 80.8929L125.908 86.1369Z" fill="#E9F0F5"/>
<path d="M55.857 58.1575C55.857 73.0513 40.7782 76.4989 40.7782 76.4989C40.7782 76.4989 25.6992 73.0513 25.6992 58.1575C25.6992 57.0625 25.8147 56.0526 26.0341 55.1234C26.2503 54.2091 26.5671 53.3746 26.974 52.6134C31.5401 51.8076 36.1591 51.4058 40.7782 51.4058C45.3972 51.4058 50.0162 51.8076 54.5823 52.6134C54.9892 53.3746 55.306 54.2091 55.5222 55.1234C55.7415 56.0525 55.857 57.0625 55.857 58.1575Z" fill="#E9F0F5"/>
<path d="M41.0028 42.9433C40.9901 42.9433 40.9774 42.943 40.9647 42.9425C40.5198 42.922 40.1759 42.5505 40.1961 42.1122C40.197 42.093 40.2754 40.1721 39.6708 38.1903C38.9111 35.7002 37.4594 34.2679 35.3561 33.9333C34.9162 33.8634 34.6172 33.4553 34.6882 33.0219C34.7591 32.5885 35.1735 32.2939 35.6133 32.3638C38.3525 32.7994 40.2944 34.6702 41.2289 37.7741C41.902 40.0099 41.8124 42.0975 41.8081 42.1853C41.7879 42.6112 41.4311 42.9433 41.0028 42.9433Z" fill="#A9D379"/>
<path d="M57.239 49.0154C57.239 49.5173 57.1859 50.0275 57.0767 50.5408C56.2889 50.3826 55.4979 50.2359 54.7069 50.1014C50.1381 49.3233 45.5163 48.9353 40.8944 48.9353C36.2726 48.9353 31.6508 49.3233 27.0819 50.1014C26.2899 50.2359 25.5 50.3826 24.7111 50.5408C23.7866 46.2171 26.9165 42.069 31.4514 41.5948C37.7284 40.9378 44.0595 40.9378 50.3364 41.5948C54.3338 42.0126 57.239 45.2851 57.239 49.0154Z" fill="#A9D379"/>
<path d="M38.2328 41.594C40.2664 41.3821 42.3058 41.2397 44.3471 41.1644C40.0573 41.0063 35.7586 41.1488 31.4849 41.594C26.928 42.0683 23.7829 46.2168 24.7119 50.5408C25.5046 50.3826 26.2983 50.2359 27.0942 50.1014C28.4968 49.8636 29.9045 49.6627 31.3156 49.4977C31.0511 45.5704 34.0442 42.03 38.2328 41.594Z" fill="#A9D379"/>
</svg>
