<svg width="248" height="136" viewBox="0 0 248 136" fill="none" xmlns="http://www.w3.org/2000/svg">
<path d="M37 21.5369C37 15.1652 42.1652 10 48.5369 10H199.462C205.834 10 210.999 15.1652 210.999 21.5369V115.397C210.999 121.768 205.834 126.934 199.462 126.934H48.5369C42.1652 126.934 37 121.768 37 115.397V21.5369Z" fill="#F1C9DC"/>
<path d="M37 21.5369C37 15.1652 42.1652 10 48.5369 10H199.462C205.834 10 210.999 15.1652 210.999 21.5369V26.822H37V21.5369Z" fill="#A9D379"/>
<path d="M55.8174 18.4109C55.8174 20.9595 53.7513 23.0256 51.2026 23.0256C48.654 23.0256 46.5879 20.9595 46.5879 18.4109C46.5879 15.8622 48.654 13.7961 51.2026 13.7961C53.7513 13.7961 55.8174 15.8622 55.8174 18.4109Z" fill="#E9F0F5"/>
<path fill-rule="evenodd" clip-rule="evenodd" d="M149.503 92.9891C159.219 92.9891 167.096 85.1121 167.096 75.3954C167.096 65.6786 159.219 57.8016 149.503 57.8016C139.786 57.8016 131.909 65.6786 131.909 75.3954C131.909 85.1121 139.786 92.9891 149.503 92.9891ZM149.503 101.065C163.679 101.065 175.172 89.5722 175.172 75.3954C175.172 61.2185 163.679 49.7258 149.503 49.7258C135.326 49.7258 123.833 61.2185 123.833 75.3954C123.833 89.5722 135.326 101.065 149.503 101.065Z" fill="#E9F0F5"/>
<path fill-rule="evenodd" clip-rule="evenodd" d="M181.142 108.121L165.567 94.2769L170.933 88.241L186.507 102.085L181.142 108.121Z" fill="#E9F0F5"/>
<path d="M100.511 75.9155C100.511 93.0587 83.1551 97.027 83.1551 97.027C83.1551 97.027 65.7988 93.0587 65.7988 75.9155C65.7988 74.6551 65.9318 73.4927 66.1843 72.4232C66.4331 71.3708 66.7978 70.4103 67.2662 69.5341C72.5219 68.6066 77.8385 68.144 83.1551 68.144C88.4718 68.144 93.7884 68.6066 99.0441 69.5341C99.5125 70.4103 99.8772 71.3708 100.126 72.4232C100.378 73.4926 100.511 74.6551 100.511 75.9155Z" fill="#E9F0F5"/>
<path d="M83.4141 58.4037C83.3995 58.4037 83.3849 58.4034 83.3703 58.4028C82.8582 58.3792 82.4624 57.9516 82.4856 57.4472C82.4866 57.4251 82.5769 55.214 81.881 52.9329C81.0065 50.0667 79.3356 48.4181 76.9146 48.033C76.4083 47.9526 76.0641 47.4828 76.1458 46.9839C76.2275 46.485 76.7044 46.146 77.2107 46.2264C80.3635 46.7278 82.5987 48.8812 83.6744 52.4539C84.4491 55.0273 84.346 57.4302 84.3411 57.5313C84.3178 58.0216 83.9072 58.4037 83.4141 58.4037Z" fill="#A9D379"/>
<path d="M102.102 65.3927C102.102 65.9704 102.041 66.5577 101.915 67.1484C101.008 66.9664 100.098 66.7975 99.1875 66.6427C93.9286 65.7471 88.6088 65.3005 83.2889 65.3005C77.969 65.3005 72.6492 65.7471 67.3903 66.6427C66.4786 66.7975 65.5694 66.9664 64.6614 67.1484C63.5972 62.1718 67.1999 57.3972 72.4197 56.8513C79.6447 56.0951 86.9319 56.0951 94.1569 56.8513C98.758 57.3322 102.102 61.099 102.102 65.3927Z" fill="#A9D379"/>
<path d="M80.2252 56.8504C82.5661 56.6065 84.9134 56.4426 87.263 56.3559C82.3253 56.1739 77.3775 56.338 72.4583 56.8504C67.2131 57.3963 63.593 62.1714 64.6623 67.1484C65.5748 66.9664 66.4883 66.7975 67.4044 66.6427C69.0189 66.369 70.6392 66.1377 72.2633 65.9478C71.9589 61.4274 75.404 57.3523 80.2252 56.8504Z" fill="#A9D379"/>
</svg>
