<svg width="126" height="106" viewBox="0 0 126 106" fill="none" xmlns="http://www.w3.org/2000/svg">
<path d="M121.586 94.7455H117.046V88.7686H54.0007V94.7455H49.4701C47.0511 94.7455 45.0881 97.2074 45.0881 100.217C45.0629 103.269 47.0511 105.7 49.4701 105.685H121.584C124.012 105.723 126.017 103.269 125.988 100.236C125.99 97.2074 124.012 94.7455 121.586 94.7455Z" fill="#A9D379"/>
<path d="M73.7468 73.9088C75.8987 76.0594 78.9918 76.3857 80.7254 74.6634L102.684 52.6529C104.43 50.947 104.084 47.8149 101.938 45.6819C99.7966 43.5463 96.6569 43.1935 94.9598 44.9259L72.9707 66.9478C71.2471 68.6625 71.6012 71.7833 73.7468 73.9088Z" fill="#F1C9DC"/>
<path d="M30.6949 30.8698C32.8468 33.0306 35.9613 33.3468 37.666 31.6144L59.645 9.61021C61.3711 7.898 61.0435 4.75958 58.8979 2.6316C56.7573 0.50236 53.6176 0.153366 51.9193 1.89455L29.9327 23.8963C28.2167 25.6312 28.5594 28.733 30.6949 30.8698Z" fill="#F1C9DC"/>
<path d="M62.7823 12.7422L40.6055 34.9581L50.7754 45.1016L1.57236 94.292C0.602235 95.2975 0 96.6569 0 98.1625C0 98.8441 0.13859 99.4904 0.361593 100.094C0.92855 101.626 2.13428 102.832 3.66632 103.395C4.26856 103.614 4.91363 103.754 5.59272 103.754C7.03657 103.754 8.34309 103.189 9.33589 102.29L58.5881 52.9319L58.6574 52.9495L69.6551 63.9913L91.8042 41.7779L62.7823 12.7422Z" fill="#F1C9DC"/>
</svg>
