<svg width="248" height="136" viewBox="0 0 248 136" fill="none" xmlns="http://www.w3.org/2000/svg">
<path d="M193.758 117.878H188.353V110.761H113.286V117.878H107.892C105.011 117.878 102.674 120.809 102.674 124.393C102.644 128.026 105.011 130.921 107.892 130.903H193.757C196.647 130.948 199.034 128.026 198.999 124.415C199.002 120.809 196.647 117.878 193.758 117.878Z" fill="#A9D379"/>
<path d="M136.798 93.0679C139.36 95.6286 143.043 96.0171 145.107 93.9664L171.253 67.759C173.332 65.7278 172.919 61.9985 170.365 59.4588C167.815 56.916 164.076 56.496 162.055 58.5587L135.874 84.7796C133.821 86.8213 134.243 90.5371 136.798 93.0679Z" fill="#F1C9DC"/>
<path d="M85.5369 41.8222C88.0991 44.395 91.8075 44.7715 93.8372 42.7088L120.007 16.5089C122.062 14.4702 121.672 10.7334 119.118 8.19962C116.569 5.66439 112.83 5.24885 110.808 7.32204L84.6293 33.5189C82.5861 35.5846 82.9942 39.278 85.5369 41.8222Z" fill="#F1C9DC"/>
<path d="M123.742 20.238L97.3362 46.69L109.445 58.7676L50.8605 117.337C49.7053 118.535 48.9883 120.153 48.9883 121.946C48.9883 122.757 49.1533 123.527 49.4188 124.246C50.0939 126.07 51.5295 127.505 53.3537 128.176C54.0707 128.437 54.8388 128.604 55.6474 128.604C57.3666 128.604 58.9222 127.931 60.1043 126.86L118.748 68.0909L118.83 68.1119L131.925 81.2592L158.297 54.8102L123.742 20.238Z" fill="#F1C9DC"/>
</svg>
