<svg width="140" height="127" viewBox="0 0 140 127" fill="none" xmlns="http://www.w3.org/2000/svg">
<path d="M65.0129 28.7446H100.463L82.553 91.9168L65.0129 28.7446ZM103.379 22.6356L118.928 0.976562H85.8377L103.379 22.6356ZM139.2 24.1166L123.002 3.29056L108.007 24.1166H139.2ZM57.6081 24.1166L43.7241 3.01288L25.9525 24.1166H57.6081ZM66.8641 24.1166H98.751L82.7844 4.5864L66.8641 24.1166ZM62.2361 22.5431L79.7762 0.976562H47.843L62.2361 22.5431ZM105.23 28.7446L85.7463 97.7493L139.246 28.7446H105.23ZM60.1997 28.7446H25.9062L79.1746 96.9613L60.1997 28.7446Z" fill="#F1C9DC"/>
<mask id="path-2-inside-1" fill="white">
<rect y="18.5928" width="67.5" height="107.5" rx="6"/>
</mask>
<rect y="18.5928" width="67.5" height="107.5" rx="6" fill="#E1EAF1" stroke="#A9D379" stroke-width="14" mask="url(#path-2-inside-1)"/>
<path d="M49.9708 75.2909C49.9708 91.7591 33.2979 95.5712 33.2979 95.5712C33.2979 95.5712 16.625 91.7591 16.625 75.2909C16.625 74.0802 16.7527 72.9635 16.9953 71.9361C17.2343 70.9252 17.5847 70.0024 18.0346 69.1608C23.0833 68.2698 28.1906 67.8254 33.2979 67.8254C38.4053 67.8254 43.5126 68.2698 48.5613 69.1608C49.0112 70.0024 49.3615 70.9252 49.6006 71.9361C49.8431 72.9634 49.9708 74.0802 49.9708 75.2909Z" fill="#F1C9DC"/>
<path d="M33.5464 58.4687C33.5324 58.4687 33.5183 58.4684 33.5043 58.4678C33.0124 58.4452 32.6321 58.0344 32.6545 57.5498C32.6554 57.5286 32.7422 55.4046 32.0737 53.2133C31.2336 50.4599 29.6285 48.8763 27.3028 48.5064C26.8164 48.429 26.4858 47.9778 26.5643 47.4985C26.6427 47.0193 27.1009 46.6936 27.5872 46.7709C30.6159 47.2525 32.7631 49.3212 33.7964 52.7531C34.5406 55.2252 34.4416 57.5335 34.4369 57.6306C34.4146 58.1016 34.02 58.4687 33.5464 58.4687Z" fill="#A9D379"/>
<path d="M51.4993 65.1825C51.4993 65.7375 51.4407 66.3016 51.3199 66.8691C50.4488 66.6943 49.5743 66.532 48.6996 66.3833C43.6478 65.523 38.5375 65.0939 33.427 65.0939C28.3166 65.0939 23.2062 65.523 18.1544 66.3833C17.2786 66.532 16.4052 66.6943 15.533 66.8691C14.5107 62.0884 17.9715 57.5018 22.9858 56.9774C29.9264 56.251 36.9266 56.251 43.8671 56.9774C48.287 57.4394 51.4993 61.0579 51.4993 65.1825Z" fill="#A9D379"/>
<path d="M30.484 56.9766C32.7326 56.7423 34.9876 56.5848 37.2446 56.5015C32.5014 56.3267 27.7483 56.4843 23.0228 56.9766C17.9842 57.501 14.5066 62.088 15.5338 66.8691C16.4103 66.6943 17.2879 66.532 18.168 66.3832C19.7189 66.1204 21.2754 65.8982 22.8356 65.7158C22.5432 61.3733 25.8526 57.4587 30.484 56.9766Z" fill="#A9D379"/>
<path d="M25.6327 82.7217H24.125V81.2301H26.0497L26.8356 78.4714H24.7986V76.9798H27.2526L28.0706 74.0928H29.8348L29.0169 76.9798H32.0803L32.8983 74.0928H34.6786L33.8606 76.9798H35.2078V78.4714H33.4436L32.6577 81.2301H34.5342V82.7217H32.2407L31.5189 85.3039H29.7386L30.4603 82.7217H27.3969L26.6752 85.3039H24.9109L25.6327 82.7217ZM30.8774 81.2301L31.6633 78.4714H28.5998L27.8139 81.2301H30.8774Z" fill="#E1EAF1"/>
<path d="M38.8725 76.242L36.4987 77.9581V76.0656L39.1933 74.0928H40.8934V85.3039H38.8725V76.242Z" fill="#E1EAF1"/>
<rect x="65.5" y="34.3428" width="4.5" height="21.25" rx="2.25" fill="#A9D379"/>
<rect x="44.375" y="22.0928" width="4.5" height="21.25" rx="2.25" transform="rotate(90 44.375 22.0928)" fill="#A9D379"/>
<rect x="65.5" y="61.7178" width="4.5" height="21.25" rx="2.25" fill="#A9D379"/>
</svg>
