<svg width="248" height="136" viewBox="0 0 248 136" fill="none" xmlns="http://www.w3.org/2000/svg">
<g clip-path="url(#clip0)">
<path d="M118.644 29.9874H156.928L137.586 98.2087L118.644 29.9874ZM160.077 23.3902L176.869 0H141.134L160.077 23.3902ZM198.761 24.9895L181.268 2.49895L165.075 24.9895H198.761ZM110.648 24.9895L95.654 2.19908L76.4621 24.9895H110.648ZM120.644 24.9895H155.079L137.836 3.89836L120.644 24.9895ZM115.646 23.2902L134.588 0H100.102L115.646 23.2902ZM162.076 29.9874L141.035 104.507L198.811 29.9874H162.076ZM113.447 29.9874H76.4121L133.938 103.656L113.447 29.9874Z" fill="#F1C9DC"/>
<mask id="path-2-inside-1" fill="white">
<rect x="48.4355" y="19.0242" width="72.895" height="116.092" rx="6"/>
</mask>
<rect x="48.4355" y="19.0242" width="72.895" height="116.092" rx="6" fill="#E1EAF1" stroke="#A9D379" stroke-width="14" mask="url(#path-2-inside-1)"/>
<path d="M102.402 80.254C102.402 98.0384 84.3962 102.155 84.3962 102.155C84.3962 102.155 66.3906 98.0384 66.3906 80.254C66.3906 78.9465 66.5285 77.7406 66.7905 76.6311C67.0487 75.5394 67.427 74.5429 67.9128 73.6339C73.3651 72.6717 78.8806 72.1919 84.3962 72.1919C89.9117 72.1919 95.4272 72.6717 100.879 73.6339C101.365 74.5429 101.744 75.5394 102.002 76.6311C102.264 77.7405 102.402 78.9465 102.402 80.254Z" fill="#F1C9DC"/>
<path d="M84.664 62.0872C84.6488 62.0872 84.6336 62.0868 84.6185 62.0862C84.0873 62.0618 83.6766 61.6182 83.7008 61.0949C83.7017 61.0719 83.7954 58.7782 83.0735 56.4118C82.1663 53.4383 80.4329 51.7281 77.9214 51.3286C77.3961 51.2451 77.039 50.7578 77.1238 50.2402C77.2085 49.7227 77.7033 49.371 78.2285 49.4544C81.4993 49.9745 83.8181 52.2085 84.934 55.9148C85.7377 58.5845 85.6307 61.0773 85.6256 61.1821C85.6015 61.6907 85.1755 62.0872 84.664 62.0872Z" fill="#A9D379"/>
<path d="M104.051 69.3376C104.051 69.937 103.988 70.5462 103.858 71.159C102.917 70.9702 101.972 70.795 101.028 70.6344C95.5723 69.7053 90.0535 69.242 84.5346 69.242C79.0157 69.242 73.4969 69.7053 68.0414 70.6344C67.0956 70.795 66.1524 70.9702 65.2104 71.159C64.1064 65.9963 67.8438 61.0431 73.2589 60.4768C80.7542 59.6923 88.3139 59.6923 95.8091 60.4768C100.582 60.9757 104.051 64.8834 104.051 69.3376Z" fill="#A9D379"/>
<path d="M81.3564 60.4759C83.7848 60.2228 86.2199 60.0527 88.6574 59.9629C83.535 59.7741 78.4021 59.9442 73.2989 60.4759C67.8575 61.0422 64.102 65.9958 65.2113 71.159C66.1579 70.9702 67.1056 70.795 68.056 70.6344C69.7309 70.3505 71.4118 70.1105 73.0967 69.9136C72.7809 65.224 76.3548 60.9965 81.3564 60.4759Z" fill="#A9D379"/>
<path d="M76.1174 88.2785H74.4893V86.6677H76.5678L77.4165 83.6885H75.2167V82.0777H77.8668L78.7502 78.96H80.6555L79.7721 82.0777H83.0804L83.9637 78.96H85.8863L85.003 82.0777H86.4579V83.6885H84.5526L83.7039 86.6677H85.7304V88.2785H83.2536L82.4741 91.0672H80.5515L81.331 88.2785H78.0227L77.2433 91.0672H75.338L76.1174 88.2785ZM81.7813 86.6677L82.63 83.6885H79.3218L78.473 86.6677H81.7813Z" fill="#E1EAF1"/>
<path d="M90.4154 81.2809L87.852 83.1343V81.0904L90.7619 78.96H92.5979V91.0672H90.4154V81.2809Z" fill="#E1EAF1"/>
<rect x="119.171" y="36.033" width="4.85967" height="22.9484" rx="2.42983" fill="#A9D379"/>
<rect x="96.3584" y="22.804" width="4.85967" height="22.9484" rx="2.42983" transform="rotate(90 96.3584 22.804)" fill="#A9D379"/>
<rect x="119.171" y="65.5959" width="4.85967" height="22.9484" rx="2.42983" fill="#A9D379"/>
</g>
<defs>
<clipPath id="clip0">
<rect width="248" height="136" fill="white"/>
</clipPath>
</defs>
</svg>
