<svg width="173" height="129" viewBox="0 0 173 129" fill="none" xmlns="http://www.w3.org/2000/svg">
<path fill-rule="evenodd" clip-rule="evenodd" d="M86.0401 0.0927734C67.437 0.0927734 52.3516 66.5814 52.3516 82.1643C52.3516 97.7479 67.437 110.37 86.0401 110.37C104.643 110.37 119.71 97.7484 119.71 82.1643C119.71 66.5808 104.643 0.0927734 86.0401 0.0927734Z" fill="#A9D379"/>
<rect x="77.1621" y="101.249" width="15.9886" height="27.5987" rx="7.9943" fill="#F1C9DC"/>
<path fill-rule="evenodd" clip-rule="evenodd" d="M21.9192 32.739C9.81522 32.739 0 75.9993 0 86.1383C0 96.2776 9.81522 104.49 21.9192 104.49C34.0231 104.49 43.826 96.278 43.826 86.1383C43.8265 75.999 34.0231 32.739 21.9192 32.739Z" fill="#A9D379"/>
<rect x="16.1426" y="98.5557" width="10.4029" height="17.9569" rx="5.20144" fill="#F1C9DC"/>
<path fill-rule="evenodd" clip-rule="evenodd" d="M150.152 32.739C138.048 32.739 128.232 75.9993 128.232 86.1383C128.232 96.2776 138.048 104.49 150.152 104.49C162.256 104.49 172.058 96.278 172.058 86.1383C172.059 75.999 162.256 32.739 150.152 32.739Z" fill="#A9D379"/>
<rect x="144.375" y="98.5557" width="10.4029" height="17.9569" rx="5.20144" fill="#F1C9DC"/>
</svg>
