<svg width="248" height="136" viewBox="0 0 248 136" fill="none" xmlns="http://www.w3.org/2000/svg">
<path fill-rule="evenodd" clip-rule="evenodd" d="M124.482 2C105.35 2 89.8369 70.3756 89.8369 86.4008C89.8369 102.427 105.35 115.407 124.482 115.407C143.613 115.407 159.107 102.427 159.107 86.4008C159.107 70.375 143.613 2 124.482 2Z" fill="#A9D379"/>
<rect x="115.353" y="106.027" width="16.4424" height="28.382" rx="8.22119" fill="#F1C9DC"/>
<path fill-rule="evenodd" clip-rule="evenodd" d="M58.5413 35.573C46.0938 35.573 36 80.0611 36 90.4878C36 100.915 46.0938 109.36 58.5413 109.36C70.9887 109.36 81.0698 100.915 81.0698 90.4878C81.0703 80.0607 70.9887 35.573 58.5413 35.573Z" fill="#A9D379"/>
<rect x="52.6006" y="103.257" width="10.6981" height="18.4665" rx="5.34906" fill="#F1C9DC"/>
<path fill-rule="evenodd" clip-rule="evenodd" d="M190.413 35.573C177.966 35.573 167.872 80.0611 167.872 90.4878C167.872 100.915 177.966 109.36 190.413 109.36C202.861 109.36 212.942 100.915 212.942 90.4878C212.942 80.0607 202.861 35.573 190.413 35.573Z" fill="#A9D379"/>
<rect x="184.473" y="103.257" width="10.6981" height="18.4665" rx="5.34906" fill="#F1C9DC"/>
</svg>
