<svg width="214" height="128" viewBox="0 0 214 128" fill="none" xmlns="http://www.w3.org/2000/svg">
<path fill-rule="evenodd" clip-rule="evenodd" d="M51.3047 103.249C79.6395 103.249 102.609 80.2792 102.609 51.9444C102.609 23.6096 79.6395 0.639648 51.3047 0.639648C22.9699 0.639648 0 23.6096 0 51.9444C0 80.2792 22.9699 103.249 51.3047 103.249ZM51.3049 64.9756C58.5018 64.9756 64.3361 59.1413 64.3361 51.9444C64.3361 44.7474 58.5018 38.9132 51.3049 38.9132C44.108 38.9132 38.2737 44.7474 38.2737 51.9444C38.2737 59.1413 44.108 64.9756 51.3049 64.9756Z" fill="#313137"/>
<path fill-rule="evenodd" clip-rule="evenodd" d="M51.3032 75.4916C64.308 75.4916 74.8505 64.9491 74.8505 51.9443C74.8505 38.9395 64.308 28.397 51.3032 28.397C38.2984 28.397 27.7559 38.9395 27.7559 51.9443C27.7559 64.9491 38.2984 75.4916 51.3032 75.4916ZM51.3034 64.9756C58.5003 64.9756 64.3346 59.1413 64.3346 51.9444C64.3346 44.7474 58.5003 38.9132 51.3034 38.9132C44.1065 38.9132 38.2722 44.7474 38.2722 51.9444C38.2722 59.1413 44.1065 64.9756 51.3034 64.9756Z" fill="#F1C9DC"/>
<path d="M56.2209 47.7257L146.419 23.6105C149.223 22.8627 152.214 24.5451 152.961 27.3493L170.814 93.6189C171.562 96.4229 169.88 99.3206 166.982 100.068L76.7843 124.183C73.9803 124.931 70.9893 123.249 70.2415 120.445L52.4824 54.175C51.7346 51.371 53.4169 48.4735 56.2209 47.7257Z" fill="#F1C9DC"/>
<path d="M63.7927 53.0534L142.681 32.0229C144.83 31.4621 147.074 32.7708 147.728 34.9204L162.496 89.7868C163.057 91.9365 161.748 94.1799 159.599 94.7407L80.7106 115.771C78.5609 116.332 76.3175 115.023 75.6632 112.874L60.8952 58.0073C60.2409 55.8574 61.5495 53.6142 63.7927 53.0534Z" fill="#80CA5C"/>
<path d="M72.5777 46.7908H166.514C169.505 46.7908 171.842 49.221 171.842 52.1185V121.753C171.842 124.744 169.411 127.08 166.514 127.08H72.5777C69.5867 127.08 67.25 124.65 67.25 121.753V52.1187C67.25 49.221 69.6802 46.7908 72.5777 46.7908Z" fill="#F1C9DC"/>
<path d="M78.8391 54.2681H160.438C162.681 54.2681 164.55 56.1375 164.55 58.3806V115.584C164.55 117.827 162.681 119.696 160.438 119.696H78.8391C76.596 119.696 74.7266 117.827 74.7266 115.584V58.3806C74.7266 56.1375 76.5025 54.2681 78.8391 54.2681Z" fill="#E9F0F5"/>
<path d="M74.7266 58.3807V78.383C75.6611 78.4765 76.596 78.57 77.5305 78.57C89.401 78.57 99.0285 68.9428 99.0285 57.072C99.0285 56.1375 98.935 55.2026 98.8415 54.2681H78.8391C76.5025 54.2681 74.7266 56.1375 74.7266 58.3807Z" fill="#F1C9DC"/>
<path d="M81.5499 100.07C79.2132 100.07 76.8765 100.257 74.7266 100.537V115.586C74.7266 117.829 76.596 119.698 78.8391 119.698H109.964C110.151 118.857 110.245 118.109 110.245 117.268C110.245 107.734 97.4396 100.07 81.5499 100.07Z" fill="#80CA5C"/>
<path d="M146.699 91.6565C121.089 91.6565 100.245 104.181 99.9648 119.697H160.346C162.589 119.697 164.459 117.828 164.459 115.585V93.8064C158.944 92.4978 152.962 91.6565 146.699 91.6565Z" fill="#A9D379"/>
<path d="M190.146 42.6936C185.204 39.7381 169.602 29.6602 169.845 18.1288C169.941 12.7992 174.641 7.80872 179.971 7.37266C185.64 6.88815 190.485 10.7158 191.648 15.9485C192.859 10.7642 197.656 6.9366 203.324 7.37266C208.654 7.80872 213.305 12.7992 213.451 18.1288C213.693 29.6602 198.092 39.7381 193.15 42.6936C192.229 43.2266 191.066 43.2266 190.146 42.6936Z" fill="#A9D379"/>
</svg>
