<svg width="248" height="136" viewBox="0 0 248 136" fill="none" xmlns="http://www.w3.org/2000/svg">
<g clip-path="url(#clip0)">
<path fill-rule="evenodd" clip-rule="evenodd" d="M64.3623 110.725C94.9381 110.725 119.725 85.9381 119.725 55.3623C119.725 24.7866 94.9381 0 64.3623 0C33.7866 0 9 24.7866 9 55.3623C9 85.9381 33.7866 110.725 64.3623 110.725ZM64.3625 69.424C72.1287 69.424 78.4244 63.1284 78.4244 55.3622C78.4244 47.5961 72.1287 41.3004 64.3625 41.3004C56.5964 41.3004 50.3007 47.5961 50.3007 55.3622C50.3007 63.1284 56.5964 69.424 64.3625 69.424Z" fill="#313137"/>
<path fill-rule="evenodd" clip-rule="evenodd" d="M64.3618 80.7719C78.3952 80.7719 89.7714 69.3956 89.7714 55.3623C89.7714 41.3289 78.3952 29.9526 64.3618 29.9526C50.3284 29.9526 38.9521 41.3289 38.9521 55.3623C38.9521 69.3956 50.3284 80.7719 64.3618 80.7719ZM64.362 69.424C72.1281 69.424 78.4238 63.1284 78.4238 55.3622C78.4238 47.5961 72.1281 41.3004 64.362 41.3004C56.5959 41.3004 50.3002 47.5961 50.3002 55.3622C50.3002 63.1284 56.5959 69.424 64.362 69.424Z" fill="#F1C9DC"/>
<path d="M69.6674 50.8101L166.999 24.7877C170.024 23.9807 173.252 25.7962 174.059 28.8222L193.324 100.333C194.131 103.359 192.315 106.486 189.188 107.292L91.8571 133.315C88.8313 134.122 85.6038 132.306 84.7968 129.28L65.6331 57.7694C64.8262 54.7437 66.6416 51.617 69.6674 50.8101Z" fill="#F1C9DC"/>
<path d="M77.838 56.5589L162.965 33.8652C165.285 33.2601 167.705 34.6722 168.411 36.9919L184.348 96.1976C184.953 98.5173 183.541 100.938 181.221 101.543L96.0938 124.237C93.7741 124.842 91.3533 123.43 90.6472 121.11L74.7113 61.9046C74.0053 59.5847 75.4174 57.1641 77.838 56.5589Z" fill="#80CA5C"/>
<path d="M87.3184 49.801H188.684C191.911 49.801 194.433 52.4234 194.433 55.5501V130.692C194.433 133.919 191.811 136.441 188.684 136.441H87.3184C84.0908 136.441 81.5693 133.818 81.5693 130.692V55.5503C81.5693 52.4234 84.1917 49.801 87.3184 49.801Z" fill="#F1C9DC"/>
<path d="M94.0755 57.8699H182.128C184.548 57.8699 186.565 59.8871 186.565 62.3077V124.035C186.565 126.455 184.548 128.473 182.128 128.473H94.0755C91.6549 128.473 89.6377 126.455 89.6377 124.035V62.3077C89.6377 59.8871 91.554 57.8699 94.0755 57.8699Z" fill="#E9F0F5"/>
<path d="M89.6377 62.3077V83.892C90.6462 83.9929 91.6549 84.0938 92.6634 84.0938C105.473 84.0938 115.862 73.7052 115.862 60.8956C115.862 59.8871 115.761 58.8784 115.66 57.8699H94.0755C91.554 57.8699 89.6377 59.8871 89.6377 62.3077Z" fill="#F1C9DC"/>
<path d="M97.0006 107.294C94.4791 107.294 91.9576 107.496 89.6377 107.798V124.037C89.6377 126.457 91.6549 128.475 94.0755 128.475H127.662C127.864 127.567 127.965 126.76 127.965 125.852C127.965 115.564 114.147 107.294 97.0006 107.294Z" fill="#80CA5C"/>
<path d="M167.302 98.2153C139.666 98.2153 117.174 111.731 116.871 128.474H182.028C184.448 128.474 186.465 126.457 186.465 124.036V100.535C180.515 99.1232 174.06 98.2153 167.302 98.2153Z" fill="#A9D379"/>
<path d="M214.185 45.38C208.852 42.1907 192.017 31.3158 192.278 18.8724C192.383 13.1213 197.454 7.73613 203.206 7.26558C209.323 6.74275 214.551 10.8731 215.806 16.5197C217.113 10.9254 222.289 6.79503 228.406 7.26558C234.157 7.73613 239.176 13.1213 239.333 18.8724C239.595 31.3158 222.759 42.1907 217.427 45.38C216.433 45.9551 215.178 45.9551 214.185 45.38Z" fill="#A9D379"/>
</g>
<defs>
<clipPath id="clip0">
<rect width="248" height="136" fill="white"/>
</clipPath>
</defs>
</svg>
