<svg width="228" height="118" viewBox="0 0 228 118" fill="none" xmlns="http://www.w3.org/2000/svg">
<path fill-rule="evenodd" clip-rule="evenodd" d="M82.4201 50.6229H73.4514C74.1955 47.6386 76.2007 46.5028 76.2007 42.3357C76.2007 34.7299 67.5375 28.2443 65.3522 39.9388C64.702 43.0876 57.5349 54.4845 54.3469 54.7352C53.2738 54.837 52.373 55.7378 52.373 56.8109V77.5681C52.373 78.7038 53.3443 79.6046 54.4409 79.636C55.5767 79.6751 57.5193 80.3488 59.5558 81.0616C63.0571 82.26 67.4279 83.7874 72.0571 83.7874C78.065 83.7874 84.8718 83.8814 84.1981 75.3984C85.9527 73.7221 86.6342 70.8788 85.9527 68.5681C87.5193 66.4689 87.6838 64.072 86.8613 61.6673C86.8613 61.6673 88.2791 50.6229 82.4201 50.6229Z" fill="#F1C9DC"/>
<path fill-rule="evenodd" clip-rule="evenodd" d="M50.2988 56.8413V77.5672C50.2988 78.6951 49.3588 79.6351 48.223 79.6351H38.9019C37.7661 79.6351 36.8262 78.703 36.8262 77.5672V56.8413C36.8262 55.7056 37.7661 54.7656 38.9019 54.7656H48.223C49.3588 54.7656 50.2988 55.7056 50.2988 56.8413Z" fill="#A9D379"/>
<path d="M88.2369 114.84L139.691 19.5619" stroke="#A9D379" stroke-width="7"/>
<path d="M4.22852 0.0205078C1.88564 0.0205078 -0.000488281 1.90664 -0.000488281 4.24951V32.4429C-0.000488281 34.7857 1.88564 36.6719 4.22852 36.6719H10.572L9.14033 50.7686L23.259 36.6719H45.1089C47.4518 36.6719 49.3379 34.7857 49.3379 32.4429V4.24951C49.3379 1.90664 47.4518 0.0205078 45.1089 0.0205078H4.22852ZM10.572 14.822C12.5184 14.822 14.0962 16.3998 14.0962 18.3462C14.0962 20.2925 12.5184 21.8704 10.572 21.8704C8.62568 21.8704 7.04785 20.2925 7.04785 18.3462C7.04785 16.3998 8.62568 14.822 10.572 14.822ZM24.6907 14.822C26.6371 14.822 28.2149 16.3998 28.2149 18.3462C28.2149 20.2925 26.6371 21.8704 24.6907 21.8704C22.7444 21.8704 21.1666 20.2925 21.1666 18.3462C21.1666 16.3998 22.7444 14.822 24.6907 14.822ZM38.7654 14.822C40.7117 14.822 42.2896 16.3998 42.2896 18.3462C42.2896 20.2925 40.7117 21.8704 38.7654 21.8704C36.819 21.8704 35.2412 20.2925 35.2412 18.3462C35.2412 16.3998 36.819 14.822 38.7654 14.822Z" fill="#A9D379"/>
<path d="M223.611 0.0205078C225.954 0.0205078 227.84 1.90664 227.84 4.24951V32.4429C227.84 34.7857 225.954 36.6719 223.611 36.6719H217.268L218.7 50.7686L204.581 36.6719H182.731C180.388 36.6719 178.502 34.7857 178.502 32.4429V4.24951C178.502 1.90664 180.388 0.0205078 182.731 0.0205078H223.611ZM217.268 14.822C215.321 14.822 213.744 16.3998 213.744 18.3462C213.744 20.2925 215.321 21.8704 217.268 21.8704C219.214 21.8704 220.792 20.2925 220.792 18.3462C220.792 16.3998 219.214 14.822 217.268 14.822ZM203.149 14.822C201.203 14.822 199.625 16.3998 199.625 18.3462C199.625 20.2925 201.203 21.8704 203.149 21.8704C205.095 21.8704 206.673 20.2925 206.673 18.3462C206.673 16.3998 205.095 14.822 203.149 14.822ZM189.074 14.822C187.128 14.822 185.55 16.3998 185.55 18.3462C185.55 20.2925 187.128 21.8704 189.074 21.8704C191.021 21.8704 192.599 20.2925 192.599 18.3462C192.599 16.3998 191.021 14.822 189.074 14.822Z" fill="#A9D379"/>
<path fill-rule="evenodd" clip-rule="evenodd" d="M145.381 79.2365H154.349C153.605 82.2208 151.6 83.3566 151.6 87.5237C151.6 95.1295 160.263 101.615 162.449 89.9206C163.099 86.7717 170.266 75.3749 173.454 75.1242C174.527 75.0224 175.428 74.1216 175.428 73.0485V52.2913C175.428 51.1555 174.456 50.2547 173.36 50.2234C172.224 50.1842 170.282 49.5106 168.245 48.7978C164.744 47.5994 160.373 46.072 155.744 46.072C149.736 46.072 142.929 45.978 143.603 54.461C141.848 56.1373 141.167 58.9806 141.848 61.2913C140.281 63.3905 140.117 65.7874 140.939 68.1921C140.939 68.1921 139.522 79.2365 145.381 79.2365Z" fill="#F1C9DC"/>
<path fill-rule="evenodd" clip-rule="evenodd" d="M177.502 73.0171V52.2912C177.502 51.1632 178.442 50.2233 179.578 50.2233H188.899C190.035 50.2233 190.975 51.1554 190.975 52.2912V73.0171C190.975 74.1528 190.035 75.0928 188.899 75.0928H179.578C178.442 75.0928 177.502 74.1528 177.502 73.0171Z" fill="#A9D379"/>
</svg>
