<svg width="248" height="136" viewBox="0 0 248 136" fill="none" xmlns="http://www.w3.org/2000/svg">
<g clip-path="url(#clip0)">
<path fill-rule="evenodd" clip-rule="evenodd" d="M89.6105 60.9953H79.8419C80.6524 57.7449 82.8365 56.5078 82.8365 51.9691C82.8365 43.685 73.4007 36.621 71.0204 49.3584C70.3123 52.7881 62.506 65.2014 59.0337 65.4744C57.8649 65.5853 56.8838 66.5664 56.8838 67.7352V90.3436C56.8838 91.5806 57.9417 92.5617 59.1361 92.5959C60.3732 92.6385 62.489 93.3722 64.7071 94.1486C68.5207 95.4539 73.2813 97.1175 78.3233 97.1175C84.867 97.1175 92.2808 97.2199 91.5471 87.9804C93.4582 86.1546 94.2004 83.0577 93.4582 80.5409C95.1645 78.2545 95.3436 75.6439 94.4478 73.0247C94.4478 73.0247 95.992 60.9953 89.6105 60.9953Z" fill="#F1C9DC"/>
<path fill-rule="evenodd" clip-rule="evenodd" d="M54.6233 67.7684V90.3427C54.6233 91.5712 53.5996 92.595 52.3625 92.595H42.2101C40.973 92.595 39.9492 91.5797 39.9492 90.3427V67.7684C39.9492 66.5313 40.973 65.5076 42.2101 65.5076H52.3625C53.5996 65.5076 54.6233 66.5313 54.6233 67.7684Z" fill="#A9D379"/>
<path d="M95.9463 130.939L151.989 27.1644" stroke="#A9D379" stroke-width="7"/>
<path d="M4.44579 5.88013C1.89397 5.88013 -0.160366 7.93447 -0.160366 10.4863V41.194C-0.160366 43.7458 1.89397 45.8001 4.44579 45.8001H11.355L9.79565 61.154L25.1735 45.8001H48.972C51.5238 45.8001 53.5781 43.7458 53.5781 41.194V10.4863C53.5781 7.93447 51.5238 5.88013 48.972 5.88013H4.44579ZM11.355 22.0017C13.4749 22.0017 15.1935 23.7202 15.1935 25.8401C15.1935 27.96 13.4749 29.6786 11.355 29.6786C9.2351 29.6786 7.51656 27.96 7.51656 25.8401C7.51656 23.7202 9.2351 22.0017 11.355 22.0017ZM26.7329 22.0017C28.8528 22.0017 30.5713 23.7202 30.5713 25.8401C30.5713 27.96 28.8528 29.6786 26.7329 29.6786C24.6129 29.6786 22.8944 27.96 22.8944 25.8401C22.8944 23.7202 24.6129 22.0017 26.7329 22.0017ZM42.0627 22.0017C44.1827 22.0017 45.9012 23.7202 45.9012 25.8401C45.9012 27.96 44.1827 29.6786 42.0627 29.6786C39.9428 29.6786 38.2243 27.96 38.2243 25.8401C38.2243 23.7202 39.9428 22.0017 42.0627 22.0017Z" fill="#A9D379"/>
<path d="M243.393 5.88013C245.945 5.88013 247.999 7.93447 247.999 10.4863V41.194C247.999 43.7458 245.945 45.8001 243.393 45.8001H236.484L238.043 61.154L222.665 45.8001H198.867C196.315 45.8001 194.261 43.7458 194.261 41.194V10.4863C194.261 7.93447 196.315 5.88013 198.867 5.88013H243.393ZM236.484 22.0017C234.364 22.0017 232.645 23.7202 232.645 25.8401C232.645 27.96 234.364 29.6786 236.484 29.6786C238.604 29.6786 240.322 27.96 240.322 25.8401C240.322 23.7202 238.604 22.0017 236.484 22.0017ZM221.106 22.0017C218.986 22.0017 217.268 23.7202 217.268 25.8401C217.268 27.96 218.986 29.6786 221.106 29.6786C223.226 29.6786 224.944 27.96 224.944 25.8401C224.944 23.7202 223.226 22.0017 221.106 22.0017ZM205.776 22.0017C203.656 22.0017 201.938 23.7202 201.938 25.8401C201.938 27.96 203.656 29.6786 205.776 29.6786C207.896 29.6786 209.615 27.96 209.615 25.8401C209.615 23.7202 207.896 22.0017 205.776 22.0017Z" fill="#A9D379"/>
<path fill-rule="evenodd" clip-rule="evenodd" d="M158.184 92.1607H167.953C167.142 95.4112 164.958 96.6482 164.958 101.187C164.958 109.471 174.394 116.535 176.775 103.798C177.483 100.368 185.289 87.9547 188.761 87.6816C189.93 87.5707 190.911 86.5896 190.911 85.4208V62.8124C190.911 61.5754 189.853 60.5943 188.659 60.5601C187.422 60.5175 185.306 59.7838 183.088 59.0074C179.274 57.7021 174.514 56.0385 169.472 56.0385C162.928 56.0385 155.514 55.9361 156.248 65.1757C154.337 67.0014 153.595 70.0983 154.337 72.6151C152.63 74.9015 152.451 77.5121 153.347 80.1313C153.347 80.1313 151.803 92.1607 158.184 92.1607Z" fill="#F1C9DC"/>
<path fill-rule="evenodd" clip-rule="evenodd" d="M193.172 85.3866V62.8124C193.172 61.5838 194.195 60.5601 195.432 60.5601H205.585C206.822 60.5601 207.846 61.5753 207.846 62.8124V85.3866C207.846 86.6237 206.822 87.6475 205.585 87.6475H195.432C194.195 87.6475 193.172 86.6237 193.172 85.3866Z" fill="#A9D379"/>
</g>
<defs>
<clipPath id="clip0">
<rect width="248" height="136" fill="white"/>
</clipPath>
</defs>
</svg>
