<svg xmlns="http://www.w3.org/2000/svg" width="156" height="156" fill="none" viewBox="0 0 156 156"><g clip-path="url(#a)"><path fill="#A9D379" d="M78 34a44 44 0 1 1 0 88 44 44 0 0 1 0-88Z"/><path fill="#FFD875" d="M91.23 79.42c0 14.4-13.5 17.73-13.5 17.73s-13.5-3.33-13.5-17.73c0-1.06.11-2.03.3-2.93.2-.89.48-1.7.85-2.43a65.96 65.96 0 0 1 24.7 0c.37.74.66 1.54.85 2.43.2.9.3 1.87.3 2.93Z"/><path fill="#995C0D" d="M77.93 67.1h-.03c-.4-.01-.7-.37-.69-.8 0-.02.07-1.87-.47-3.79-.68-2.4-1.98-3.8-3.86-4.12-.4-.06-.66-.46-.6-.88.07-.42.44-.7.83-.63 2.45.42 4.2 2.23 5.03 5.23.6 2.16.52 4.18.52 4.26a.74.74 0 0 1-.73.74Z"/><path fill="#B27214" d="M92.47 72.98c0 .48-.05.97-.15 1.47a67.75 67.75 0 0 0-14.48-1.55 68.32 68.32 0 0 0-14.49 1.55c-.83-4.18 1.98-8.19 6.04-8.65a75.21 75.21 0 0 1 16.9 0 7.12 7.12 0 0 1 6.18 7.18Z"/><path fill="#995C0D" d="M75.46 65.8a75.9 75.9 0 0 1 5.47-.41 75.92 75.92 0 0 0-11.51.41c-4.08.46-6.9 4.47-6.07 8.65a68.44 68.44 0 0 1 5.91-1 7.15 7.15 0 0 1 6.2-7.65Z"/><path fill="#313137" fill-opacity=".5" d="m156.2 80.3-.48 4.81a8.82 8.82 0 0 1-1.23 3.85 6.06 6.06 0 0 1-2.63 2.36c-1.09.5-2.33.68-3.73.54-2.3-.23-3.97-1.08-5.02-2.54-1.04-1.45-1.44-3.37-1.2-5.76l.47-4.64 13.82 1.39Zm-11.8 3.67c-.14 1.41.15 2.54.87 3.37a4.6 4.6 0 0 0 3.17 1.45c.83.09 1.59 0 2.28-.27.7-.26 1.26-.69 1.69-1.28.43-.6.7-1.33.78-2.18l.2-2-8.8-.89-.18 1.8ZM152.7 101.13l-.91 2.81-14.93 1.05.94-2.94 3.24-.21 1.68-5.24-2.5-2.06.94-2.95 11.53 9.53Zm-9.12.69 5.63-.26-4.43-3.5-1.2 3.76ZM132.88 111.2a7.93 7.93 0 0 1 2.72-2.8c1.1-.67 2.28-1 3.55-1s2.52.36 3.74 1.08a7.28 7.28 0 0 1 2.76 2.76c.62 1.12.9 2.31.85 3.6a7.92 7.92 0 0 1-1.14 3.73 7.68 7.68 0 0 1-2.7 2.77c-1.1.66-2.28.99-3.56.99a7.28 7.28 0 0 1-3.75-1.08 6.83 6.83 0 0 1-3.6-6.35 7.7 7.7 0 0 1 1.13-3.7Zm2.4 1.41a4.4 4.4 0 0 0-.64 2.14 4.1 4.1 0 0 0 .54 2.14 4.7 4.7 0 0 0 1.74 1.7c.76.45 1.53.68 2.3.69a3.8 3.8 0 0 0 2.12-.55c.65-.37 1.18-.9 1.59-1.6.42-.7.63-1.44.65-2.2a3.97 3.97 0 0 0-.54-2.12 4.56 4.56 0 0 0-1.71-1.68 4.71 4.71 0 0 0-2.33-.7 4.1 4.1 0 0 0-2.14.56c-.64.39-1.17.93-1.58 1.62ZM126.33 140.28l-4 2.7a8.85 8.85 0 0 1-3.75 1.51c-1.25.17-2.41 0-3.5-.52a7.06 7.06 0 0 1-2.8-2.53c-1.28-1.91-1.7-3.74-1.25-5.48.46-1.73 1.68-3.26 3.67-4.6l3.87-2.6 7.76 11.52Zm-10.36-6.74c-1.17.8-1.85 1.73-2.03 2.81a4.6 4.6 0 0 0 .9 3.37c.46.7 1.02 1.22 1.66 1.59.65.36 1.34.52 2.07.47a4.38 4.38 0 0 0 2.18-.79l1.66-1.12-4.93-7.34-1.5 1.01ZM107.99 150.89l-2.75 1.1-10.32-10.83 2.86-1.15 2.23 2.36 5.11-2.05-.02-3.25 2.88-1.15v14.97Zm-6.35-6.58 3.8 4.17-.14-5.64-3.66 1.47ZM87.6 142.04a7.93 7.93 0 0 1 3.89.3 6.82 6.82 0 0 1 3.03 2.1 7.29 7.29 0 0 1 1.56 3.58c.22 1.4.1 2.7-.37 3.88a6.8 6.8 0 0 1-2.23 2.95 7.93 7.93 0 0 1-3.6 1.5 7.69 7.69 0 0 1-3.86-.31 6.8 6.8 0 0 1-3.03-2.12 7.29 7.29 0 0 1-1.56-3.57c-.22-1.4-.1-2.7.37-3.89a6.83 6.83 0 0 1 2.23-2.93 7.7 7.7 0 0 1 3.57-1.5Zm.43 2.75c-.78.12-1.47.41-2.05.87a4.11 4.11 0 0 0-1.3 1.78 4.7 4.7 0 0 0-.2 2.42c.13.88.45 1.61.93 2.2a3.8 3.8 0 0 0 1.77 1.3c.7.26 1.45.33 2.25.2a4.5 4.5 0 0 0 2.11-.9 3.97 3.97 0 0 0 1.29-1.77c.28-.72.34-1.51.2-2.39a4.7 4.7 0 0 0-.94-2.25 4.1 4.1 0 0 0-1.8-1.28 4.57 4.57 0 0 0-2.26-.18ZM60.77 155.48l-4.62-1.38a8.84 8.84 0 0 1-3.55-1.94 6.07 6.07 0 0 1-1.81-3.03 7.07 7.07 0 0 1 .17-3.77c.66-2.2 1.81-3.69 3.45-4.44 1.62-.75 3.58-.78 5.88-.09l4.47 1.34-3.99 13.31Zm-1.36-12.28c-1.36-.4-2.51-.33-3.46.21a4.6 4.6 0 0 0-2.04 2.84c-.24.8-.3 1.56-.17 2.3.13.72.45 1.35.95 1.9.5.53 1.17.92 2 1.17l1.91.58 2.54-8.48-1.73-.52ZM40.98 148.05l-2.6-1.42 1.8-14.86 2.7 1.48-.4 3.23 4.84 2.64 2.5-2.08 2.71 1.49-11.55 9.52Zm1.05-9.08-.81 5.58 4.26-3.7-3.45-1.88ZM34.87 126.68a7.92 7.92 0 0 1 2.24 3.2 6.83 6.83 0 0 1-1.46 7.15 7.29 7.29 0 0 1-3.23 2.18 6.8 6.8 0 0 1-3.7.16c-1.25-.3-2.4-.9-3.44-1.83a7.7 7.7 0 0 1-2.21-3.17 6.79 6.79 0 0 1-.3-3.68 7.29 7.29 0 0 1 1.77-3.48 7.29 7.29 0 0 1 3.23-2.18 6.83 6.83 0 0 1 3.68-.15 7.7 7.7 0 0 1 3.42 1.8Zm-1.84 2.09a4.42 4.42 0 0 0-1.98-1.03 4.1 4.1 0 0 0-2.2.12 4.7 4.7 0 0 0-2 1.39 4.56 4.56 0 0 0-1.11 2.13 3.8 3.8 0 0 0 .14 2.18c.24.71.66 1.33 1.27 1.87s1.29.9 2.03 1.06c.73.16 1.46.11 2.2-.14.72-.24 1.37-.7 1.96-1.36.6-.68.98-1.4 1.14-2.16a4.1 4.1 0 0 0-.15-2.2c-.26-.7-.7-1.32-1.3-1.86ZM7.57 114.77l-1.89-4.44a8.83 8.83 0 0 1-.77-3.97 6.06 6.06 0 0 1 1.19-3.33 7.07 7.07 0 0 1 3-2.27c2.13-.9 4-.96 5.63-.18 1.6.78 2.88 2.27 3.81 4.48l1.82 4.3-12.8 5.41Zm8.59-8.88c-.56-1.3-1.35-2.15-2.37-2.53a4.6 4.6 0 0 0-3.48.24c-.77.33-1.4.77-1.88 1.33a3.64 3.64 0 0 0-.86 1.94c-.1.73.03 1.5.36 2.29l.78 1.85 8.15-3.45-.7-1.67ZM.65 94.76.1 91.85l12.6-8.05.59 3.02-2.75 1.74 1.03 5.4 3.2.61.58 3.05-14.7-2.86Zm7.68-4.97L3.5 92.72l5.57.94-.74-3.87ZM13.22 76.31a7.92 7.92 0 0 1-1.05 3.77 6.83 6.83 0 0 1-6.44 3.41 7.29 7.29 0 0 1-3.74-1.1 6.79 6.79 0 0 1-2.47-2.75 7.92 7.92 0 0 1-.79-3.83A7.7 7.7 0 0 1-.22 72.1a6.79 6.79 0 0 1 2.65-2.57c1.13-.62 2.4-.9 3.81-.85a6.83 6.83 0 0 1 6.2 3.85 7.7 7.7 0 0 1 .78 3.8Zm-2.78-.1c.02-.79-.13-1.51-.47-2.18a4.1 4.1 0 0 0-1.49-1.62 4.7 4.7 0 0 0-2.34-.66 4.55 4.55 0 0 0-2.35.5 3.8 3.8 0 0 0-1.6 1.5c-.4.63-.6 1.35-.63 2.16-.03.82.13 1.57.47 2.24.34.66.84 1.2 1.5 1.6.65.41 1.42.63 2.3.66.9.03 1.7-.13 2.39-.49a4.1 4.1 0 0 0 1.6-1.52c.38-.65.59-1.37.62-2.18ZM4.98 47.75l2.24-4.28a8.83 8.83 0 0 1 2.57-3.12 6.06 6.06 0 0 1 3.32-1.2c1.2-.06 2.42.24 3.66.89 2.05 1.06 3.28 2.47 3.71 4.23.43 1.73.09 3.66-1.03 5.78L17.3 54.2 4.98 47.75Zm12.31 1c.66-1.27.8-2.41.45-3.45a4.6 4.6 0 0 0-2.4-2.53 4.96 4.96 0 0 0-2.21-.6 3.64 3.64 0 0 0-2.05.56c-.63.4-1.14.97-1.54 1.74l-.93 1.77 7.84 4.1.84-1.6ZM15.92 29.8l1.89-2.29 14.24 4.58-1.96 2.38-3.1-1.01-3.5 4.24 1.57 2.85-1.98 2.39-7.16-13.15Zm8.72 2.74-5.33-1.85 2.82 4.88 2.5-3.03ZM38 27.77a7.92 7.92 0 0 1-3.56 1.6 6.83 6.83 0 0 1-6.75-2.78A7.29 7.29 0 0 1 26.15 23a6.8 6.8 0 0 1 .54-3.65 7.92 7.92 0 0 1 2.45-3.05 7.7 7.7 0 0 1 3.53-1.57 6.79 6.79 0 0 1 3.67.4 7.29 7.29 0 0 1 3.08 2.39 6.83 6.83 0 0 1 .99 7.23A7.7 7.7 0 0 1 38 27.76Zm-1.7-2.2a4.41 4.41 0 0 0 1.38-1.76c.3-.7.4-1.42.3-2.18a4.7 4.7 0 0 0-1-2.23 4.55 4.55 0 0 0-1.87-1.48 3.8 3.8 0 0 0-2.18-.28c-.74.1-1.43.4-2.07.9-.65.5-1.12 1.1-1.42 1.8-.3.68-.39 1.4-.28 2.17.1.76.43 1.5.97 2.2a4.7 4.7 0 0 0 1.9 1.51c.71.3 1.44.38 2.2.27a4.57 4.57 0 0 0 2.07-.93ZM55.16 3l4.72-1a8.83 8.83 0 0 1 4.05 0c1.21.31 2.23.91 3.04 1.8a7.07 7.07 0 0 1 1.64 3.39c.48 2.25.18 4.1-.9 5.55-1.07 1.43-2.77 2.4-5.12 2.89l-4.57.96-2.86-13.6Zm7.07 10.12c1.38-.29 2.36-.9 2.94-1.84a4.6 4.6 0 0 0 .43-3.46 4.95 4.95 0 0 0-.95-2.1 3.64 3.64 0 0 0-1.74-1.21 4.38 4.38 0 0 0-2.31-.08l-1.97.41 1.83 8.66 1.77-.38ZM76.18.02l2.97.01 5.49 13.92-3.08-.01-1.18-3.03-5.5-.02-1.21 3.02-3.1-.02L76.18.02ZM79.6 8.5l-1.95-5.3-1.98 5.29 3.93.01ZM91.86 15.83a7.92 7.92 0 0 1-3.5-1.74 6.83 6.83 0 0 1-2.12-6.98 7.29 7.29 0 0 1 1.8-3.46 6.79 6.79 0 0 1 3.17-1.9 7.92 7.92 0 0 1 3.9-.04c1.36.31 2.51.9 3.46 1.74a6.8 6.8 0 0 1 2.02 3.1c.39 1.21.42 2.51.1 3.9a6.83 6.83 0 0 1-4.96 5.34 7.7 7.7 0 0 1-3.87.04Zm.62-2.71c.78.18 1.52.17 2.24-.04a4.1 4.1 0 0 0 1.88-1.15c.52-.58.89-1.3 1.09-2.18.2-.87.18-1.66-.04-2.4a3.8 3.8 0 0 0-1.16-1.86 4.33 4.33 0 0 0-2-1.03 4.48 4.48 0 0 0-2.3.04c-.72.2-1.34.6-1.86 1.17a4.55 4.55 0 0 0-1.09 2.13c-.2.88-.19 1.7.03 2.44a4.1 4.1 0 0 0 1.19 1.86c.56.5 1.24.84 2.02 1.02ZM126.31 16.74l3.54 3.29a8.83 8.83 0 0 1 2.33 3.3c.44 1.18.54 2.35.28 3.52a7.08 7.08 0 0 1-1.82 3.3c-1.57 1.69-3.26 2.51-5.06 2.46-1.78-.04-3.55-.88-5.31-2.52l-3.42-3.18 9.46-10.17Zm-4.2 11.61c1.03.97 2.1 1.42 3.2 1.35a4.6 4.6 0 0 0 3.07-1.65c.57-.6.96-1.27 1.17-1.98.2-.71.2-1.42-.01-2.12a4.38 4.38 0 0 0-1.27-1.94l-1.47-1.37-6.02 6.48 1.33 1.23ZM140.99 32.35l1.7 2.43-8.2 12.5-1.77-2.52 1.79-2.7-3.16-4.52-3.16.76-1.78-2.54 14.58-3.4Zm-4.97 7.67 3.2-4.64-5.46 1.42 2.26 3.22ZM136.97 54.06a7.92 7.92 0 0 1-.6-3.86 6.83 6.83 0 0 1 1.35-3.43 7.28 7.28 0 0 1 3.13-2.34 7.29 7.29 0 0 1 3.86-.53c1.27.19 2.4.68 3.39 1.5 1 .82 1.75 1.87 2.28 3.16a7.7 7.7 0 0 1 .58 3.82 6.79 6.79 0 0 1-1.36 3.44 7.28 7.28 0 0 1-3.13 2.34c-1.31.53-2.6.71-3.86.53a6.83 6.83 0 0 1-3.37-1.5 7.7 7.7 0 0 1-2.27-3.13Zm2.58-1.06c.3.74.74 1.34 1.32 1.8.6.48 1.27.76 2.03.87a4.7 4.7 0 0 0 2.4-.37c.82-.33 1.47-.8 1.94-1.41.48-.6.76-1.27.84-2.02.1-.74 0-1.49-.31-2.24a4.49 4.49 0 0 0-1.36-1.85 3.97 3.97 0 0 0-2.02-.84c-.76-.1-1.55 0-2.37.35-.84.34-1.5.81-1.97 1.43a4.1 4.1 0 0 0-.84 2.04c-.08.75.03 1.5.34 2.24Z"/></g><defs><clipPath id="a"><path fill="#fff" d="M0 0h156v156H0z"/></clipPath></defs></svg>