<svg xmlns="http://www.w3.org/2000/svg" width="156" height="156" fill="none" viewBox="0 0 156 156"><path fill="#A9D379" d="M78 34a44 44 0 1 1 0 88 44 44 0 0 1 0-88Z"/><path fill="#FFD875" d="M91.23 79.42c0 14.4-13.5 17.73-13.5 17.73s-13.5-3.33-13.5-17.73c0-1.06.11-2.03.3-2.93.2-.89.48-1.7.85-2.43a65.96 65.96 0 0 1 24.7 0c.37.74.66 1.54.85 2.43.2.9.3 1.87.3 2.93Z"/><path fill="#995C0D" d="M77.93 67.1h-.03c-.4-.02-.7-.37-.69-.8 0-.02.07-1.87-.47-3.79-.68-2.4-1.98-3.8-3.86-4.12-.4-.06-.66-.46-.6-.88.07-.42.44-.7.83-.63 2.45.42 4.2 2.23 5.03 5.23.6 2.16.52 4.18.52 4.26a.74.74 0 0 1-.73.74Z"/><path fill="#B27214" d="M92.47 72.98c0 .48-.05.97-.15 1.47a67.75 67.75 0 0 0-14.48-1.55 68.32 68.32 0 0 0-14.49 1.55c-.83-4.18 1.98-8.19 6.04-8.65a75.21 75.21 0 0 1 16.9 0 7.12 7.12 0 0 1 6.18 7.18Z"/><path fill="#995C0D" d="M75.46 65.8c1.82-.2 3.64-.34 5.47-.41a75.92 75.92 0 0 0-11.51.41c-4.08.46-6.9 4.47-6.07 8.65a68.44 68.44 0 0 1 5.91-1 7.15 7.15 0 0 1 6.2-7.65Z"/><path fill="#313137" fill-opacity=".5" d="m156 80.1-.78 9.6-2.51-.2.53-6.59-3.2-.26-.4 4.85-2.4-.2.39-4.85-3.19-.25-.53 6.58-2.51-.2.78-9.6L156 80.12ZM145.15 94.28l5.42-2.51-.85 3.24-3.04 1.4 1.95 2.73-.85 3.24-3.48-4.87-5.8 2.7.84-3.2 3.44-1.63-2.2-3.08.85-3.22 3.72 5.2ZM136.2 104.57a4.49 4.49 0 0 1 2-2.22c.85-.4 1.73-.4 2.66.04a3.02 3.02 0 0 1 1.78 2c.24.88.1 1.9-.45 3.07-.24.52-.53.98-.85 1.4-.33.42-.67.76-1.03 1.03l.21.1c.54.25 1.03.24 1.46-.02.43-.27.83-.8 1.2-1.59a7.8 7.8 0 0 0 .77-3.19l1.98.93c-.02.46-.11 1.02-.29 1.68-.16.67-.4 1.31-.68 1.92-.73 1.56-1.6 2.57-2.6 3.03-1 .47-2.06.44-3.22-.1l-5.24-2.45 1.19-2.55.8.36a4.48 4.48 0 0 1 .3-3.44Zm1.45 1.58c-.2.44-.3.88-.31 1.32 0 .44.1.83.3 1.17l.87.4c.7-.41 1.21-.99 1.55-1.72.24-.5.31-.94.22-1.32-.08-.36-.32-.63-.73-.82a1.16 1.16 0 0 0-1.06-.02c-.33.17-.6.5-.84.99ZM141.33 116.82l-1.69 2.23-.92-.7c.12.62.12 1.21 0 1.8-.13.58-.37 1.1-.72 1.57-.44.58-.88.97-1.34 1.18-.44.2-.92.28-1.43.2.1.6.07 1.2-.09 1.8a4.73 4.73 0 0 1-.78 1.63c-.73.97-1.5 1.48-2.3 1.51-.82.05-1.7-.28-2.64-1l-4.94-3.72 1.72-2.28 4.6 3.48c.5.37.91.53 1.27.5.35-.03.7-.25 1.01-.68.45-.59.57-1.24.38-1.95-.35-.23-.64-.43-.85-.59l-4.45-3.36 1.74-2.3 4.69 3.55c.46.35.85.5 1.17.48.32 0 .63-.2.93-.6.47-.63.54-1.45.2-2.47l-4.9-3.71 1.74-2.31 7.6 5.74ZM129.52 131.45l-2.21 1.87-.68-.8a5.04 5.04 0 0 1-1.86 3.34 5.25 5.25 0 0 1-2.41 1.2c-.85.19-1.69.12-2.5-.2a5.3 5.3 0 0 1-2.2-1.6 5.38 5.38 0 0 1-1.21-2.42c-.17-.86-.1-1.7.2-2.54.3-.8.83-1.53 1.59-2.17a6.17 6.17 0 0 1 1.66-1.02 4.4 4.4 0 0 1 1.73-.34l-3.35-3.97 2.28-1.94 8.96 10.6Zm-9.2-2.02a2.66 2.66 0 0 0-1 1.84c-.08.72.15 1.4.68 2.02.53.63 1.15.96 1.86 1a2.7 2.7 0 0 0 1.97-.7 2.9 2.9 0 0 0 .92-3.14l-1.17-1.38a2.63 2.63 0 0 0-1.65-.35 3 3 0 0 0-1.6.71ZM121.3 144.47l-2.53 1.6-7.87-12.37 2.53-1.6 7.87 12.37ZM104.51 136.76c1.65-.78 3.14-1 4.45-.66a4.6 4.6 0 0 1 3 2.69 5 5 0 0 1 .34 3.97c-.46 1.22-1.47 2.2-3.04 2.95-1.03.48-1.99.7-2.89.66a4.3 4.3 0 0 1-2.38-.83 5.12 5.12 0 0 1-1.64-2.01l-.51-1.1 7.1-3.35c-.7-1.01-2-1.08-3.86-.2a11.62 11.62 0 0 0-2.98 2.07l-.9-1.9c.34-.38.8-.78 1.41-1.2.61-.42 1.24-.78 1.9-1.1Zm.72 6.22c.31.56.73.9 1.28 1.02.54.14 1.16.04 1.86-.28a2.74 2.74 0 0 0 1.38-1.25c.25-.51.25-1.06.02-1.63l-4.54 2.14ZM78.87 157l-9.62-.42.11-2.51 6.6.28.14-3.22-4.86-.2.1-2.42 4.86.2.14-3.19-6.6-.28.1-2.51 9.62.4-.6 13.86ZM64.16 146.66l2.72 5.32-3.27-.73-1.51-2.98-2.65 2.05-3.28-.72 4.74-3.67-2.92-5.69 3.23.72 1.75 3.38 3-2.32 3.25.72-5.06 3.92ZM53.62 138.12a4.49 4.49 0 0 1 2.3 1.91c.43.84.45 1.72.05 2.66a3.02 3.02 0 0 1-1.92 1.86c-.88.27-1.91.16-3.1-.34-.52-.22-1-.49-1.42-.8a5.55 5.55 0 0 1-1.07-.99l-.1.22c-.22.55-.2 1.03.08 1.45.28.42.83.8 1.63 1.15a7.8 7.8 0 0 0 3.22.64l-.85 2.01a10.49 10.49 0 0 1-3.64-.83c-1.58-.66-2.63-1.5-3.13-2.48a3.63 3.63 0 0 1-.02-3.22l2.26-5.33 2.6 1.1-.34.8c1.04-.4 2.2-.34 3.45.19Zm-1.52 1.5a3.1 3.1 0 0 0-1.34-.25c-.43.01-.82.13-1.16.35l-.37.87a3.92 3.92 0 0 0 1.79 1.49c.5.22.95.27 1.32.17.36-.09.63-.34.8-.76.17-.39.16-.74-.02-1.06a2 2 0 0 0-1.02-.8ZM41.6 143.72l-2.3-1.6.66-.95c-.6.14-1.2.16-1.79.06a3.97 3.97 0 0 1-1.6-.66c-.6-.42-1-.85-1.22-1.3-.23-.43-.32-.9-.27-1.42a4.2 4.2 0 0 1-1.8-.02 4.74 4.74 0 0 1-1.65-.72c-1-.7-1.53-1.45-1.6-2.26-.07-.8.23-1.7.9-2.66l3.55-5.07 2.35 1.63-3.32 4.74c-.34.5-.5.92-.45 1.27.04.36.28.69.71.99.6.42 1.26.53 1.97.3l.55-.86 3.2-4.57 2.36 1.65-3.37 4.81c-.33.48-.48.88-.44 1.2.01.31.23.62.64.9.64.45 1.46.49 2.47.11l3.53-5.04 2.37 1.66-5.46 7.8ZM26.56 132.5l-1.95-2.15.78-.7a5.04 5.04 0 0 1-3.4-1.74 5.26 5.26 0 0 1-1.3-2.37 4.34 4.34 0 0 1 .11-2.5 5.3 5.3 0 0 1 1.53-2.25 5.37 5.37 0 0 1 2.37-1.3 4.6 4.6 0 0 1 2.54.1c.82.27 1.57.77 2.23 1.5.46.5.82 1.05 1.08 1.63.26.59.4 1.16.41 1.72l3.85-3.5 2.01 2.22-10.26 9.33Zm1.69-9.27a2.66 2.66 0 0 0-1.88-.94 2.65 2.65 0 0 0-1.99.76 2.58 2.58 0 0 0-.15 3.84 2.91 2.91 0 0 0 3.16.8l1.34-1.22c.28-.52.37-1.07.29-1.66a3 3 0 0 0-.77-1.58ZM13.33 124.87l-1.7-2.46 12.04-8.36 1.7 2.46-12.04 8.36ZM20.36 107.77c.84 1.62 1.1 3.1.82 4.43a4.6 4.6 0 0 1-2.58 3.1 5 5 0 0 1-3.95.48c-1.24-.41-2.26-1.39-3.06-2.93a6.09 6.09 0 0 1-.77-2.86c.01-.9.26-1.7.74-2.42a5.11 5.11 0 0 1 1.95-1.7l1.08-.56 3.61 6.97c.99-.74 1-2.03.05-3.86-.28-.55-.61-1.08-1-1.6-.4-.53-.79-.96-1.17-1.3l1.87-.97c.39.32.8.78 1.24 1.37.44.59.83 1.2 1.17 1.85Zm-6.2.95c-.54.33-.86.77-.97 1.31-.12.55 0 1.17.36 1.85.34.67.78 1.12 1.3 1.34.51.22 1.06.21 1.63-.04l-2.31-4.46ZM-.88 83.02l.04-9.62h2.52l-.02 6.62h3.21l.02-4.85h2.42l-.02 4.87 3.2.01.02-6.6h2.52L13 83.08l-13.88-.06ZM8.85 67.97 3.64 70.9l.6-3.3 2.92-1.62-2.15-2.57.6-3.3 3.84 4.6 5.58-3.14-.6 3.26-3.3 1.87 2.43 2.91-.6 3.28-4.1-4.9ZM17.01 56.93a4.49 4.49 0 0 1-1.83 2.36c-.81.47-1.7.52-2.65.16-.99-.38-1.63-1-1.93-1.86-.3-.86-.23-1.9.22-3.1.2-.53.45-1.02.75-1.46.3-.44.61-.8.95-1.1l-.22-.08c-.56-.21-1.04-.17-1.45.13-.41.3-.77.85-1.08 1.67a7.8 7.8 0 0 0-.53 3.23l-2.04-.77a10.5 10.5 0 0 1 .69-3.66c.6-1.61 1.4-2.69 2.37-3.22a3.63 3.63 0 0 1 3.21-.14l5.42 2.05-1 2.64-.82-.31a4.48 4.48 0 0 1-.06 3.46Zm-1.57-1.47c.18-.46.25-.9.22-1.34a2.25 2.25 0 0 0-.4-1.15l-.89-.34a3.92 3.92 0 0 0-1.42 1.84c-.2.52-.23.97-.12 1.34.1.35.37.6.8.76.39.15.74.13 1.06-.06a2 2 0 0 0 .75-1.05ZM10.78 45.42l1.5-2.35.98.62a4.32 4.32 0 0 1-.13-1.78c.08-.6.28-1.14.59-1.63.4-.6.8-1.03 1.24-1.27.43-.25.9-.36 1.41-.33a4.19 4.19 0 0 1-.05-1.8c.13-.62.34-1.18.66-1.67.65-1.03 1.38-1.59 2.19-1.69.8-.1 1.7.15 2.7.79l5.2 3.34-1.54 2.4-4.86-3.11c-.5-.33-.94-.46-1.3-.4-.34.05-.66.3-.95.75-.4.62-.47 1.28-.23 1.97.37.2.67.38.9.53l4.69 3-1.56 2.43-4.94-3.17c-.49-.32-.9-.45-1.2-.4-.33.03-.62.26-.9.68-.41.66-.42 1.48 0 2.47l5.18 3.33-1.56 2.43-8.02-5.14ZM21.36 29.91l2.06-2.03.74.75a5.04 5.04 0 0 1 1.6-3.47c.7-.7 1.48-1.16 2.31-1.39a4.33 4.33 0 0 1 2.51 0c.83.25 1.6.72 2.3 1.44.7.7 1.17 1.48 1.4 2.32a4.6 4.6 0 0 1 0 2.54c-.24.84-.71 1.6-1.42 2.3-.48.47-1 .85-1.58 1.13-.57.3-1.14.45-1.7.48l3.65 3.7-2.13 2.11-9.74-9.88Zm9.32 1.32c.58-.57.87-1.2.87-1.92a2.65 2.65 0 0 0-.84-1.96 2.58 2.58 0 0 0-1.93-.85c-.7 0-1.34.29-1.91.85a2.9 2.9 0 0 0-.67 3.2l1.27 1.29c.53.25 1.08.33 1.66.22a3 3 0 0 0 1.55-.83ZM28.65 16.19l2.4-1.8 8.8 11.73-2.4 1.8-8.8-11.73ZM46.09 22.5c-1.6.9-3.06 1.23-4.4.99a4.6 4.6 0 0 1-3.19-2.46 5 5 0 0 1-.63-3.93c.37-1.26 1.3-2.31 2.82-3.17a6.09 6.09 0 0 1 2.83-.87c.9-.02 1.71.2 2.44.65a5.12 5.12 0 0 1 1.78 1.89l.6 1.05-6.84 3.87c.78.96 2.07.93 3.87-.1a11.69 11.69 0 0 0 2.81-2.27l1.04 1.83c-.3.4-.75.83-1.32 1.3-.58.46-1.18.87-1.81 1.23Zm-1.18-6.14c-.35-.54-.8-.85-1.35-.93-.55-.1-1.17.05-1.83.42-.66.38-1.09.82-1.3 1.35-.2.53-.16 1.07.1 1.63l4.38-2.47ZM69.4.4l9.62-.38.1 2.52-6.6.25.12 3.21 4.85-.18.1 2.42-4.86.18.12 3.2 6.6-.26.1 2.52-9.61.37L69.4.4ZM85.28 9.48l-3.11-5.1 3.32.48 1.73 2.86 2.49-2.25 3.32.47-4.45 4.02 3.35 5.45-3.28-.47-2-3.24-2.81 2.55-3.3-.48 4.74-4.29ZM96.41 17.12a4.49 4.49 0 0 1-2.43-1.74c-.5-.79-.6-1.67-.27-2.64.33-1 .92-1.67 1.77-2a4.47 4.47 0 0 1 3.1.1c.55.17 1.04.4 1.5.68.45.27.83.57 1.14.9l.07-.23c.19-.56.13-1.04-.19-1.44a3.6 3.6 0 0 0-1.71-1 7.8 7.8 0 0 0-3.26-.4l.7-2.07a10.5 10.5 0 0 1 3.69.54c1.62.54 2.73 1.28 3.3 2.23.59.93.68 2 .28 3.2l-1.83 5.5-2.68-.89.28-.83a4.48 4.48 0 0 1-3.46.09Zm1.4-1.63c.46.15.91.2 1.35.16.43-.05.81-.2 1.13-.44l.3-.9a3.92 3.92 0 0 0-1.9-1.35c-.52-.17-.97-.2-1.33-.07-.35.12-.6.4-.74.82-.13.4-.1.76.11 1.06a2 2 0 0 0 1.08.72ZM108.13 10.61l2.41 1.43-.58.99a4.32 4.32 0 0 1 1.77-.2c.6.06 1.14.24 1.65.53.62.37 1.06.77 1.32 1.2.26.42.38.88.37 1.4.58-.17 1.18-.2 1.8-.12.63.1 1.2.3 1.7.6 1.05.61 1.64 1.32 1.76 2.12.14.8-.09 1.71-.69 2.72l-3.14 5.34-2.46-1.46 2.93-4.97c.31-.52.43-.96.36-1.3-.07-.36-.33-.67-.79-.94a2.14 2.14 0 0 0-1.98-.15l-.49.9-2.84 4.8-2.47-1.46 2.98-5.05c.3-.5.42-.91.36-1.22-.05-.32-.28-.6-.72-.86-.67-.4-1.5-.37-2.47.08l-3.13 5.3-2.5-1.48 4.85-8.2ZM124.08 20.68l2.1 1.99-.72.76c1.32.01 2.5.5 3.53 1.47a5.27 5.27 0 0 1 1.47 2.26c.28.83.3 1.66.08 2.51a5.3 5.3 0 0 1-1.34 2.36 5.38 5.38 0 0 1-2.28 1.48 4.6 4.6 0 0 1-2.54.09 5.26 5.26 0 0 1-2.34-1.34 6.17 6.17 0 0 1-1.2-1.53 4.37 4.37 0 0 1-.53-1.69l-3.57 3.79-2.18-2.06 9.52-10.09Zm-.98 9.36c.59.56 1.24.82 1.95.8a2.65 2.65 0 0 0 1.92-.9 2.58 2.58 0 0 0-.14-3.85 2.9 2.9 0 0 0-3.21-.55l-1.24 1.31c-.24.54-.3 1.1-.16 1.68a3 3 0 0 0 .88 1.51ZM137.76 27.13l1.89 2.32-11.37 9.26-1.9-2.32 11.38-9.26ZM132.14 44.78c-.96-1.55-1.35-3-1.16-4.35a4.6 4.6 0 0 1 2.33-3.29 5 5 0 0 1 3.9-.78c1.27.31 2.37 1.2 3.28 2.68.6.97.93 1.9.99 2.8a4.3 4.3 0 0 1-.55 2.46 5.12 5.12 0 0 1-1.82 1.85l-1.02.64-4.15-6.67c-.92.82-.84 2.1.25 3.86a11.68 11.68 0 0 0 2.39 2.72l-1.79 1.1a7.81 7.81 0 0 1-1.34-1.26 13.5 13.5 0 0 1-1.3-1.76Zm6.1-1.42c.52-.37.81-.83.87-1.39.07-.56-.1-1.16-.5-1.81a2.73 2.73 0 0 0-1.4-1.24 1.97 1.97 0 0 0-1.62.17l2.65 4.27Z"><animateTransform attributeName="transform" attributeType="XML" type="rotate" from="0 78 78" to="-360 78 78" dur="60s" begin="0s" repeatCount="indefinite" fill="freeze"/></path></svg>