<svg width="156" height="156" viewBox="0 0 156 156" fill="none" xmlns="http://www.w3.org/2000/svg">
<g clip-path="url(#clip0)">
<path d="M78 34C102.3 34 122 53.6995 122 78C122 102.3 102.3 122 78 122C53.6995 122 34 102.3 34 78C34 53.6995 53.6995 34 78 34Z" fill="#A9D379"/>
<path d="M91.2301 79.421C91.2301 93.8212 77.7333 97.1545 77.7333 97.1545C77.7333 97.1545 64.2363 93.8212 64.2363 79.421C64.2363 78.3623 64.3397 77.3859 64.5361 76.4875C64.7296 75.6035 65.0132 74.7967 65.3774 74.0607C69.4644 73.2816 73.5988 72.8931 77.7333 72.8931C81.8677 72.8931 86.0021 73.2816 90.0892 74.0607C90.4534 74.7967 90.7369 75.6035 90.9305 76.4875C91.1268 77.3858 91.2301 78.3623 91.2301 79.421Z" fill="#FFD875"/>
<path d="M77.9349 67.1055C77.9235 67.1055 77.9122 67.1052 77.9008 67.1047C77.5026 67.0849 77.1948 66.7257 77.2129 66.302C77.2136 66.2834 77.2839 64.4261 76.7427 62.51C76.0627 60.1024 74.7633 58.7176 72.8806 58.3942C72.4869 58.3266 72.2192 57.932 72.2828 57.5129C72.3463 57.0939 72.7172 56.8091 73.1109 56.8766C75.5627 57.2978 77.3008 59.1067 78.1373 62.1077C78.7397 64.2693 78.6595 66.2878 78.6558 66.3727C78.6377 66.7845 78.3183 67.1055 77.9349 67.1055Z" fill="#995C0D"/>
<path d="M92.4675 72.9758C92.4675 73.4611 92.42 73.9544 92.3222 74.4506C91.6171 74.2977 90.9091 74.1558 90.2011 74.0258C86.1116 73.2735 81.9747 72.8983 77.8377 72.8983C73.7008 72.8983 69.5639 73.2735 65.4744 74.0258C64.7654 74.1558 64.0584 74.2977 63.3523 74.4506C62.5247 70.2703 65.3263 66.2596 69.3855 65.8011C75.0039 65.1659 80.6707 65.1659 86.2891 65.8011C89.8671 66.205 92.4675 69.3691 92.4675 72.9758Z" fill="#B27214"/>
<path d="M75.4553 65.8004C77.2756 65.5955 79.101 65.4578 80.9282 65.385C77.0885 65.2321 73.2408 65.3699 69.4154 65.8004C65.3366 66.2589 62.5214 70.2699 63.353 74.4506C64.0625 74.2977 64.773 74.1558 65.4854 74.0258C66.7408 73.7959 68.0008 73.6016 69.2639 73.4421C69.0271 69.645 71.7062 66.2219 75.4553 65.8004Z" fill="#995C0D"/>
<path d="M156 80.1079L155.221 89.7006L152.709 89.4966L153.244 82.9104L150.04 82.6503L149.647 87.496L147.234 87.3002L147.627 82.4544L144.443 82.1959L143.908 88.7822L141.396 88.5783L142.175 78.9856L156 80.1079Z" fill="#313137" fill-opacity="0.5"/>
<path d="M145.147 94.2811L150.568 91.7667L149.715 95.0101L146.681 96.4078L148.631 99.1364L147.778 102.38L144.299 97.5054L138.501 100.208L139.343 97.0027L142.785 95.3837L140.579 92.3008L141.427 89.0765L145.147 94.2811Z" fill="#313137" fill-opacity="0.5"/>
<path d="M136.199 104.571C136.692 103.517 137.359 102.777 138.2 102.353C139.048 101.946 139.933 101.958 140.856 102.39C141.814 102.838 142.409 103.503 142.639 104.385C142.881 105.272 142.731 106.297 142.187 107.459C141.946 107.975 141.662 108.441 141.336 108.858C141.01 109.275 140.666 109.618 140.307 109.888L140.522 109.989C141.062 110.241 141.547 110.234 141.978 109.968C142.409 109.702 142.809 109.174 143.179 108.383C143.672 107.329 143.928 106.265 143.947 105.194L145.925 106.118C145.913 106.58 145.818 107.142 145.64 107.804C145.475 108.471 145.249 109.11 144.963 109.721C144.234 111.279 143.367 112.29 142.361 112.755C141.368 113.224 140.296 113.19 139.145 112.653L133.896 110.198L135.09 107.646L135.881 108.015C135.516 106.954 135.622 105.806 136.199 104.571ZM137.652 106.149C137.444 106.592 137.341 107.033 137.34 107.471C137.34 107.909 137.442 108.3 137.646 108.644L138.509 109.047C139.202 108.627 139.72 108.051 140.062 107.32C140.297 106.816 140.371 106.377 140.284 106C140.204 105.641 139.96 105.366 139.553 105.176C139.169 104.997 138.814 104.991 138.487 105.159C138.16 105.328 137.882 105.658 137.652 106.149Z" fill="#313137" fill-opacity="0.5"/>
<path d="M141.327 116.821L139.64 119.053L138.722 118.359C138.844 118.966 138.842 119.561 138.715 120.145C138.589 120.73 138.35 121.254 137.999 121.718C137.561 122.299 137.115 122.691 136.661 122.896C136.219 123.109 135.742 123.18 135.232 123.109C135.333 123.7 135.303 124.299 135.142 124.907C134.973 125.525 134.713 126.067 134.362 126.531C133.628 127.502 132.858 128.006 132.051 128.043C131.236 128.09 130.358 127.759 129.419 127.049L124.48 123.316L126.203 121.036L130.809 124.518C131.295 124.885 131.715 125.053 132.07 125.022C132.424 124.992 132.761 124.766 133.08 124.344C133.527 123.753 133.654 123.102 133.46 122.392C133.107 122.158 132.824 121.961 132.613 121.802L128.165 118.44L129.899 116.144L134.586 119.686C135.05 120.037 135.441 120.199 135.758 120.174C136.079 120.167 136.39 119.964 136.693 119.562C137.164 118.94 137.229 118.118 136.889 117.099L131.981 113.39L133.728 111.078L141.327 116.821Z" fill="#313137" fill-opacity="0.5"/>
<path d="M129.519 131.453L127.306 133.324L126.627 132.521C126.471 133.831 125.852 134.943 124.771 135.857C124.013 136.498 123.209 136.9 122.36 137.063C121.51 137.245 120.675 137.18 119.856 136.867C119.046 136.565 118.317 136.03 117.667 135.262C117.027 134.504 116.621 133.696 116.449 132.836C116.276 131.977 116.343 131.133 116.647 130.304C116.949 129.494 117.479 128.769 118.237 128.128C118.752 127.693 119.306 127.354 119.899 127.113C120.492 126.872 121.07 126.756 121.632 126.765L118.276 122.795L120.564 120.86L129.519 131.453ZM120.325 129.43C119.708 129.951 119.371 130.565 119.311 131.274C119.242 131.991 119.472 132.662 120.001 133.289C120.531 133.915 121.15 134.249 121.861 134.29C122.56 134.339 123.219 134.103 123.835 133.582C124.31 133.181 124.627 132.696 124.787 132.127C124.948 131.558 124.934 130.999 124.745 130.448L123.579 129.069C123.069 128.773 122.52 128.656 121.933 128.72C121.336 128.792 120.799 129.028 120.325 129.43Z" fill="#313137" fill-opacity="0.5"/>
<path d="M121.301 144.467L118.773 146.075L110.901 133.703L113.429 132.094L121.301 144.467Z" fill="#313137" fill-opacity="0.5"/>
<path d="M104.512 136.757C106.163 135.978 107.647 135.76 108.965 136.103C110.289 136.458 111.289 137.354 111.967 138.789C112.639 140.213 112.752 141.535 112.304 142.756C111.844 143.982 110.831 144.965 109.264 145.705C108.235 146.191 107.271 146.412 106.373 146.368C105.474 146.324 104.679 146.049 103.986 145.542C103.299 145.047 102.755 144.375 102.354 143.526L101.837 142.431L108.943 139.076C108.232 138.066 106.943 138.001 105.077 138.883C104.526 139.142 103.981 139.459 103.44 139.831C102.899 140.203 102.453 140.575 102.101 140.946L101.203 139.044C101.537 138.667 102.007 138.269 102.615 137.851C103.222 137.432 103.854 137.068 104.512 136.757ZM105.233 142.978C105.54 143.536 105.964 143.876 106.506 144.001C107.053 144.138 107.674 144.042 108.368 143.715C109.05 143.393 109.512 142.977 109.754 142.468C109.996 141.958 110.002 141.414 109.773 140.835L105.233 142.978Z" fill="#313137" fill-opacity="0.5"/>
<path d="M78.8691 156.993L69.2536 156.584L69.3606 154.066L75.9626 154.347L76.099 151.135L71.2417 150.929L71.3444 148.51L76.2017 148.716L76.3373 145.524L69.7353 145.244L69.8423 142.726L79.4578 143.134L78.8691 156.993Z" fill="#313137" fill-opacity="0.5"/>
<path d="M64.1644 146.658L66.8831 151.979L63.6096 151.251L62.0975 148.271L59.4452 150.324L56.1717 149.595L60.9102 145.933L57.9893 140.242L61.224 140.962L62.9727 144.339L65.9696 142.018L69.2237 142.742L64.1644 146.658Z" fill="#313137" fill-opacity="0.5"/>
<path d="M53.6199 138.117C54.6921 138.571 55.456 139.21 55.9115 140.035C56.3497 140.866 56.3704 141.751 55.9736 142.69C55.5614 143.664 54.919 144.283 54.0465 144.546C53.1688 144.821 52.139 144.709 50.9572 144.209C50.4333 143.987 49.9569 143.721 49.5281 143.411C49.0993 143.1 48.7434 142.77 48.4603 142.42L48.3675 142.64C48.1356 143.188 48.1605 143.673 48.4422 144.093C48.7239 144.514 49.2668 144.895 50.0709 145.235C51.1431 145.688 52.2151 145.905 53.2867 145.884L52.4364 147.894C51.9744 147.9 51.4095 147.826 50.7417 147.673C50.0688 147.532 49.4216 147.33 48.8002 147.067C47.2163 146.397 46.1736 145.568 45.6721 144.581C45.1655 143.605 45.1595 142.532 45.6542 141.363L47.9114 136.026L50.5066 137.124L50.1665 137.928C51.2138 137.523 52.3649 137.587 53.6199 138.117ZM52.0975 139.628C51.6467 139.437 51.2025 139.35 50.7648 139.366C50.3271 139.382 49.9403 139.499 49.6044 139.716L49.2333 140.593C49.6795 141.27 50.2742 141.766 51.0174 142.08C51.5292 142.296 51.9715 142.354 52.3445 142.253C52.7002 142.16 52.9656 141.906 53.1408 141.491C53.3057 141.102 53.298 140.746 53.1175 140.426C52.9371 140.105 52.5971 139.839 52.0975 139.628Z" fill="#313137" fill-opacity="0.5"/>
<path d="M41.5906 143.715L39.2982 142.111L39.9582 141.168C39.3567 141.312 38.7617 141.332 38.1732 141.227C37.5847 141.122 37.052 140.902 36.5751 140.568C35.979 140.151 35.5703 139.72 35.3492 139.274C35.1205 138.84 35.0321 138.366 35.0841 137.854C34.4978 137.976 33.8979 137.968 33.2845 137.829C32.6602 137.683 32.1096 137.443 31.6327 137.11C30.6356 136.412 30.1039 135.66 30.0377 134.855C29.9607 134.042 30.2597 133.153 30.9348 132.189L34.4847 127.116L36.8258 128.755L33.5148 133.486C33.1659 133.984 33.0132 134.41 33.0565 134.764C33.0999 135.117 33.3384 135.445 33.7719 135.749C34.3789 136.173 35.0335 136.276 35.7358 136.057C35.9568 135.695 36.1432 135.406 36.2949 135.189L39.4921 130.621L41.8495 132.27L38.4816 137.083C38.1479 137.56 37.9994 137.956 38.0363 138.273C38.0548 138.592 38.2699 138.896 38.6818 139.185C39.3213 139.632 40.1444 139.667 41.1512 139.29L44.6783 134.25L47.052 135.911L41.5906 143.715Z" fill="#313137" fill-opacity="0.5"/>
<path d="M26.562 132.494L24.6124 130.35L25.3903 129.643C24.0751 129.534 22.9411 128.956 21.9886 127.909C21.3209 127.175 20.89 126.386 20.6957 125.544C20.4827 124.7 20.5176 123.864 20.8003 123.034C21.0732 122.214 21.5815 121.465 22.3252 120.789C23.0591 120.121 23.8523 119.685 24.7048 119.482C25.5572 119.279 26.4031 119.314 27.2423 119.588C28.0629 119.861 28.807 120.364 29.4747 121.098C29.9287 121.597 30.287 122.139 30.5498 122.723C30.8125 123.306 30.9493 123.879 30.9602 124.442L34.8059 120.943L36.8223 123.16L26.562 132.494ZM28.25 123.232C27.707 122.635 27.0804 122.32 26.3703 122.286C25.6512 122.243 24.9883 122.497 24.3816 123.049C23.7749 123.601 23.4641 124.232 23.4492 124.943C23.4254 125.645 23.6851 126.294 24.2281 126.891C24.6465 127.351 25.1427 127.65 25.7167 127.79C26.2908 127.929 26.8496 127.895 27.3933 127.687L28.729 126.471C29.0065 125.951 29.1028 125.398 29.0181 124.813C28.9245 124.219 28.6684 123.692 28.25 123.232Z" fill="#313137" fill-opacity="0.5"/>
<path d="M13.3301 124.873L11.621 122.412L23.6662 114.048L25.3753 116.509L13.3301 124.873Z" fill="#313137" fill-opacity="0.5"/>
<path d="M20.3561 107.772C21.1962 109.393 21.4692 110.868 21.175 112.198C20.869 113.533 20.0113 114.567 18.6019 115.297C17.2043 116.022 15.8872 116.183 14.6506 115.781C13.4079 115.367 12.3878 114.391 11.5903 112.852C11.0667 111.842 10.8102 110.887 10.8208 109.988C10.8313 109.088 11.077 108.283 11.5577 107.572C12.0267 106.867 12.6782 106.298 13.5121 105.866L14.5867 105.309L18.203 112.285C19.1862 111.537 19.2029 110.247 18.2531 108.415C17.9731 107.875 17.6369 107.341 17.2446 106.814C16.8524 106.288 16.4644 105.855 16.0808 105.518L17.9483 104.55C18.3376 104.87 18.7525 105.325 19.193 105.916C19.6336 106.507 20.0212 107.126 20.3561 107.772ZM14.1661 108.723C13.6206 109.05 13.2956 109.487 13.1912 110.033C13.0749 110.585 13.1934 111.202 13.5465 111.883C13.8935 112.552 14.326 112.999 14.8441 113.222C15.3621 113.445 15.9062 113.431 16.4765 113.18L14.1661 108.723Z" fill="#313137" fill-opacity="0.5"/>
<path d="M-0.875 83.0234L-0.837848 73.3993L1.68228 73.409L1.65678 80.0169L4.87143 80.0294L4.8902 75.1677L7.31111 75.177L7.29235 80.0387L10.4872 80.051L10.5127 73.4431L13.0328 73.4529L12.9956 83.077L-0.875 83.0234Z" fill="#313137" fill-opacity="0.5"/>
<path d="M8.85368 67.9733L3.63981 70.8932L4.24292 67.5943L7.1624 65.9696L5.0102 63.3975L5.61331 60.0986L9.45323 64.6939L15.0294 61.5578L14.4334 64.8177L11.125 66.694L13.5591 69.6001L12.9595 72.8795L8.85368 67.9733Z" fill="#313137" fill-opacity="0.5"/>
<path d="M17.0114 56.9257C16.5983 58.0142 15.9883 58.8014 15.1812 59.2875C14.3664 59.7565 13.4829 59.8104 12.5305 59.4489C11.5411 59.0734 10.8986 58.4546 10.6032 57.5926C10.2954 56.7258 10.3691 55.6926 10.8244 54.4928C11.0263 53.961 11.2744 53.475 11.5688 53.0349C11.8631 52.5948 12.1797 52.2267 12.5184 51.9308L12.2958 51.8463C11.7392 51.6351 11.2559 51.6781 10.846 51.9753C10.436 52.2725 10.0762 52.8293 9.76638 53.6456C9.35332 54.734 9.17719 55.8133 9.23799 56.8834L7.19721 56.1089C7.17426 55.6474 7.22682 55.0802 7.35489 54.4071C7.4706 53.7294 7.64815 53.0752 7.88754 52.4444C8.49775 50.8365 9.287 49.7635 10.2553 49.2254C11.2112 48.6826 12.2829 48.6365 13.4703 49.0871L18.8876 51.143L17.8878 53.7775L17.0715 53.4677C17.5149 54.4991 17.4949 55.6518 17.0114 56.9257ZM15.4448 55.461C15.6185 55.0034 15.6892 54.5562 15.6568 54.1194C15.6245 53.6826 15.4936 53.3004 15.2642 52.9728L14.3737 52.6349C13.7137 53.1061 13.2406 53.7189 12.9543 54.4734C12.7571 54.9928 12.7159 55.4371 12.8306 55.806C12.9376 56.1579 13.2013 56.4137 13.6219 56.5733C14.0177 56.7235 14.3723 56.7024 14.6858 56.5101C14.9994 56.3178 15.2524 55.9681 15.4448 55.461Z" fill="#313137" fill-opacity="0.5"/>
<path d="M10.7779 45.4214L12.2885 43.0663L13.2573 43.6877C13.089 43.0926 13.0455 42.4988 13.1267 41.9066C13.208 41.3143 13.4058 40.7732 13.7201 40.2833C14.1129 39.6708 14.5274 39.2452 14.9635 39.0063C15.3885 38.7602 15.8582 38.6528 16.3725 38.6841C16.2265 38.1032 16.2103 37.5035 16.3242 36.885C16.4452 36.2554 16.6628 35.6955 16.9771 35.2056C17.6342 34.1812 18.3637 33.6196 19.1656 33.5211C19.9747 33.4114 20.8747 33.6743 21.8658 34.31L27.0771 37.6527L25.5343 40.058L20.6737 36.9402C20.1615 36.6117 19.7298 36.4762 19.3785 36.5338C19.0272 36.5914 18.7087 36.8429 18.423 37.2883C18.023 37.9118 17.9466 38.5701 18.1937 39.2629C18.5643 39.4692 18.861 39.6438 19.0837 39.7867L23.7772 42.7972L22.2237 45.2192L17.2796 42.0479C16.7897 41.7336 16.3874 41.6013 16.0726 41.6509C15.7539 41.6822 15.4589 41.9094 15.1875 42.3325C14.766 42.9895 14.7641 43.8134 15.1816 44.8042L20.3595 48.1255L18.7953 50.5641L10.7779 45.4214Z" fill="#313137" fill-opacity="0.5"/>
<path d="M21.3613 29.9107L23.4247 27.8771L24.163 28.6261C24.2193 27.3075 24.7516 26.1514 25.7598 25.1578C26.4664 24.4613 27.2369 23.9992 28.0711 23.7714C28.9054 23.5249 29.7427 23.5263 30.5828 23.7756C31.4136 24.0155 32.1819 24.4935 32.8876 25.2096C33.5841 25.9162 34.0509 26.6914 34.288 27.535C34.5251 28.3787 34.5236 29.2253 34.2836 30.0748C34.0436 30.9056 33.5704 31.6693 32.8637 32.3657C32.3832 32.8393 31.8566 33.219 31.2838 33.5049C30.7111 33.7907 30.144 33.9503 29.5825 33.9836L33.232 37.6865L31.0979 39.7898L21.3613 29.9107ZM30.683 31.2273C31.2577 30.6609 31.5477 30.0222 31.5529 29.3113C31.5675 28.591 31.2869 27.9389 30.7111 27.3547C30.1354 26.7705 29.492 26.4852 28.7809 26.4987C28.0793 26.503 27.4411 26.7884 26.8664 27.3548C26.4235 27.7913 26.1439 28.2991 26.0274 28.8782C25.9109 29.4573 25.9677 30.0144 26.1977 30.5492L27.4652 31.8354C27.9966 32.0918 28.5527 32.166 29.1334 32.058C29.7236 31.9406 30.2401 31.6638 30.683 31.2273Z" fill="#313137" fill-opacity="0.5"/>
<path d="M28.6523 16.1899L31.0495 14.3921L39.8481 26.1238L37.451 27.9216L28.6523 16.1899Z" fill="#313137" fill-opacity="0.5"/>
<path d="M46.0857 22.5067C44.497 23.4061 43.0329 23.7334 41.6933 23.4885C40.3471 23.2321 39.283 22.4131 38.5009 21.0317C37.7252 19.6617 37.5155 18.3515 37.8716 17.1009C38.2393 15.8438 39.1771 14.7883 40.6852 13.9345C41.6753 13.374 42.62 13.0824 43.5193 13.0597C44.4185 13.0371 45.2324 13.2528 45.9608 13.7069C46.6826 14.1496 47.275 14.7796 47.7377 15.5969L48.3341 16.6503L41.4959 20.5218C42.2797 21.4766 43.5695 21.4457 45.3654 20.4289C45.895 20.1291 46.4158 19.7735 46.9277 19.362C47.4397 18.9505 47.8572 18.5469 48.1804 18.1511L49.2167 19.9815C48.9116 20.3823 48.4717 20.8138 47.8972 21.2759C47.3227 21.7379 46.7189 22.1482 46.0857 22.5067ZM44.9066 16.3561C44.5592 15.823 44.1109 15.5144 43.5615 15.4302C43.0056 15.3344 42.3938 15.4756 41.7261 15.8536C41.0699 16.2251 40.6399 16.6738 40.4359 17.1997C40.232 17.7256 40.266 18.2689 40.5378 18.8295L44.9066 16.3561Z" fill="#313137" fill-opacity="0.5"/>
<path d="M69.4004 0.390625L79.0174 0.0192885L79.1147 2.53756L72.5116 2.79252L72.6357 6.00481L77.4937 5.81723L77.5872 8.23636L72.7291 8.42394L72.8523 11.6164L79.4554 11.3614L79.5526 13.8797L69.9356 14.251L69.4004 0.390625Z" fill="#313137" fill-opacity="0.5"/>
<path d="M85.2831 9.48288L82.1656 4.38467L85.4852 4.86099L87.2206 7.7161L89.7084 5.46696L93.0279 5.94328L88.5831 9.95638L91.9304 15.4083L88.6501 14.9377L86.6484 11.7035L83.8377 14.2471L80.5378 13.7736L85.2831 9.48288Z" fill="#313137" fill-opacity="0.5"/>
<path d="M96.4115 17.1156C95.307 16.7479 94.4951 16.1709 93.9761 15.3846C93.4738 14.59 93.3835 13.7094 93.7052 12.7429C94.0395 11.7387 94.6312 11.0713 95.4803 10.7404C96.3336 10.3971 97.369 10.428 98.5865 10.8333C99.1263 11.013 99.6221 11.2408 100.074 11.5167C100.526 11.7927 100.907 12.0937 101.216 12.4199L101.292 12.194C101.48 11.6291 101.417 11.1481 101.103 10.7508C100.789 10.3535 100.218 10.0169 99.3893 9.74115C98.2847 9.37344 97.1991 9.24209 96.1324 9.3471L96.8218 7.27603C97.282 7.23402 97.8509 7.26308 98.5287 7.36321C99.2106 7.4508 99.8717 7.60114 100.512 7.81424C102.144 8.35745 103.248 9.10166 103.826 10.0469C104.408 10.9796 104.498 12.0484 104.097 13.2534L102.267 18.7511L99.5933 17.8611L99.8691 17.0327C98.8569 17.5183 97.7044 17.546 96.4115 17.1156ZM97.8102 15.4898C98.2747 15.6444 98.7244 15.6965 99.1595 15.6461C99.5945 15.5958 99.971 15.4492 100.289 15.2064L100.59 14.3027C100.092 13.6628 99.4597 13.2155 98.694 12.9606C98.1669 12.7851 97.7213 12.7622 97.3574 12.8921C97.0102 13.0135 96.7656 13.2876 96.6235 13.7144C96.4898 14.1161 96.5255 14.4695 96.7306 14.7749C96.9357 15.0802 97.2956 15.3185 97.8102 15.4898Z" fill="#313137" fill-opacity="0.5"/>
<path d="M108.134 10.6127L110.543 12.0358L109.957 13.0268C110.546 12.8367 111.138 12.7714 111.733 12.8309C112.327 12.8903 112.875 13.0681 113.377 13.3641C114.003 13.7342 114.444 14.1328 114.698 14.5599C114.96 14.9755 115.084 15.4409 115.072 15.956C115.647 15.7888 116.246 15.7506 116.868 15.8417C117.502 15.9394 118.069 16.1363 118.57 16.4324C119.618 17.0514 120.206 17.7598 120.334 18.5576C120.474 19.3621 120.244 20.2712 119.645 21.2849L116.496 26.6155L114.036 25.1621L116.973 20.1903C117.282 19.6664 117.402 19.2299 117.331 18.881C117.261 18.5321 116.998 18.2231 116.542 17.9539C115.904 17.5771 115.244 17.5249 114.561 17.7973C114.368 18.1752 114.204 18.4781 114.07 18.7059L111.234 23.5069L108.756 22.0434L111.744 16.9862C112.04 16.485 112.157 16.0781 112.096 15.7654C112.053 15.448 111.815 15.1615 111.383 14.9058C110.711 14.5088 109.887 14.5372 108.912 14.9908L105.784 20.2872L103.289 18.8136L108.134 10.6127Z" fill="#313137" fill-opacity="0.5"/>
<path d="M124.079 20.6804L126.186 22.6686L125.464 23.4336C126.784 23.442 127.959 23.9319 128.989 24.9033C129.71 25.5842 130.2 26.3373 130.458 27.1627C130.735 27.9876 130.764 28.8243 130.545 29.6729C130.335 30.5119 129.886 31.2971 129.196 32.0283C128.515 32.75 127.757 33.2447 126.923 33.5122C126.088 33.7798 125.242 33.8091 124.384 33.6001C123.545 33.3905 122.765 32.9453 122.043 32.2644C121.553 31.8014 121.154 31.2889 120.848 30.7269C120.541 30.165 120.361 29.6041 120.307 29.0441L116.739 32.8257L114.56 30.7694L124.079 20.6804ZM123.102 30.0437C123.689 30.5975 124.338 30.8641 125.048 30.8434C125.768 30.8319 126.41 30.5278 126.973 29.9312C127.536 29.3346 127.798 28.6813 127.758 27.9712C127.728 27.2702 127.42 26.6428 126.833 26.089C126.381 25.6623 125.863 25.4013 125.28 25.3059C124.697 25.2106 124.143 25.2875 123.617 25.5368L122.377 26.8502C122.14 27.3905 122.086 27.9489 122.215 28.5254C122.354 29.1109 122.65 29.6171 123.102 30.0437Z" fill="#313137" fill-opacity="0.5"/>
<path d="M137.756 27.1279L139.648 29.4511L128.279 38.7129L126.386 36.3898L137.756 27.1279Z" fill="#313137" fill-opacity="0.5"/>
<path d="M132.143 44.7826C131.18 43.2316 130.794 41.7819 130.984 40.4334C131.186 39.078 131.961 37.9816 133.31 37.1442C134.647 36.3138 135.948 36.0512 137.212 36.3564C138.483 36.6729 139.576 37.5673 140.49 39.0396C141.09 40.0061 141.419 40.9382 141.478 41.8359C141.538 42.7335 141.355 43.5554 140.931 44.3016C140.518 45.0408 139.912 45.6581 139.114 46.1536L138.086 46.7921L133.941 40.1161C133.018 40.938 133.101 42.2255 134.19 43.9788C134.511 44.4958 134.887 45.0017 135.319 45.4966C135.751 45.9915 136.171 46.3924 136.58 46.6993L134.793 47.8088C134.38 47.5201 133.931 47.0981 133.446 46.5428C132.961 45.9875 132.527 45.4007 132.143 44.7826ZM138.241 43.3555C138.76 42.9868 139.05 42.5263 139.112 41.974C139.185 41.4147 139.019 40.8091 138.614 40.1573C138.217 39.5167 137.751 39.1051 137.217 38.9227C136.683 38.7402 136.142 38.7961 135.593 39.0903L138.241 43.3555Z" fill="#313137" fill-opacity="0.5"/>
</g>
<defs>
<clipPath id="clip0">
<rect width="156" height="156" fill="white"/>
</clipPath>
</defs>
</svg>
