<svg xmlns="http://www.w3.org/2000/svg" width="156" height="156" fill="none" viewBox="0 0 156 156"><path fill="#A9D379" d="M78 34a44 44 0 1 1 0 88 44 44 0 0 1 0-88Z"/><path fill="#FFD875" d="M91.23 79.42c0 14.4-13.5 17.73-13.5 17.73s-13.5-3.33-13.5-17.73c0-1.06.11-2.03.3-2.93.2-.89.48-1.7.85-2.43a65.96 65.96 0 0 1 24.7 0c.37.74.66 1.54.85 2.43.2.9.3 1.87.3 2.93Z"/><path fill="#995C0D" d="M77.93 67.1h-.03c-.4-.01-.7-.37-.69-.8 0-.02.07-1.87-.47-3.79-.68-2.4-1.98-3.8-3.86-4.12-.4-.06-.66-.46-.6-.88.07-.42.44-.7.83-.63 2.45.42 4.2 2.23 5.03 5.23.6 2.16.52 4.18.52 4.26a.74.74 0 0 1-.73.74Z"/><path fill="#B27214" d="M92.47 72.98c0 .48-.05.97-.15 1.47a67.75 67.75 0 0 0-14.48-1.55 68.32 68.32 0 0 0-14.49 1.55c-.83-4.18 1.98-8.19 6.04-8.65a75.21 75.21 0 0 1 16.9 0 7.12 7.12 0 0 1 6.18 7.18Z"/><path fill="#995C0D" d="M75.46 65.8a75.9 75.9 0 0 1 5.47-.41 75.92 75.92 0 0 0-11.51.41c-4.08.46-6.9 4.47-6.07 8.65a68.44 68.44 0 0 1 5.91-1 7.15 7.15 0 0 1 6.2-7.65Z"/><path fill="#313137" fill-opacity=".5" d="m155.55 85.28-.3 2.94-14.37 4.06.32-3.05 3.12-.87.57-5.47-2.88-1.5.33-3.07 13.2 6.96Zm-8.76 2.54 5.45-1.4-5.04-2.5-.41 3.9ZM138.38 98.84a4.68 4.68 0 0 1 2.35-3l-.98-.31.89-2.76 13.95 4.47-.91 2.85-5.7-1.82c.22.51.33 1.1.34 1.73 0 .64-.1 1.28-.3 1.92-.31.95-.78 1.71-1.43 2.3-.64.6-1.38.98-2.24 1.15-.86.17-1.77.1-2.71-.2a5.41 5.41 0 0 1-2.34-1.41 4.5 4.5 0 0 1-1.13-2.24 5.4 5.4 0 0 1 .21-2.68Zm2.44-.01a2.7 2.7 0 0 0 .1 2.1c.32.63.87 1.08 1.65 1.33.78.25 1.5.2 2.13-.13a2.66 2.66 0 0 0 1.31-1.64c.2-.59.2-1.18.03-1.76a2.64 2.64 0 0 0-.94-1.38l-1.71-.55c-.6.03-1.13.23-1.59.6-.46.36-.8.84-.98 1.43ZM133.97 109c.55-1.01 1.22-1.8 2-2.37a4.83 4.83 0 0 1 2.5-.91c.9-.04 1.8.19 2.69.67a5 5 0 0 1 1.98 1.88c.44.79.64 1.66.6 2.61a6.88 6.88 0 0 1-.9 2.97 6.71 6.71 0 0 1-1.99 2.32c-.79.57-1.63.87-2.53.9a4.9 4.9 0 0 1-2.65-.63 4.7 4.7 0 0 1-2.6-4.5c.05-.95.35-1.93.9-2.94Zm2.05 1.12c-.39.7-.48 1.39-.28 2.04.22.66.68 1.19 1.4 1.58.74.4 1.44.51 2.08.32a2.52 2.52 0 0 0 1.57-1.33c.4-.72.49-1.4.29-2.06a2.68 2.68 0 0 0-1.4-1.58c-.72-.4-1.41-.5-2.08-.32-.66.2-1.2.64-1.58 1.35ZM128.04 118.06c.82-1 1.7-1.53 2.66-1.58.96-.05 1.9.3 2.81 1.04l4.58 3.77-1.9 2.31-4.34-3.56c-.96-.79-1.8-.74-2.53.15a2.9 2.9 0 0 0-.48 2.84l4.67 3.84-1.9 2.31-7.36-6.04 1.84-2.24.9.73a3.88 3.88 0 0 1 .13-1.88c.2-.61.5-1.18.92-1.69ZM119.9 126.67c.82-.75 1.65-1.09 2.5-1.03.83.08 1.62.52 2.36 1.33l2.8 3.08 1.03-.93 1.45 1.6-1.03.93 1.93 2.11-2.22 2.02-1.92-2.11-1.66 1.5-1.45-1.6 1.65-1.5-2.53-2.79c-.38-.41-.73-.64-1.05-.68-.32-.03-.68.13-1.08.5-.32.29-.56.65-.7 1.07l-1.52-1.66a5.8 5.8 0 0 1 1.44-1.84ZM110.66 149.5l-2.7 1.2-10.7-10.42 2.82-1.25 2.31 2.27 5.02-2.23-.14-3.24 2.83-1.26.56 14.92Zm-6.57-6.33 3.94 4.02-.35-5.62-3.59 1.6ZM90.43 141.37a4.69 4.69 0 0 1 3.77.54l-.22-1.01 2.83-.62 3.13 14.32-2.93.64-1.28-5.85c-.33.45-.77.84-1.33 1.16-.55.32-1.15.56-1.81.7-.97.21-1.87.19-2.7-.08a4.46 4.46 0 0 1-2.12-1.36 5.37 5.37 0 0 1-1.19-2.44c-.21-.99-.2-1.9.05-2.74a4.5 4.5 0 0 1 1.37-2.1 5.4 5.4 0 0 1 2.43-1.16Zm1.23 2.1a2.7 2.7 0 0 0-1.76 1.14c-.4.6-.5 1.3-.33 2.1.17.8.56 1.4 1.17 1.78.6.38 1.3.48 2.08.31a2.9 2.9 0 0 0 2.27-2.36l-.39-1.76c-.32-.5-.76-.86-1.3-1.08a2.9 2.9 0 0 0-1.74-.13ZM79.39 142.64a7.05 7.05 0 0 1 3.04.54c.87.4 1.56.98 2.05 1.72.48.76.73 1.64.75 2.66a5 5 0 0 1-.63 2.66 4.78 4.78 0 0 1-1.96 1.83c-.86.44-1.87.67-3.02.7a6.7 6.7 0 0 1-3-.56 4.63 4.63 0 0 1-2.05-1.74 4.9 4.9 0 0 1-.78-2.62 4.7 4.7 0 0 1 2.6-4.5 6.92 6.92 0 0 1 3-.7Zm.05 2.34c-.8.02-1.44.28-1.9.78a2.77 2.77 0 0 0-.67 2c.02.84.27 1.5.76 1.96.47.48 1.12.71 1.94.7a2.59 2.59 0 0 0 1.92-.79c.47-.48.7-1.15.67-2a2.77 2.77 0 0 0-.76-1.96c-.5-.48-1.15-.71-1.96-.7ZM68.38 142.04c1.28.2 2.19.7 2.71 1.5.53.81.7 1.8.5 2.96l-.95 5.85-2.96-.48.9-5.54c.2-1.23-.26-1.93-1.4-2.12a2.89 2.89 0 0 0-2.7 1l-.96 5.98-2.96-.48 1.53-9.4 2.86.47-.19 1.13c.5-.41 1.07-.69 1.7-.82a5.04 5.04 0 0 1 1.92-.05ZM56.89 139.3c1.05.33 1.77.88 2.14 1.63.35.77.36 1.68.02 2.72l-1.27 3.97 1.32.42-.66 2.06-1.32-.42-.87 2.72-2.85-.92.87-2.72-2.13-.68.65-2.06 2.14.68 1.15-3.58c.17-.53.2-.95.07-1.25-.13-.3-.46-.52-.97-.69a2.61 2.61 0 0 0-1.29-.08l.69-2.13c.65-.07 1.43.04 2.3.32ZM32.56 142.67l-2.39-1.74 3.68-14.46 2.49 1.8-.81 3.14 4.44 3.24 2.74-1.74 2.5 1.82-12.65 7.94Zm2.2-8.85-1.52 5.42 4.7-3.1-3.18-2.32ZM29.5 121.08a4.68 4.68 0 0 1 1.42 3.54l.76-.7 1.95 2.14-10.85 9.87-2.01-2.22 4.43-4.03a4.37 4.37 0 0 1-1.67-.57 6.15 6.15 0 0 1-1.52-1.23 5.12 5.12 0 0 1-1.28-2.37c-.2-.85-.16-1.7.12-2.52.29-.83.8-1.58 1.53-2.25a5.41 5.41 0 0 1 2.4-1.32 4.5 4.5 0 0 1 2.5.14 5.4 5.4 0 0 1 2.21 1.52Zm-1.22 2.12a2.7 2.7 0 0 0-1.86-.96 2.64 2.64 0 0 0-1.99.76c-.6.55-.92 1.19-.94 1.9-.04.72.22 1.37.76 1.97.42.46.92.76 1.52.9.57.14 1.12.1 1.66-.12l1.33-1.21c.27-.53.36-1.1.28-1.68a2.9 2.9 0 0 0-.76-1.56ZM22.87 112.18c.6.98.96 1.95 1.06 2.9.09.96-.07 1.84-.46 2.64a5.09 5.09 0 0 1-1.93 1.98 5 5 0 0 1-2.6.79c-.91 0-1.77-.27-2.58-.78a6.87 6.87 0 0 1-2.12-2.26 6.7 6.7 0 0 1-1.02-2.89c-.1-.96.07-1.84.48-2.64a4.9 4.9 0 0 1 1.88-1.98 4.7 4.7 0 0 1 5.2-.01c.8.51 1.5 1.26 2.1 2.25Zm-2 1.22a2.56 2.56 0 0 0-1.62-1.26c-.68-.15-1.37 0-2.07.42-.72.44-1.16 1-1.32 1.64-.17.66-.05 1.33.38 2.03.43.7.97 1.12 1.64 1.28.65.15 1.34.01 2.06-.43.7-.43 1.14-.97 1.32-1.64.17-.67.04-1.36-.38-2.04ZM18 102.62c.47 1.21.48 2.24.06 3.1-.44.86-1.2 1.5-2.3 1.91l-5.55 2.1-1.07-2.8 5.25-1.98c1.16-.44 1.54-1.2 1.13-2.28a2.9 2.9 0 0 0-2.22-1.83L7.65 103l-1.07-2.8 8.9-3.38 1.03 2.7-1.07.42c.6.22 1.13.57 1.56 1.05.44.48.77 1.02 1 1.64ZM14.6 91.31c.25 1.08.13 1.98-.34 2.67a3.68 3.68 0 0 1-2.34 1.39l-4.07.89.3 1.35-2.11.47-.3-1.36-2.79.6-.64-2.92 2.8-.6-.49-2.2 2.12-.46.47 2.2 3.69-.81c.54-.12.91-.31 1.11-.57.19-.26.22-.65.1-1.18-.09-.43-.28-.81-.57-1.15l2.19-.48c.39.53.68 1.26.88 2.16ZM-.55 71.76l.3-2.94 14.37-4.06-.32 3.06-3.12.87-.57 5.46 2.87 1.5-.32 3.08-13.21-6.97Zm8.76-2.53-5.45 1.4 5.04 2.5.41-3.9ZM16.6 58.23c-.23.7-.53 1.3-.9 1.8-.38.47-.86.87-1.45 1.2l.98.31-.89 2.76L.4 59.83l.91-2.85L7 58.8a4.38 4.38 0 0 1-.34-1.73c0-.64.1-1.28.3-1.92.31-.95.78-1.71 1.43-2.3.64-.6 1.39-.98 2.24-1.15.86-.17 1.77-.1 2.71.2.96.3 1.74.78 2.34 1.41a4.5 4.5 0 0 1 1.13 2.24 5.4 5.4 0 0 1-.2 2.68Zm-2.44.01a2.7 2.7 0 0 0-.1-2.1 2.64 2.64 0 0 0-1.65-1.33 2.64 2.64 0 0 0-2.13.13c-.63.32-1.07.87-1.31 1.64-.2.6-.2 1.18-.03 1.76.17.57.48 1.03.94 1.38l1.71.55c.6-.03 1.13-.23 1.6-.6.45-.36.78-.84.97-1.43ZM20.92 48.21c-.55 1-1.22 1.8-2 2.37-.78.55-1.61.85-2.5.9-.9.05-1.8-.18-2.69-.67a5 5 0 0 1-1.98-1.87 4.78 4.78 0 0 1-.6-2.62c.05-.97.34-1.95.9-2.96a6.7 6.7 0 0 1 2-2.33 4.63 4.63 0 0 1 2.52-.9 4.9 4.9 0 0 1 2.65.64 4.7 4.7 0 0 1 2.6 4.5 6.93 6.93 0 0 1-.9 2.94Zm-2.05-1.12c.39-.71.48-1.4.28-2.04a2.77 2.77 0 0 0-1.4-1.58 2.68 2.68 0 0 0-2.08-.33c-.65.17-1.18.62-1.57 1.34-.4.72-.49 1.4-.29 2.06.2.64.66 1.17 1.4 1.58.72.39 1.41.5 2.08.32.67-.2 1.2-.65 1.58-1.35ZM26.9 39c-.81 1-1.7 1.54-2.65 1.6-.97.04-1.9-.3-2.81-1.05l-4.59-3.77 1.9-2.31 4.34 3.56c.96.79 1.8.74 2.54-.15a2.9 2.9 0 0 0 .48-2.84l-4.68-3.84 1.9-2.31 7.36 6.04-1.83 2.24-.9-.73c.12.63.07 1.26-.13 1.88-.2.62-.5 1.18-.92 1.69ZM35.01 30.42c-.82.74-1.65 1.09-2.49 1.03a3.68 3.68 0 0 1-2.36-1.33l-2.8-3.09-1.03.94-1.46-1.6 1.03-.93-1.92-2.12 2.21-2.01 1.92 2.11 1.66-1.5 1.46 1.6-1.66 1.5 2.53 2.79c.38.4.73.63 1.05.68.32.03.68-.13 1.08-.5.32-.3.56-.65.71-1.07l1.5 1.65a5.8 5.8 0 0 1-1.43 1.85ZM43.86 7.73l2.7-1.21L57.29 16.9l-2.8 1.26-2.32-2.27-5.02 2.26.16 3.23-2.83 1.27-.62-14.92Zm6.6 6.3-3.96-4 .38 5.61 3.58-1.6ZM64.35 15.68a4.68 4.68 0 0 1-3.77-.54l.22 1.02-2.83.61-3.13-14.31 2.93-.64 1.27 5.85c.34-.45.78-.84 1.33-1.17a6.17 6.17 0 0 1 1.82-.7 5.13 5.13 0 0 1 2.7.08c.84.25 1.55.7 2.12 1.37.58.66.97 1.47 1.19 2.44.21.98.2 1.89-.06 2.73a4.5 4.5 0 0 1-1.36 2.1 5.4 5.4 0 0 1-2.43 1.16Zm-1.23-2.1a2.7 2.7 0 0 0 1.76-1.14c.4-.6.5-1.3.33-2.1-.17-.8-.57-1.4-1.18-1.77-.6-.39-1.29-.5-2.08-.32-.6.13-1.12.42-1.53.86-.41.43-.65.93-.73 1.5l.38 1.77c.33.5.77.85 1.31 1.07a2.9 2.9 0 0 0 1.74.13ZM75.06 14.38a7.07 7.07 0 0 1-3.05-.53 4.83 4.83 0 0 1-2.05-1.71 5.08 5.08 0 0 1-.76-2.66 5 5 0 0 1 .62-2.65c.45-.78 1.1-1.4 1.95-1.84a6.88 6.88 0 0 1 3.02-.72 6.7 6.7 0 0 1 3 .55c.9.4 1.58.98 2.06 1.73.5.76.76 1.63.79 2.62a4.7 4.7 0 0 1-2.58 4.51c-.85.44-1.85.67-3 .7ZM75 12.04c.8-.02 1.44-.28 1.9-.78.46-.52.68-1.19.66-2a2.68 2.68 0 0 0-.77-1.97 2.52 2.52 0 0 0-1.94-.68c-.82.02-1.46.28-1.92.79a2.68 2.68 0 0 0-.66 2c.02.82.28 1.47.77 1.96.5.48 1.15.7 1.96.68ZM86.3 14.92c-1.28-.21-2.18-.71-2.7-1.51-.53-.8-.7-1.8-.51-2.96l.95-5.85 2.96.48-.9 5.54c-.2 1.23.26 1.94 1.4 2.12a2.9 2.9 0 0 0 2.7-1l.97-5.98 2.95.49-1.53 9.4-2.86-.47.19-1.14c-.5.42-1.07.7-1.7.83-.63.14-1.27.15-1.92.05ZM97.94 17.66c-1.06-.34-1.77-.9-2.14-1.65a3.68 3.68 0 0 1-.03-2.71l1.27-3.97-1.32-.42.66-2.06 1.32.42.87-2.72 2.86.92-.88 2.72 2.14.68-.66 2.06-2.13-.69-1.15 3.6c-.17.52-.2.94-.07 1.24.13.3.45.52.97.69.41.13.84.16 1.28.08l-.68 2.13a5.8 5.8 0 0 1-2.31-.32ZM122.25 14.2l2.4 1.74-3.69 14.46-2.48-1.8.8-3.14-4.44-3.24-2.73 1.74-2.5-1.82 12.64-7.94Zm-2.2 8.85 1.52-5.42-4.69 3.1 3.18 2.32ZM125.44 35.86a4.69 4.69 0 0 1-1.42-3.53l-.76.69-1.95-2.14L132.16 21l2.01 2.22-4.43 4.03c.56.06 1.12.25 1.67.57.56.32 1.06.72 1.52 1.22.66.74 1.1 1.53 1.28 2.38.2.85.16 1.7-.12 2.52-.29.83-.8 1.58-1.53 2.25a5.42 5.42 0 0 1-2.4 1.31 4.5 4.5 0 0 1-2.5-.13 5.4 5.4 0 0 1-2.22-1.52Zm1.22-2.12c.54.6 1.16.92 1.86.96.72.04 1.38-.21 1.99-.76.6-.56.92-1.2.94-1.91a2.66 2.66 0 0 0-.76-1.96 2.91 2.91 0 0 0-1.52-.9 2.64 2.64 0 0 0-1.66.12l-1.33 1.21a2.75 2.75 0 0 0-.28 1.67c.08.59.34 1.11.75 1.57ZM132.07 44.73a7.07 7.07 0 0 1-1.06-2.9c-.08-.96.07-1.84.47-2.64a5.09 5.09 0 0 1 1.92-1.98 5 5 0 0 1 2.61-.79c.9 0 1.76.27 2.57.78a6.88 6.88 0 0 1 2.12 2.26c.6.97.94 1.93 1.02 2.89.1.96-.06 1.84-.48 2.64a4.9 4.9 0 0 1-1.88 1.98 4.7 4.7 0 0 1-5.2.01 6.94 6.94 0 0 1-2.09-2.25Zm2-1.22c.42.7.96 1.11 1.63 1.26.67.15 1.36 0 2.06-.42a2.68 2.68 0 0 0 1.32-1.64c.18-.65.05-1.33-.38-2.03a2.59 2.59 0 0 0-1.63-1.28 2.68 2.68 0 0 0-2.07.43c-.7.43-1.14.97-1.32 1.64-.16.67-.03 1.36.39 2.04ZM136.97 54.32c-.46-1.21-.48-2.24-.05-3.1.44-.86 1.2-1.5 2.3-1.91l5.55-2.1 1.06 2.8-5.25 1.98c-1.16.44-1.54 1.2-1.13 2.28a2.9 2.9 0 0 0 2.23 1.83l5.65-2.15 1.06 2.8-8.9 3.38-1.02-2.7 1.07-.42a3.9 3.9 0 0 1-1.57-1.05 5.04 5.04 0 0 1-1-1.64ZM140.38 65.65c-.23-1.08-.12-1.97.35-2.67a3.67 3.67 0 0 1 2.34-1.39l4.07-.89-.3-1.35 2.11-.46.3 1.35 2.8-.6.63 2.92-2.79.6.48 2.2-2.11.46-.48-2.19-3.68.8c-.55.12-.92.31-1.12.57-.19.26-.22.65-.1 1.18.09.43.28.81.57 1.16l-2.19.48a5.79 5.79 0 0 1-.88-2.17Z"><animateTransform attributeName="transform" attributeType="XML" type="rotate" from="0 78 78" to="-360 78 78" dur="60s" begin="0s" repeatCount="indefinite" fill="freeze"/></path></svg>