<svg width="176" height="51" viewBox="0 0 176 51" fill="none" xmlns="http://www.w3.org/2000/svg">
<path d="M112.622 26.9329L97.4287 44.9834H112.622V51.0002H87.8789V44.9834L103.072 26.9329H87.8789V20.916H112.622V26.9329Z" fill="#313137"/>
<path d="M160.156 41.975L167.535 20.916H176L164.496 51.0002H155.815L144.312 20.916H152.776L160.156 41.975Z" fill="#313137"/>
<path fill-rule="evenodd" clip-rule="evenodd" d="M155.372 0C148.796 0 143.465 5.27814 143.465 11.7891V15.1574H164.093C170.669 15.1574 176 9.87922 176 3.3683V0H155.372ZM153.841 10.4999C154.468 9.92101 154.782 9.0873 154.782 7.99879C154.782 6.97662 154.48 6.1806 153.877 5.61072C153.274 5.04084 152.428 4.7559 151.338 4.7559H149.241V11.3683H151.132C152.314 11.3683 153.217 11.0789 153.841 10.4999ZM151.411 5.90471C152.678 5.90471 153.311 6.6148 153.311 8.03498C153.311 9.48531 152.629 10.2105 151.264 10.2105H150.657V5.90471H151.411ZM156.634 11.3683H160.48V10.2105H158.05V8.50535H160.311V7.35655H158.05V5.90471H160.48V4.7559H156.634V11.3683ZM163.739 11.3683H162.346V4.7559H166.174V5.90471H163.739V7.60983H166.005V8.75411H163.739V11.3683ZM167.948 4.7559V11.3683H169.365V4.7559H167.948Z" fill="#A9D379"/>
<path d="M86.1521 51.0002H62.0605V20.916H86.1521V26.9329H69.874V32.7348H69.8752V38.7517H69.874V44.9834H86.1521V51.0002Z" fill="#313137"/>
<path d="M70.8233 37.9557C73.3145 32.8974 79.0127 30.5729 83.5507 32.7636L86.3281 34.1045C83.8369 39.1628 78.1386 41.4873 73.6007 39.2965L70.8233 37.9557Z" fill="#313137"/>
<path fill-rule="evenodd" clip-rule="evenodd" d="M0 20.7129H18.2315C21.27 20.7129 23.4694 21.4005 24.8295 22.7758C26.2186 24.1224 26.9131 26.3 26.9131 29.3084V33.6061C26.9131 36.6145 26.2186 38.8064 24.8295 40.1817C23.4694 41.5283 21.27 42.2016 18.2315 42.2016H7.81348V50.7971H0V20.7129ZM12.0595 27.0087C9.7109 27.0087 7.80695 28.8938 7.80695 31.2191V36.0737H15.7805C18.1292 36.0737 20.0331 34.1886 20.0331 31.8633V27.0087H12.0595Z" fill="#313137"/>
<path fill-rule="evenodd" clip-rule="evenodd" d="M30.7588 20.916H48.9902C52.0288 20.916 54.2282 21.6037 55.5883 22.9789C56.9774 24.3256 57.6719 26.5031 57.6719 29.5115V33.3795C57.6719 35.7576 57.2667 37.6056 56.4564 38.9236C55.6751 40.2415 54.4163 41.1154 52.6799 41.5452L58.106 51.0002H49.6414L44.6494 41.975H38.5723V51.0002H30.7588V20.916ZM42.7715 27.2092C40.4228 27.2092 38.5189 29.0942 38.5189 31.4195V36.2741H46.4925C48.8411 36.2741 50.7451 34.389 50.7451 32.0637V27.2092H42.7715Z" fill="#313137"/>
<path fill-rule="evenodd" clip-rule="evenodd" d="M116.235 20.916H134.467C137.505 20.916 139.705 21.6037 141.065 22.9789C142.454 24.3256 143.148 26.5031 143.148 29.5115V33.3795C143.148 35.7576 142.743 37.6056 141.933 38.9236C141.152 40.2415 139.893 41.1154 138.157 41.5452L143.583 51.0002H135.118L130.126 41.975H124.049V51.0002H116.235V20.916ZM128.25 27.2092C125.901 27.2092 123.997 29.0942 123.997 31.4195V36.2741H131.971C134.319 36.2741 136.223 34.389 136.223 32.0637V27.2092H128.25Z" fill="#313137"/>
</svg>
