<svg xmlns="http://www.w3.org/2000/svg" xmlns:xlink="http://www.w3.org/1999/xlink" viewBox="0 0 750 500" preserveAspectRatio="none">
<g fill="none" stroke="#EFECE7" stroke-miterlimit="10" opacity=".4">
<path d="M356.8-10c-11.1-3.7-19.6,4.7-28.4,9.6c-8.3,4.7-17,6.6-20.7,16.7c-1.5,4.1-1.9,8.7-4.1,12.4
c-1.7,2.8-4.2,4.9-6.7,6.9c-6.1,5-12.3,10.1-18.4,15.1c-4,3.3-8.1,6.7-10.6,11.2c-2.5,4.5-3.1,10.5-0.1,14.7
c5.3,7.3,16.6,4.8,25.1,7.7c11.1,3.9,16.5,16.9,27.1,22c-0.7,5.7-0.7,12.8,4.3,15.5c4.5,2.4,9.8-0.5,14.4-2.4
c5.4-2.3,11.7-3.3,17.2-1.1c5.5,2.2,9.6,8.2,8.3,13.9c-1.1,4.6-5.3,8.9-3.6,13.3c0.7,1.9,2.5,3.3,3.6,5c6.6,10.3-9,25.2,6.1,30.7
c11.3,4.1,25,0.4,34.3,10.6c9.1,9.9,4.6,26.9-3.1,36.3c-7.8,9.5-22,4-29,15.1c-1.2,1.9-1.9,4.1-3.2,6c-4.2,6.7-13,8.8-18.9,14.1
c-8.3,7.4-9.8,19.9-16.8,28.6c-4.5,5.6-10.9,9.2-16.6,13.6c-5.7,4.4-11,10.2-11.6,17.4c-0.5,5.8,2.5,11.3,2.3,17.1
c-0.2,6.5-2.5,11.4-1.6,18.3c0.3,2.2,0.7,4.4,2.2,6c1.8,2.1,4.8,2.6,7.3,3.8c10.5,4.8,13,20.2,23.6,24.7
c5.7,2.4,13.1,1.3,17.5,5.6c3.7,3.7,3.6,10,1,14.5c-2.5,4.6-6.9,7.7-11.2,10.7c-24.2,16.5-50.9,29.4-78.8,38.2
c-1.8,0.6-3.8,1.1-5.6,0.4c-3.2-1.2-3.7-5.5-5.4-8.5c-2.8-5.2-9.5-7-15.3-6.6c-5.9,0.4-11.5,2.4-17.4,2.8
c-20.3,1.3-36-16.5-51.8-29.3c-13.1-10.6-28.4-18.6-44.6-23.3c-3.3-1-7-2-9.1-4.8c-2.9-3.9-1.5-9.3-1.8-14.1
c-0.5-8.1-6.7-15.4-14.5-17.3c-4.1-1-8.3-0.6-12.5-0.8c-17.8-0.9-37.1-12.2-52-2.5c-3.8,2.5-7.1,6.3-11.6,7
c-3.4,0.6-6.8-0.8-10-2.1c-14.5-6.1-29-12.1-43.5-18.2"/>
<path d="M767.1,281.8c-10.1,0.7-18.9-6.2-28.3-9.8c-11.3-4.3-23.7-3.8-35.7-4.9c-29.8-2.7-58.4-15.6-88.3-15
c-23.8,0.5-46.7,9.5-67.5,21.1c-10.1,5.6-20.1,12.1-27.4,21.1c-11.2,13.8-14.9,33.4-9.5,50.4c5.3,17,19.6,30.9,36.6,35.8
c17.1,5,35.3,1.3,53.1,2c17.8,0.7,37.9,8.4,42.9,25.5c0.9,3.2,1.3,6.6,2.9,9.5c2.5,4.7,7.7,7.2,12.6,9.4
c9.7,4.3,20.3,8.2,30.7,6.3c9.8-1.8,17.9-8.4,27-12.5c17.7-7.9,39.7-5.3,55,6.7"/>
<path d="M600.3-12.3c-8.8,9.4-18.2,18.5-24.5,29.7c-6.3,11.2-9.1,25.3-4,37.1c5.2,11.8,18,21.6,15.7,34.3
c-0.7,4.1-3,7.8-3.7,11.9c-1.1,7.2,3.2,14.4,9,18.8c5.9,4.3,13.1,6.4,20.2,8.2c11,2.9,22.6,5.5,33.8,3.3
c11.2-2.2,22-10.5,23.4-21.9c0.7-5.3-0.7-10.6-0.6-16c0.2-5.3,2.7-11.3,7.9-12.6c4.3-1.1,9.2,1.3,13.1-0.7
c5.7-2.9,4-11.6,6.8-17.4c3.6-7.6,14.2-8.8,22-5.9c7.8,2.9,14.4,8.6,22.1,11.7c9.8,3.8,21.3,3,30.4-2.2"/>
<path d="M759.6,297.6c-17.1-7.5-35.9-9.9-54.3-12.2c-14.3-1.8-28.5-3.6-42.8-5.4c-17.1-2.1-34.4-4.3-51.6-2.6
c-17.4,1.7-34.3,7.5-49.2,16.7c-9,5.6-17.4,12.6-22.2,22c-4.8,9.4-5.3,21.5,0.7,30.1c3.6,5.1,9.1,8.6,14.9,11
c14.3,6.1,30.3,6.3,45.8,8.3c15.4,2,31.7,6.5,41.7,18.5c5.6,6.7,8.8,15.4,15.1,21.4c13.5,12.8,35.3,9.1,53,3.3
c17.7-5.8,37.5-12.8,54.2-4.5"/>
<path d="M684.7,325.9c-4.2,0.2-8.5,0.8-12,3.2c-3.5,2.4-5.8,6.8-4.6,10.8c1.2,4.1,5.6,6.4,9.8,7.3
c4.2,0.8,8.6,0.6,12.7,1.7c7.9,2.1,14.4,8.8,22.5,8.8c14.2,0,17.3-17.7,6.9-25.3C712.2,326.6,693.8,325.6,684.7,325.9z"/>
<path d="M704.9,310.7c-14.5-4.3-27.9-5.4-42.7-2.1c-14.9,3.3-29.9,18.4-20.8,34.3c6.4,11.1,19,14,30.1,18
c8.9,3.1,15.2,9.1,23.4,13.1c12.1,5.7,27,3.8,38.6-2.4c9.6-5.1,21.6-17.9,18.1-29.8c-3.3-11-17.1-19.1-26.8-23.7
C718.4,315,711.7,312.7,704.9,310.7z"/>
<path d="M762.4,320.1c-21.8-10-44-19.4-67.4-24.8c-23.4-5.4-48.1-6.7-71.2-0.5c-9,2.4-17.8,6.1-24.6,12.5
c-6.7,6.4-10.9,16-9.2,25.1c1.8,9.1,9,16.2,17.1,20.6c8.1,4.4,17.2,6.7,25.9,9.8c8.7,3.2,17.4,7.5,22.9,14.8
c2.1,2.7,3.7,5.8,5.9,8.4c6,6.9,16,9,25.1,8.2c9.1-0.8,17.7-4.2,26.5-6.8c17.5-5.1,35.9-6.9,54-5.3"/>
<path d="M606.8-6.1c-8.9,6-16.6,14.1-20.6,24.1c-4,9.9-3.8,21.9,2,30.9c3.3,5.2,8.3,9.2,11.2,14.6
c3.7,6.9,3.6,15.1,3,22.9c-0.3,4.5-0.8,9.4,1.3,13.4c2,3.9,5.9,6.4,9.9,8.3c5.7,2.7,11.9,4.7,18.1,4.1c7.4-0.8,14.2-5.6,17.5-12.2
c2.5-5,3-10.8,4.3-16.2c1.4-5.4,4.1-11.1,9.1-13.4c3.1-1.4,6.6-1.5,9.7-2.9c10.1-4.7,9.6-20.2,18.3-27.1c5.9-4.7,14.5-4,21.5-1.4
c7,2.6,13.3,7,20.5,9.4c11.7,3.9,25.1,1.8,35.1-5.3"/>
<path d="M630.3-6.1c-5.7,3-10.9,6.8-15.5,11.3c-6.7,6.6-12.2,15.9-9.7,24.9c2,7.2,8.5,12.4,10.6,19.6
c1.1,3.8,0.9,7.9,1.5,11.8c0.7,3.9,2.7,8.1,6.5,9.4c1.5,0.5,3.2,0.5,4.8,0.1c7.6-1.8,10.8-10.8,16.6-16.1
c4.9-4.5,11.6-6.4,17.1-10.1c8.2-5.6,13-15.4,14.2-25.3c1.3-9.9-0.7-19.9-3.6-29.4"/>
<path d="M690.2-6.5c0,14.5,9.1,28.7,22.3,34.7c7.6,3.5,16.2,4.3,24.5,4.8c9,0.6,18.7,0.8,26.5-3.7"/>
<path d="M711.7-7.9c-0.3,5.8,4,11,8.9,14.2c6.8,4.5,15,6.4,23.1,6.6c8.1,0.2,16.2-1.4,24-3.5"/>
<path d="M644.4-5.8c0.1,5.3-4.5,9.4-7,14c-1.7,3-2.5,6.5-3.2,9.9c-0.9,4.7-1,10.4,2.9,13.2c2.6,1.9,6.3,1.7,9.2,0.2
c2.8-1.5,5-4.1,6.7-6.8c6.8-10.7,8.4-24.5,4.3-36.5"/>
<path d="M-13.6,107.1c3.8,5.5,9.2,9.7,14.7,13.4c18.3,12.2,39.4,20.6,61.3,22s44.6-4.2,62-17.6
c8.2-6.3,15.2-14.2,24.1-19.5C162.7,97,179.9,96,196,93c16.2-3,33.4-9.5,41.1-24.1c3.4-6.4,4.6-13.9,9-19.7
c6.3-8.1,17.6-10.6,25-17.6c7-6.6,9.8-16.4,15.2-24.3c6.3-9.3,16.2-16,27.2-18.3"/>
<path d="M-13.7,94.7c3.3,4.8,8,8.4,12.8,11.7c15.8,10.7,34.2,18.1,53.2,19.5c19,1.5,38.7-3.3,54.1-14.4
c2.5-1.8,4.9-3.7,7.3-5.8c4.7-4.1,9-8.4,14-11.8c2-1.4,4.1-2.5,6.3-3.5c9.1-4.3,19.7-5.9,30-7.6c1.9-0.3,3.8-0.6,5.6-1
c8.3-1.5,16.9-3.8,24.1-8c5.4-3.1,10.1-7.3,13.2-12.7c3.2-5.6,4.6-12.2,8.5-17.3c5.7-7.3,15.4-10,21.7-16.5
c2.5-2.6,4.4-5.7,6.1-9c2.2-4.4,4-9,6.5-13.1c5.1-8.5,13.4-14.8,22.9-17.4"/>
<path d="M-13.8,82.4c2.8,4,6.8,7.2,10.9,10c13.4,9.2,28.9,15.6,45.1,17c16.2,1.5,32.8-2.4,46.1-11.3
c2.3-1.5,4.5-3.1,6.6-4.9c4.2-3.6,7.7-7.6,11.8-10.9c1.6-1.3,3.4-2.4,5.2-3.4c7.6-4.3,17-6,26.2-7.5c1.7-0.3,3.3-0.5,5-0.8
c7.4-1.3,15-3.1,21.5-6.6c4.9-2.6,9.1-6.1,12-10.8c3-4.8,4.5-10.4,8.1-15c5-6.4,13.2-9.3,18.4-15.3c2.1-2.4,3.6-5.2,4.9-8.1
c1.8-3.9,3.2-8,5.1-11.8c4-7.7,10.5-13.7,18.6-16.4"/>
<path d="M-13.9,70c2.4,3.3,5.6,5.9,8.9,8.2c11,7.7,23.7,13,37,14.5c13.3,1.5,26.9-1.4,38.2-8.1c2-1.2,4.1-2.4,5.9-4
c3.7-3.1,6.4-6.8,9.7-10c1.3-1.2,2.6-2.4,4.1-3.3c6.2-4.2,14.3-6.1,22.3-7.4c1.5-0.2,2.9-0.5,4.4-0.7c6.4-1,13.1-2.4,18.9-5.2
c4.3-2.1,8.1-5,10.9-8.9c2.9-3.9,4.5-8.7,7.6-12.6c4.4-5.6,10.9-8.7,15.1-14.2c1.6-2.2,2.8-4.7,3.8-7.3c1.3-3.4,2.3-7.1,3.7-10.4
c2.9-6.9,7.7-12.5,14.4-15.5"/>
<path d="M-14,57.6c1.9,2.6,4.4,4.6,7,6.5c8.5,6.2,18.4,10.5,28.8,12c10.4,1.5,21-0.4,30.2-4.9c1.8-0.9,3.6-1.7,5.2-3
c3.2-2.6,5.1-6,7.5-9c0.9-1.2,1.9-2.3,3-3.2c4.7-4.2,11.7-6.2,18.5-7.3c1.2-0.2,2.5-0.4,3.7-0.6c5.5-0.8,11.2-1.7,16.2-3.8
c3.8-1.6,7.1-3.9,9.7-6.9c2.7-3.1,4.5-6.9,7.2-10.3c3.8-4.8,8.7-8.1,11.7-13c1.2-2,2-4.2,2.7-6.4c0.9-3,1.4-6.1,2.3-9.1
c1.8-6.1,4.8-11.3,10.1-14.6"/>
<path d="M-14.1,45.3c1.4,1.8,3.2,3.4,5.1,4.8c6.1,4.7,13.2,8,20.7,9.5c7.5,1.4,15.3,0.7,22.3-1.8
c1.6-0.5,3.2-1.1,4.5-2.1c2.7-2,3.8-5.2,5.3-8.1c0.6-1.1,1.2-2.2,2-3.2c3.2-4.2,9-6.3,14.7-7.2c1-0.2,2.1-0.3,3.1-0.4
c4.6-0.6,9.3-1,13.6-2.4c3.2-1.1,6.1-2.7,8.6-5c2.5-2.3,4.5-5.2,6.7-7.9c3.1-3.9,6.5-7.4,8.4-11.9c0.8-1.8,1.3-3.7,1.6-5.6
c0.4-2.5,0.6-5.2,0.9-7.8c0.6-5.3,1.9-10.2,5.8-13.6"/>
<path d="M-14.2,32.9c7.4,8.3,18.9,12.7,30,11.4c1.3-0.2,2.7-0.4,3.8-1.2c3.1-2.1,2.6-6.7,4-10.2
c1.8-4.2,6.4-6.4,10.8-7.1c4.4-0.8,9-0.4,13.5-1.4c10.9-2.3,19.4-12.9,19.2-24.1c-0.1-6.5-2.7-13.7,0.9-19.1"/>
<path d="M-32,306.9c9.6,12.3,20.8,25.5,36.3,27.3c12.7,1.5,24.9-5.2,37.7-5.4c12.2-0.3,23.8,5.4,35.9,7.1
c16.9,2.4,34.3-2.9,48.5-12.5c24.3-16.4,39.6-45.3,39.4-74.6c-0.1-10.4-1.9-21,0-31.2c1.5-7.7,5.1-14.8,7.5-22.2
c4.6-13.9,5.3-29.1,2-43.3c-0.9-4-2.3-8-5-11c-5.1-5.5-13.8-6-20.8-3.6c-7.1,2.4-13,7.1-19.3,11.1
c-25.4,16.1-56.6,20.5-86.6,19.5c-9.3-0.3-18.7-1.2-27.6-4.2c-11.9-4.1-22-12-31.9-19.7c-4.3-3.3-9.6-4.6-14.9-3.6
c-5.3,1-10,4.1-14.2,7.6c-16.2,13.6-25.9,34.6-25.7,55.7c0.1,8.7,1.7,17.2,3.8,25.7C-60.5,256.4-49.1,285.1-32,306.9z"/>
<path d="M25.4,179.8C15.8,177,7.3,171.4-1,165.7c-3.6-2.4-7.9-3.3-12.2-2.5c-4.3,0.8-8.2,3.2-11.7,5.9
c-13.6,10.6-22.2,26.9-22.7,44c-0.2,7,0.9,14,2.4,20.9c5.5,21.1,14.3,43.7,27.8,60.9c7.6,9.7,16.7,20,28.9,21.6
c10,1.3,19.8-3.6,29.9-3.9c10-0.3,19.4,3.5,29.1,4.4c13.6,1.2,27.5-3.6,39.2-11.3c19.3-12.8,31.9-34.8,32.6-57.7
c0.2-8.1-1-16.3,0.7-24.3c1.3-6,4.1-11.6,6-17.4c3.6-11,4-22.8,1.3-34c-0.8-3.1-1.8-6.2-4-8.6c-3.9-4.3-10.7-4.9-16.2-3.3
c-5.5,1.6-10.2,5-15.2,7.9c-19.9,11.6-44.5,14.8-68,14.1C39.7,182.6,32.3,181.9,25.4,179.8z"/>
<path d="M34.8,195.8c-7.3-1.7-14.1-5-20.8-8.5c-2.8-1.5-6.2-2-9.5-1.3c-3.4,0.7-6.4,2.4-9.2,4.3
c-11,7.6-18.5,19.3-19.7,32.3c-0.4,5.3,0.1,10.7,1.1,16.2c4.4,15.3,10.7,31.8,20.5,44.4c5.7,7.2,12.5,14.6,21.5,16
c7.4,1.1,14.7-2.1,22.2-2.4c7.8-0.3,15,1.7,22.4,1.6c10.3,0,20.8-4.3,29.8-10.2c14.2-9.2,24.3-24.4,25.8-40.7
c0.5-5.8,0-11.6,1.4-17.3c1-4.4,3-8.4,4.4-12.6c2.6-8,2.8-16.6,0.6-24.6c-0.6-2.2-1.4-4.5-3-6.2c-2.8-3.1-7.6-3.8-11.5-2.9
c-3.9,0.9-7.4,3-11,4.7c-14.5,7.1-32.3,9-49.4,8.8C45.2,197.4,39.8,197,34.8,195.8z"/>
<path d="M44.2,211.8c-5-0.4-10.1-1.5-15.2-2.9c-2.1-0.6-4.5-0.7-6.8-0.2c-2.4,0.5-4.6,1.5-6.7,2.7
c-8.4,4.6-14.9,11.6-16.6,20.6c-0.7,3.6-0.7,7.4-0.2,11.5c3.4,9.4,7,19.9,13.3,27.9c3.7,4.7,8.3,9.2,14.1,10.3
c4.8,0.9,9.6-0.5,14.4-0.9c5.5-0.4,10.5-0.2,15.6-1.1c7-1.3,14-5,20.4-9c9.2-5.7,16.6-13.9,19-23.7c0.8-3.5,1-7,2-10.4
c0.8-2.7,2-5.2,2.8-7.8c1.6-5.1,1.5-10.4-0.1-15.2c-0.4-1.4-1-2.7-1.9-3.8c-1.7-2-4.5-2.6-6.9-2.5c-2.4,0.1-4.5,0.9-6.8,1.5
c-9.1,2.6-20.2,3.2-30.8,3.4C50.6,212.2,47.4,212.1,44.2,211.8z"/>
<path d="M20.6,248c2.4,3.6,3.4,8,6.1,11.3c3.1,3.9,8.4,6,13.4,5.3c7.7-1.1,13.1-8,19.9-11.7
c4.1-2.2,8.9-3.4,12.2-6.7c12.9-13.1-6.9-23.3-18.5-18.4C42.3,232.6,20.7,230.7,20.6,248z"/>
<path d="M293.3,113.4c5.2,6.1,8.3,13.7,13,20.1c4.8,6.4,12.4,11.8,20.2,10.3c2.2-0.4,4.3-1.4,6.5-1.1
c3.8,0.5,6.2,4.3,7.3,7.9c2.8,9,1.2,18.7,1.7,28.1c0.6,9.4,4.5,19.9,13.5,23c3.9,1.3,8.5,1.1,11.7,3.7c5.9,4.7,2.6,14.5-2.6,19.9
c-7.5,7.7-17.7,12.1-25.9,19c-11.5,9.7-18.4,23.8-28.9,34.6c-11.9,12.3-28.5,20.1-45.6,21.3c-17.1,1.2-34.6-4.1-48.2-14.6
c-8.7-6.7-15.6-15.4-22.1-24.2c-2.3-3.1-4.7-6.5-5.4-10.3c-0.6-3.4,0.1-6.9,1-10.2c2.5-10.1,5.7-20.1,9.7-29.8
c2.2-5.5,4.7-11,5.3-16.9c0.6-6.1-0.8-12.3-2-18.3c-3.3-16.6-4.7-35.1,4.6-49.2C223,102.2,272.2,88.8,293.3,113.4z"/>
<path d="M225.9,148.5c10.6-18.8,45.7-28.8,62.2-12.3c4,4,6.6,9.2,10.3,13.6c3.7,4.4,9.3,8.2,15,7.4
c1.6-0.2,3.2-0.8,4.7-0.5c2.9,0.5,4.9,3.5,5.9,6.3c2.1,5.7,2.1,11.9,2.1,18.2c0,1.4,0,2.7,0.1,4c0.3,7.8,1.9,15.4,6.9,18.1
c2.2,1.2,4.7,1.5,6.5,3.5c3.4,3.6,1.3,10.1-2.3,14c-5.2,5.5-12.2,8.8-17.8,13.9c-3.7,3.3-6.7,7.3-9.6,11.4
c-3.3,4.6-6.4,9.3-10.2,13.5c-8.2,8.9-19.5,14.6-31.3,16.1c-12.1,1.5-24.9-1.5-34.9-9c-6.5-4.9-11.5-11.5-15.8-18.2
c-1.6-2.4-3.1-4.9-3.5-7.7c-0.4-2.5,0.2-5.1,0.7-7.5c0.7-3,1.5-6,2.3-8.9c1.3-4.4,2.7-8.8,4.2-13.1c1.5-4.1,3.1-8.2,3.4-12.5
c0.4-4.5-0.7-9-1.6-13.5C221,172.6,219.9,159.1,225.9,148.5z"/>
<path d="M244.8,170.4c5.3-13.2,26.3-19.8,38.1-11.4c2.8,2,4.9,4.7,7.6,7.1c2.7,2.4,6.3,4.5,9.8,4.5c1,0,2-0.2,3,0.1
c2.1,0.6,3.6,2.6,4.6,4.6c2,4,2.5,8.6,2.6,13.2c0,1,0,2,0,3c-0.1,6.2-0.7,10.7,0.3,13.1c0.4,1,1.2,1.5,1.4,3.2
c1.5,2,0.1,5.7-2,8.1c-2.9,3.3-6.7,5.6-9.7,8.8c-2,2.1-3.6,4.5-5.2,7c-1.8,2.8-3.4,5.6-5.5,8.2c-4.4,5.5-10.5,9.2-17.1,10.9
c-7.1,1.8-15.3,1.1-21.6-3.4c-4.3-3.1-7.3-7.7-9.5-12.2c-0.8-1.6-1.5-3.3-1.7-5.1c-0.1-1.6,0.2-3.3,0.5-4.9
c0.4-1.9,0.9-3.9,1.4-5.8c0.7-2.9,1.4-5.7,2.2-8.5c0.7-2.7,1.5-5.3,1.5-8.1c0.1-2.9-0.5-5.8-1.1-8.7
C242.7,186,241.9,177.5,244.8,170.4z"/>
<path d="M263.7,192.3c0.3,7.5,3.1,14.8,2.4,22.3c-0.2,2.4-0.9,4.9-0.8,7.3c0.1,2.5,1.1,5.1,3.2,6.3
c2.7,1.5,6.3,0.1,8.3-2.3c2-2.4,2.8-5.5,3.6-8.6c0.8-3,1.8-6.2,4-8.4c4.9-4.9,10.4-5,10.1-13.2c-0.1-4.5-2.5-8.8-6.3-11.2
C280.5,179.6,263.1,180.4,263.7,192.3z"/>
<path d="M166.1,319.6c-6.1,8.5-11.4,17.5-16,26.9c-1.8,3.7-3.5,7.5-3.5,11.6c-0.1,9.6,8.7,16.6,16.6,22
c13.4,9.2,26.8,18.4,40.2,27.6c7.1,4.8,14.5,9.8,23,10.8c8.8,1,18.2-2.4,26.2,1.3c3.4,1.6,6.2,4.3,9.4,6.1
c11.3,6.3,25.5,0.9,36.4-5.9c4.5-2.8,9.4-6.7,9.5-12.1c0.1-5.8-5.5-10-10.9-12.1c-5.4-2-11.5-3-15.8-6.8
c-8.2-7.3-6-20.3-7.7-31.1c-2.1-14-11.7-25.9-23.2-34.1c-12-8.5-29-18.3-42.9-23.3C190.5,294.4,175.3,306.6,166.1,319.6z"/>
<path d="M182.4,338.4c-2.8,5-5.7,10-7.7,15.3c-0.8,2.1-1.6,4.2-1.4,6.4c0.5,5.6,6.2,9.3,11.2,12.3
c8.4,5,16.7,10.3,24.9,15.8c4.3,2.9,8.8,6,13.8,7c5,1,10.3-0.2,14.9,1.9c2,0.9,3.7,2.4,5.6,3.3c6.8,3.4,15,0.4,21.5-3.6
c3-1.9,5.9-4.3,6.3-7.6c0.5-3.6-2.1-6.5-4.8-8.3c-2.7-1.8-5.8-3.1-8.2-5.8c-4.5-5.1-4.3-13-6.2-19.5c-1.3-4.5-3.8-8.5-6.9-11.8
c-2.8-3-6.3-5.7-10-7.9c-8.2-4.7-19.3-9.8-28.3-11.8C196.5,321.7,187.5,329.4,182.4,338.4z"/>
<path d="M198.7,357.3c-0.1,1.7,0.3,3.5,1.4,4.8c1.4,1.6,3.7,2.1,5.7,2.6c5.2,1.4,10.1,3.9,14.2,7.2
c1.2,0.9,2.3,2,3.6,2.6c2.6,1.3,5.9,0.9,8.4-0.7c9.6-6,2.6-20.6-5.8-24.1C217.9,346.3,199.3,344.3,198.7,357.3z"/>
<path d="M-12.2,372.1c10.5,13.2,30.5,12.7,47.2,9.7c16.6-3,35.3-6.9,49.2,2.7c10.8,7.3,15.7,20.8,25.5,29.4
c10.3,9,24.7,11.4,36.6,18.3c19.1,11.1,32.9,34.3,55.1,34.9c6.3,0.2,12.6-1.7,18.9-1.2c10,0.8,18.6,7.3,27.9,11
c20.9,8.3,44.8,2.3,64.9-7.7c20.1-10,38.3-23.8,59.1-32.2s46.1-10.7,64.6,2c30,20.6,27,67.1,50.5,94.8"/>
<path d="M276.4,509.8c21.4-14.5,43.5-28,66.3-40.3c13.2-7.1,26.8-13.9,41.6-16.3c14.8-2.3,31,0.4,42.1,10.5
c8.6,7.9,13.1,19.3,17.3,30.2c2.2,5.6,4.3,11.2,6.5,16.8"/>
<path d="M317.8,510.8c9.3-6.8,18.6-13.5,28-20.3c7.1-5.2,14.4-10.4,22.6-13.7c8.2-3.3,17.6-4.5,25.8-1.4
c13.6,5.1,20.6,19.7,26.4,33"/>
<path d="M-14.9,400.7c13.1,5.9,28.3,2.8,42.4,0c14.1-2.8,29.8-4.8,42,2.8c4.2,2.7,7.7,6.3,11.4,9.8
c7.5,7.1,15.8,13.4,24,19.7c5.2,3.9,10.4,7.9,16.3,10.6c3.6,1.6,7.5,2.8,11.1,4.5c15.2,7.1,24.8,23.5,40.5,29.8
c15,6,33.4,1.7,47.1,10.3c9.6,6,14.7,17,17.7,27.9"/>
<path d="M-16.4,415.7c11.4,4.9,24.6,2.2,36.9-0.1c7.5-1.4,15.5-2.5,23-1.8c4.8,0.5,9.4,1.8,13.5,4.3
c3.7,2.2,6.8,5.3,10,8.3c6.6,6,13.9,11.4,21.1,16.7c4.5,3.4,9.1,6.8,14.2,9.1c3.1,1.4,6.5,2.5,9.6,4c4.7,2.2,8.7,5.4,12.6,8.9
c7.1,6.4,13.6,13.6,22.2,17.4c4.2,1.8,8.8,2.7,13.4,3.4c9.3,1.3,19,1.5,27,6.6c8.3,5.2,12.9,14.7,15.8,23.9"/>
<path d="M-17.8,430.6c9.8,3.8,21,1.7,31.4-0.1c6.4-1.1,13.2-2,19.6-1.3c4.1,0.4,8,1.5,11.6,3.5
c3.2,1.8,5.9,4.3,8.7,6.7c5.8,4.9,12,9.3,18.2,13.8c3.9,2.8,7.8,5.7,12.1,7.7c2.7,1.2,5.5,2.2,8.1,3.5c3.9,1.9,7.4,4.7,10.6,7.7
c6,5.5,11.4,11.7,18.5,15.1c3.5,1.7,7.3,2.6,11.1,3.3c7.7,1.4,15.8,2,22.5,6.3c7,4.5,11.2,12.3,13.9,19.9"/>
<path d="M-19.3,445.5c8.1,2.7,17.3,1.1,26-0.2c5.3-0.8,10.9-1.4,16.2-0.9c3.4,0.4,6.6,1.2,9.6,2.8
c2.7,1.4,5,3.3,7.3,5.2c4.9,3.8,10.1,7.2,15.3,10.8c3.3,2.2,6.5,4.5,10.1,6.2c2.2,1,4.5,1.9,6.6,3c3.2,1.7,6,4,8.7,6.5
c4.9,4.6,9.2,9.8,14.8,12.9c2.8,1.5,5.7,2.5,8.8,3.2c6.1,1.6,12.6,2.4,18.1,6c5.7,3.8,9.4,9.9,12,15.8"/>
<path d="M-20.8,460.5c6.5,1.7,13.6,0.6,20.5-0.2c4.2-0.5,8.6-0.8,12.7-0.4c2.6,0.3,5.2,0.9,7.6,2c2.1,1,4,2.3,6,3.6
c4,2.7,8.2,5.2,12.4,7.8c2.6,1.7,5.2,3.4,8,4.8c1.7,0.9,3.5,1.6,5.1,2.5c2.5,1.4,4.6,3.2,6.7,5.2c3.7,3.7,7,7.9,11.1,10.6
c2,1.4,4.2,2.3,6.5,3.2c4.5,1.7,9.4,2.9,13.7,5.8c4.5,3,7.6,7.6,10.2,11.8"/>
<path d="M-22.3,475.4c4.8,0.6,10,0,15-0.3c3.1-0.2,6.2-0.3,9.3,0c1.9,0.2,3.8,0.6,5.6,1.2c1.6,0.6,3.1,1.3,4.6,2.1
c3.1,1.6,6.4,3.1,9.5,4.9c2,1.1,3.9,2.3,5.9,3.3c1.2,0.7,2.5,1.3,3.6,2c1.7,1.1,3.3,2.5,4.7,4c2.6,2.8,4.8,5.9,7.4,8.4
c1.3,1.2,2.7,2.2,4.1,3.1c2.9,1.8,6.2,3.3,9.2,5.5c3.2,2.3,5.9,5.2,8.3,7.8"/>
<path d="M-23.8,490.3c5.1-0.8,10.2-0.4,15.3,0.1c8.2,0.9,17.1,2.7,22.3,9.1c2.3,2.8,3.6,6.2,5.6,9.2
c2.7,4,6.7,7.2,11.2,9"/>
<path d="M331.7,18.8c-3.8,5.5-5.2,12.5-9.5,17.7c-5.3,6.5-14,9-20.4,14.4c-1.3,1.1-2.5,2.3-3.1,3.8
c-1.6,3.7,0.7,8.1,3.9,10.6c7.5,6.2,19.3,6.1,25.5,13.6c2.7,3.2,3.9,7.5,6.3,10.9c8.3,11.6,26.2,9.5,38.9,16.2
c6.8,3.6,12,9.9,14.3,17.2c3.6,11.6,0.6,26.5,10,34.3c2.6,2.2,5.9,3.4,9.2,4.2c10.7,2.8,22.3,2,32.6-2.2
c6.5-2.7,12.4-6.7,18.3-10.5c11.5-7.5,23.5-14.8,37.1-16.9c18-2.7,37.6,4.1,54.2-3.4c15.4-7,23.6-26.8,17.6-42.7
C562.5,75.2,553,66.9,550,55.7c-3-10.9,0.8-22.6,6-32.6c5.3-10,12.1-19.2,16-29.8c0.7-1.8,1.3-3.9,0.5-5.7
c-0.5-1.1-1.3-1.9-2.2-2.7c-20.4-18.2-47.5-28-74.7-29.7c-27.2-1.8-54.6,4.1-80,14.3c-9.1,3.7-17.7,8-24.1,15.5
c-5.2,6.1-10.1,10.6-17.7,13.8C359.9,4.6,341.1,5.3,331.7,18.8z"/>
<path d="M424.2-16.6c-7.1,2.9-13.9,6.2-19.1,12C400.9,0.1,397,3.5,391,6c-11,4.6-25.7,5.2-33.3,15.6
c-3.1,4.2-4.4,9.6-7.8,13.6c-4.3,5-11,7.1-16.1,11.3c-1,0.8-1.9,1.8-2.5,3c-1.3,2.8,0.4,6.2,2.7,8.2c5.5,4.8,14.3,4.9,18.8,10.7
c2,2.5,2.9,5.8,4.7,8.4c6.2,9,19.6,7.7,29.2,13c5.4,3,9.9,7.8,12.1,13.3c1.1,2.7,1.7,5.6,2.3,8.6c1.2,6.4,2.2,12.7,7.5,16.7
c2.2,1.6,4.8,2.6,7.5,3.3c8.5,2.3,17.5,2.1,25.5-0.7c5.1-1.8,9.6-4.5,14.2-7.1c5.9-3.4,12-6.7,18.5-9c3.4-1.2,6.9-2.1,10.6-2.5
c14.3-1.8,29.8,3.1,42.7-3.2c11.9-5.7,18.2-21,13.9-33.4c-2.9-8.4-10-15-11.9-23.6c-1.9-8.7,1.6-17.7,6-25.6
c4.4-7.9,9.8-15.3,12.5-24c0.5-1.5,0.9-3.1,0.3-4.6c-0.4-0.9-1.1-1.6-1.7-2.2c-15.5-14.5-36.3-22.6-57.6-24.1
c-0.5,0-1-0.1-1.5-0.1C466.1-29.9,444.4-24.7,424.2-16.6z"/>
<path d="M432.8-2.6c-5.2,2.1-10.2,4.5-14.1,8.5c-3.1,3.2-6.1,5.6-10.5,7.4c-8.1,3.3-18.6,4-24.4,11.1
c-2.4,2.9-3.5,6.6-6.1,9.5c-3.2,3.5-8.1,5.2-11.7,8.2c-0.7,0.6-1.4,1.3-1.8,2.1c-0.9,2,0.1,4.3,1.6,5.7c3.5,3.4,9.2,3.7,12.2,7.8
c1.3,1.8,1.8,4.1,3,5.9c4,6.4,13,5.9,19.6,9.7c4.1,2.5,7.8,5.8,9.9,9.3c1.1,1.8,1.8,3.6,2.5,5.5c1.5,4,2.8,8,7.1,10.7
c1.7,1.1,3.8,1.8,5.9,2.4c6.2,1.8,12.7,2.1,18.3,0.8c3.6-0.8,6.8-2.3,10.1-3.7c4.2-1.8,8.6-3.6,13.3-4.8c2.5-0.6,5.1-1.1,7.7-1.3
c10.5-0.9,22,2,31.3-2.9c8.3-4.4,12.8-15.3,10.2-24.2c-1.8-6.1-6.4-10.9-7.2-17c-0.8-6.5,2.4-13,5.9-18.6
c3.6-5.8,7.4-11.3,9-18.2c0.3-1.1,0.5-2.3,0-3.4c-0.3-0.7-0.8-1.2-1.3-1.7c-11-11.3-26.4-17.8-42.3-18.6c-0.4,0-0.8,0-1.1,0
C463.8-13.3,447.7-8.6,432.8-2.6z"/>
<path d="M441.4,11.3c-3.2,1.3-6.4,2.7-9.1,4.9c-2.1,1.7-4.1,3.1-6.8,4.2c-5.2,2-11.6,2.7-15.5,6.7
c-1.7,1.7-2.7,3.7-4.4,5.4c-2.2,2.1-5.1,3.2-7.4,5.1c-0.5,0.4-0.9,0.8-1.2,1.3c-0.6,1.1-0.2,2.4,0.5,3.2c1.5,2,4.1,2.5,5.5,4.9
c0.6,1,0.8,2.4,1.4,3.5c1.9,3.8,6.4,4.1,10,6.5c2.8,1.9,5.7,3.7,7.8,5.3c1.1,0.8,1.9,1.6,2.8,2.4c1.8,1.7,3.5,3.3,6.7,4.7
c1.3,0.5,2.8,1,4.2,1.4c4,1.3,7.8,2.1,11.2,2.3c2.1,0.1,4.1-0.1,6-0.3c2.5-0.3,5.2-0.5,8.1-0.7c1.6-0.1,3.2-0.1,4.9-0.1
c6.7,0,14.2,1,19.8-2.6c4.8-3,7.4-9.5,6.4-15c-0.6-3.7-2.8-6.8-2.6-10.4c0.3-4.3,3.2-8.2,5.8-11.7c2.7-3.7,5.1-7.3,5.5-12.4
c0.1-0.7,0.1-1.6-0.2-2.3c-0.2-0.4-0.5-0.8-0.8-1.2c-6.6-8.1-16.5-12.9-27.1-13.1c-0.2,0-0.5,0-0.7,0
C461.6,3.3,451.1,7.4,441.4,11.3z"/>
<path d="M429.7,33.6c-1.9,1.8-3,4.7-1.8,7.1c2.2,2,5.7,1.6,8.6,0.7c2.9-0.9,6-2,8.8-0.9c4.3,1.7,5.2,7.5,8.9,10.2
c3.1,2.3,8,1.7,10.5-1.3c2.3-2.8,2.4-6.8,4.8-9.5c4.3-4.9,10.8-5.2,7-13.2c-2.3-4.8-6.6-8.1-11.9-7.6c-5,0.5-10,4.1-14.6,6
C443.7,27.8,434.7,28.9,429.7,33.6z"/>
<path d="M756.9,89.2c-10.4-4.7-21.2-8.7-32.1-12c-5.8-1.7-14-2.1-16,3.6c-0.7,2.1-0.3,4.4-0.8,6.6
c-1.2,5.7-7.8,8.3-13.6,9c-1.4,0.2-2.8,0.3-4,1.1c-2,1.3-2.5,4.1-2.7,6.5c-0.8,9-0.9,18.5-5.7,26.2c-7.2,11.6-22.5,14.9-36.1,15.2
c-14.7,0.4-29.4-1.5-43.6-5.4c-10.1-2.8-20.6-6.8-30.9-4.4c-5.5,1.3-10.4,4.3-15.7,6.1c-8.4,2.8-17.5,2.4-26.4,3
c-26.6,1.6-52.7,12-73.1,29.2c-6.8,5.7-13.2,12.4-16.5,20.6c-4,9.8-3.3,21-0.3,31.1c3,10.1,8.3,19.4,13.6,28.6
c3.7,6.5,8.8,13.8,16.3,13.7c2.9-0.1,5.9-1.4,8.7-0.5c4.2,1.3,5.5,6.6,8.3,10c4.6,5.5,13.3,5.6,19.8,2.6c6.5-3,11.5-8.4,16.9-13.1
c28.7-25,69.4-30.2,107.5-30.5c9.5-0.1,19.2,0.1,28.3,3c5.5,1.8,10.8,4.5,16.3,6.2c9.6,2.9,19.8,2.4,29.9,2.8
c22.1,0.9,44,6.6,63.9,16.4"/>
<path d="M753.7,103.9c-4.8-4.1-9.8-8.4-15.9-10c-6.1-1.6-13.7,0.2-16.6,5.8c-0.6,1.1-1,2.4-2,3.3
c-1.5,1.3-3.6,1.1-5.5,1.2c-6.6,0.4-12.8,5.2-14.8,11.5c-2.6,7.9,0.8,17.4-3.6,24.5c-2.7,4.4-7.7,6.7-12.5,8.5
c-17.1,6.3-35.6,8.8-53.7,7.2c-17.2-1.5-34.5-6.7-51.5-3.5c-6.2,1.2-12.2,3.4-18.3,4.8c-7.7,1.7-15.6,2.1-23.4,3.2
c-14.5,2-28.6,6.6-41.6,13.4c-11.8,6.2-22.9,14.5-29.3,26.2c-6.3,11.7-6.9,27.2,1.2,37.7c1.3,1.7,2.9,3.3,5,3.9
c2.8,0.8,5.8-0.3,8.7,0.2c6.8,1.2,9.5,10.9,16.3,12.1c3.1,0.5,6.2-0.9,9-2.3c20.6-10.5,40.8-22.7,63.4-27.5
c11-2.3,22.2-2.7,33.4-3.1c19.6-0.7,39.5-1.4,58.5,3.6c6.4,1.7,12.6,4,19.1,5.4c13.7,2.9,27.8,1.4,41.7,2.7
c12.8,1.2,25.4,5,36.9,10.9"/>
<path d="M506,191c-4,2.2-8,4.6-10.5,8.4c-2.5,3.8-3,9.3,0.1,12.6c1.6,1.8,4.1,2.9,5.2,5c0.8,1.7,0.5,3.8,1.2,5.6
c1,2.9,4.3,4.4,7.4,4.4c3.1,0,6-1.3,8.7-2.6c16.8-7.7,33.6-16.4,51.9-19c15.8-2.3,32,0.1,47.8-2.5c5.8-0.9,12.4-3.5,13.7-9.2
c3.6-15.5-20.1-26.8-32.4-26.1c-19.7,1.2-39.7,3.2-58.7,8.9C528.5,180.3,516.9,185.1,506,191z"/>
<path d="M758.4,120.5c-4.4,0.6-8.6-2-12.6-4c-4-2.1-9-3.6-12.7-1.1c-2.4,1.6-3.6,4.5-5.9,6.3c-1.8,1.4-4.3,2-5.9,3.7
c-2.2,2.2-2.4,5.7-2.9,8.7c-1.3,7.4-5.3,14.3-11.2,19.1c-6.2,5.1-14.1,7.6-21.7,10.1c-7.6,2.5-15.4,5.4-21.3,10.9
c-5.8,5.5-9.1,14.5-5.7,21.8c3.3,7.2,11.7,10.5,19.5,12c13.6,2.7,27.7,2.1,41.4,3.8c13.8,1.7,28,6.2,37.1,16.7"/>
<path d="M756.6,146.3c-1.7-2.9-5.4-4.3-8.6-3.7c-3.3,0.6-6.1,3-7.5,6.1c-0.8,1.8-1.2,3.9-2,5.7
c-2.9,6.8-10.7,9.6-17.5,12.4c-5.6,2.3-11,5.1-16.1,8.2c-4,2.5-8.3,6-8.4,10.7c0,3.4,2.3,6.5,5.2,8.2c2.9,1.7,6.4,2.2,9.8,2.5
c8.2,0.6,16.6-0.4,24.8,1.1c8.1,1.4,15.7,5.3,21.7,10.9"/>
<path d="M753.7,167.3c-4.6,1.5-9.2,2.9-13.8,4.4c-1.6,0.5-3.3,1-4.6,2.1c-2.1,1.7-3.1,4.4-3.1,7.1
c0,1.7,0.4,3.4,1.5,4.6c2.4,2.6,6.6,1.6,10,0.9c6.6-1.3,14.6-0.2,18.2,5.5"/>
<path d="M540.7,191.3c-1.2,0.6-2.5,1.2-3.2,2.3c-0.7,1.1-0.7,2.9,0.5,3.6c0.8,0.5,1.9,0.3,2.9,0.1
c11.7-2.7,23.5-5.6,35.5-6.1c3.8-0.2,18.3,2.9,14.6-2.8c-2.8-4.3-13.9-5.4-18.4-5.3C561.8,183.3,550.4,187,540.7,191.3z"/>
<path d="M383.3,267.5c-13.7,12.2-21.5,30.2-36,41.5c-7.6,5.9-17.6,10.8-19.8,20.2c-1.2,5.1,0.3,10.4,2.2,15.3
c1.4,3.6,3.1,7.1,5.4,10.2c10.6,14,32.3,16,42.3,30.5c3.5,5,5.3,11.3,9.8,15.5c4.4,4.1,10.6,5.5,16.6,5.8c6,0.3,12-0.5,18,0
c14.9,1.2,29.6,9.9,44.1,6.1c8.8-2.4,15.8-9.1,21.4-16.2c5-6.4,9.5-13.8,10.4-21.9c1.7-15.5-9.6-29.8-9.5-45.4
c0-4.6,1-9.1,1.1-13.7c0.1-4.6-0.8-9.5-4-12.8c-2.9-3-7.4-4.4-9.5-8c-0.6-1-0.9-2.2-1.6-3.1c-3.1-4.5-9.9-2.2-15.4-2.5
c-18.7-1.2-17.3-26.3-30.3-34.4C415.6,246.4,392.9,259,383.3,267.5z"/>
<path d="M391.9,288.9c-3.3,3.1-6.1,6.6-8.7,10.3c-4.7,6.6-9.2,13.6-15.6,18.7c-5.2,4.1-12,7.5-13.7,14
c-0.9,3.5,0,7.1,1.2,10.5c0.9,2.5,1.9,4.9,3.4,7c6.8,9.7,21.4,11.2,27.7,21.4c1.7,2.7,3.2,5.7,5.2,8.1c1,1.2,2.1,2.3,3.5,3.2
c1.2,0.8,2.6,1.4,4.1,1.9c3,0.9,6.3,1.2,9.5,1.3c4.3,0.2,8.6-0.2,12.9,0.2c7.5,0.7,14.8,4,22.1,5c3.2,0.4,6.3,0.4,9.4-0.4
c6.3-1.6,11.4-6.2,15.6-11.2c3.8-4.5,7-9.7,7.7-15.3c1.4-10.9-6.5-21.1-7.1-32.1c-0.2-3.2,0.4-6.3,0.3-9.5
c-0.1-3.2-0.9-6.5-3.2-8.8c-2.1-2.1-5.3-3.1-6.8-5.6c-0.4-0.7-0.7-1.5-1.2-2.1c-2.3-3.1-7.2-1.7-11.1-2
c-13.2-1.1-13.2-18-22.6-23.6c-8-4.6-20.7,0.6-28.7,6.1C394.3,286.8,393,287.9,391.9,288.9z"/>
<path d="M400.5,310.2c-1.7,1.8-3.1,3.8-4.4,5.8c-2.3,3.8-4.7,7.6-8.1,10.5c-2.8,2.3-6.4,4.3-7.5,7.8
c-0.6,1.9-0.3,3.8,0.2,5.6c0.3,1.3,0.8,2.7,1.4,3.8c3,5.3,10.2,6.5,13.2,12.4c1.1,2.2,2.6,4.4,4.4,5.6c1,0.7,2,1.2,3.1,1.5
c1,0.3,2.1,0.5,3.2,0.5c2.3,0.1,4.8-0.1,7.3,0c2.6,0.1,5.2,0,7.8,0.3c4.5,0.6,8.9,2.6,13.3,3.2c1.9,0.3,3.8,0.3,5.7-0.1
c3.9-0.8,7.1-3.3,9.8-6.2c2.5-2.6,4.4-5.5,5-8.8c1.1-6.4-3.5-12.4-4.6-18.7c-0.3-1.8-0.3-3.5-0.6-5.3c-0.3-1.8-1-3.6-2.4-4.9
c-1.3-1.2-3.2-1.8-4.2-3.1c-0.3-0.4-0.5-0.8-0.8-1.1c-1.5-1.7-4.4-1.1-6.8-1.4c-7.8-1-9-9.9-15-12.8c-5.2-2.5-12.7,0.2-17.7,3.3
C401.9,309,401.1,309.6,400.5,310.2z"/>
<path d="M409.9,331c-0.3,0.1-0.7,0.3-0.9,0.6c-0.2,0.4-0.1,0.9-0.1,1.4c0.2,3.5-5.2,5.4-4.8,8.9
c0.2,1.7,1.9,3,3.7,3.2c1.7,0.2,3.5-0.4,5.1-1c1.6-0.6,3.3-1.3,5.1-1.3c2.5,0,4.7,1.5,7.2,2c2,0.4,4.2,0,6-1
c6.4-3.6-0.7-9-4.8-10.4C421.7,331.7,414.8,329,409.9,331z"/>
<path d="M498.5,514c-10.6-17.1-19.3-35.5-25.8-54.6c-1.8-5.3-3.5-11.2-1.4-16.4c3.3-8.4,14-10.6,20.8-16.5
c7.5-6.6,9.9-17.6,17.7-23.8c6-4.8,14.2-5.9,21.9-5.3c7.7,0.6,15.2,2.7,22.8,3.5c12.2,1.3,24.5-0.5,36.7,0.1
c12.2,0.6,25.3,4.4,32.6,14.2c3.7,4.9,5.6,10.8,8.7,16.1c7.1,11.9,20.3,19.5,34.1,21.7c13.7,2.1,27.9-0.7,40.7-6
c8.9-3.7,17.4-8.5,26.7-10.8c9.4-2.2,20.2-1.3,27.1,5.4c2.2,2.1,7,4.3,9.1,6.6c9.5,10.6,15.1,24.2,18.1,38.1
c2.9,13.9,3.2,28.2,3.1,42.4"/>
<path d="M524.8,512.7c-8.4-13.2-15.2-27.4-20.2-42.2c-1.4-4.1-2.7-8.7-1.1-12.7c2.5-6.5,10.5-8.4,15.6-13.1
c5.7-5.3,7.7-14,13.9-19c4.7-3.9,11.2-4.9,17.3-4.5c2.4,0.1,4.9,0.5,7.3,0.9c3.6,0.6,7.2,1.3,10.9,1.7c9.7,1.1,19.4-0.1,29.1,0.5
c9.6,0.5,19.8,3.3,25.8,10.6c3,3.6,4.6,8,7.2,11.9c4.1,6.1,10.3,10.7,17.4,13.4c3.1,1.2,6.4,2,9.7,2.5c10.8,1.6,22-0.5,32.1-4.3
c7-2.6,13.6-6.2,20.9-7.4c7.3-1.3,15.6,0.1,20.7,5.8c1.7,1.8,5.3,3.8,6.8,5.7c7.1,8.6,11.5,19.4,14,30.4c2.4,11,3,22.3,3.4,33.4"
/>
<path d="M551,511.3c-6.1-9.3-11.1-19.4-14.6-29.9c-1-2.9-1.9-6.2-0.9-9.1c1.6-4.7,7-6.2,10.4-9.7
c4-4.1,5.6-10.5,10.1-14.2c3.5-2.9,8.2-3.8,12.7-3.7c1.8,0,3.6,0.2,5.4,0.5c2.7,0.4,5.4,0.9,8,1.2c7.1,0.9,14.3,0.4,21.5,0.8
c7,0.4,14.4,2.2,19,7c2.3,2.4,3.7,5.2,5.7,7.8c3.2,4,7.8,6.9,13,8.6c2.3,0.8,4.7,1.3,7.1,1.6c7.9,1,16.1-0.3,23.4-2.6
c5.1-1.6,9.9-3.8,15-4.1c5.3-0.3,10.9,1.5,14.3,6.1c1.1,1.5,3.5,3.2,4.6,4.7c4.6,6.7,7.9,14.6,9.9,22.7
c1.9,8.1,2.8,16.4,3.6,24.4"/>
<path d="M577.3,510c-3.9-5.3-7-11.3-9.1-17.6c-0.6-1.8-1.1-3.7-0.6-5.4c0.7-2.8,3.5-4,5.2-6.3
c2.2-2.9,3.4-6.9,6.2-9.4c2.2-1.9,5.2-2.8,8.1-2.9c1.2-0.1,2.3,0,3.5,0.1c1.8,0.2,3.5,0.5,5.2,0.7c4.6,0.6,9.3,0.8,13.9,1.2
c4.4,0.3,9,1.2,12.2,3.4c1.6,1.1,2.7,2.4,4.2,3.6c2.3,1.8,5.3,3.1,8.6,3.8c1.4,0.3,3,0.5,4.5,0.7c5,0.4,10.1-0.2,14.7-0.9
c3.2-0.5,6.2-1.3,9.2-0.8c3.4,0.7,6.2,2.9,7.9,6.5c0.6,1.2,1.7,2.5,2.3,3.8c2.3,4.7,4.3,9.8,5.8,15.1c1.5,5.2,2.6,10.5,3.8,15.4"
/>
<path d="M603.5,508.7c-2.8-2.4-4.5-6.3-3.8-9.9s3.8-6.8,7.5-7.1c3-0.2,5.8,1.3,8.8,1.7c4.1,0.6,8.1-1,12.2-1.8
c4.1-0.8,8.9-0.3,11.3,3.1c1.9,2.7,1.4,6.4,1.6,9.7c0.3,5.1,2.4,10,5.7,13.8"/>
</g>
</svg>