<svg width="1168" height="216" viewBox="0 0 1168 216" fill="none" xmlns="http://www.w3.org/2000/svg">
<path d="M634.622 135.213C539.014 135.213 461.508 212.719 461.508 308.327H807.736C807.736 212.719 730.23 135.213 634.622 135.213Z" fill="#A9D379"/>
<path d="M925.769 85.9019C791.049 85.9019 681.836 194.88 681.836 329.31H1169.7C1169.7 194.88 1060.49 85.9019 925.769 85.9019Z" fill="#80CA5C"/>
<circle cx="624" cy="33" r="8" fill="#F1C9DC"/>
<circle cx="384" cy="183" r="8" fill="#F1C9DC"/>
<rect x="228" y="50" width="79.9474" height="108.624" rx="10" fill="#E1EAF1"/>
<circle cx="238.06" cy="62.0243" r="4.21656" fill="#FDFBF8"/>
<circle cx="297.886" cy="62.0232" r="4.21656" fill="#FDFBF8"/>
<circle cx="238.06" cy="146.6" r="4.21656" fill="#FDFBF8"/>
<circle cx="297.886" cy="146.6" r="4.21656" fill="#FDFBF8"/>
<mask id="mask0" style="mask-type:alpha" maskUnits="userSpaceOnUse" x="228" y="80" width="80" height="58">
<rect x="228" y="80" width="80" height="58" fill="#C4C4C4"/>
</mask>
<g mask="url(#mask0)">
<mask id="mask1" style="mask-type:alpha" maskUnits="userSpaceOnUse" x="165" y="75" width="281" height="60">
<rect x="165" y="75" width="280.263" height="59.8315" fill="#C4C4C4"/>
</mask>
<g mask="url(#mask1)">
<path d="M226.013 104.522C190.143 104.522 161.064 133.601 161.064 169.471H290.962C290.962 133.601 261.883 104.522 226.013 104.522Z" fill="#A9D379"/>
<path d="M335.243 86.0216C284.699 86.0216 243.725 126.908 243.725 177.343H426.762C426.762 126.908 385.787 86.0216 335.243 86.0216Z" fill="#80CA5C"/>
</g>
<path d="M303.55 92.7211V92.067C303.55 89.2686 301.275 87 298.47 87C295.665 87 293.391 89.2686 293.391 92.067V92.7211C290.938 92.89 289 94.9269 289 97.4167C289 100.017 291.113 102.125 293.72 102.125H303.22C305.827 102.125 307.94 100.017 307.94 97.4167C307.94 94.927 306.003 92.89 303.55 92.7211V92.7211Z" fill="#A9D379"/>
<path d="M292.803 97.4163C292.803 98.7165 293.332 99.8942 294.186 100.746C295.04 101.598 296.22 102.125 297.524 102.125H293.72C292.417 102.125 291.236 101.598 290.383 100.746C289.528 99.8942 289 98.7165 289 97.4163C289 94.9269 290.938 92.8895 293.391 92.7204V92.0666C293.391 90.6671 293.959 89.4007 294.878 88.484C295.798 87.5672 297.068 87 298.471 87C299.143 87 299.786 87.1298 300.373 87.3676C299.734 87.6242 299.16 88.0065 298.682 88.484C297.763 89.4008 297.194 90.6672 297.194 92.0666V92.7204C294.741 92.8895 292.803 94.9269 292.803 97.4163V97.4163Z" fill="#A9D379"/>
<path d="M240.218 117.174V116.52C240.218 113.722 237.943 111.453 235.138 111.453C232.333 111.453 230.059 113.722 230.059 116.52V117.174C227.606 117.343 225.668 119.38 225.668 121.87C225.668 124.47 227.781 126.578 230.388 126.578H239.888C242.495 126.578 244.608 124.47 244.608 121.87C244.608 119.38 242.67 117.343 240.218 117.174V117.174Z" fill="#6EC17D"/>
<path d="M229.471 121.869C229.471 123.17 230 124.347 230.854 125.199C231.708 126.051 232.888 126.578 234.192 126.578H230.388C229.085 126.578 227.904 126.051 227.051 125.199C226.196 124.347 225.668 123.17 225.668 121.869C225.668 119.38 227.606 117.343 230.059 117.174V116.52C230.059 115.12 230.627 113.854 231.546 112.937C232.466 112.02 233.736 111.453 235.139 111.453C235.811 111.453 236.454 111.583 237.041 111.821C236.402 112.077 235.828 112.46 235.35 112.937C234.431 113.854 233.862 115.12 233.862 116.52V117.174C231.409 117.343 229.471 119.38 229.471 121.869V121.869Z" fill="#6EC17D"/>
<path d="M289.052 114.502V113.848C289.052 111.05 286.777 108.781 283.972 108.781C281.167 108.781 278.893 111.05 278.893 113.848V114.502C276.44 114.671 274.502 116.708 274.502 119.198C274.502 121.798 276.615 123.906 279.222 123.906H288.722C291.329 123.906 293.442 121.798 293.442 119.198C293.442 116.708 291.504 114.671 289.052 114.502V114.502Z" fill="#A9D379"/>
<path d="M278.305 119.198C278.305 120.498 278.834 121.675 279.688 122.527C280.542 123.379 281.722 123.906 283.026 123.906H279.222C277.919 123.906 276.738 123.379 275.885 122.527C275.03 121.675 274.502 120.498 274.502 119.198C274.502 116.708 276.44 114.671 278.893 114.502V113.848C278.893 112.448 279.461 111.182 280.38 110.265C281.299 109.348 282.57 108.781 283.973 108.781C284.645 108.781 285.288 108.911 285.874 109.149C285.236 109.405 284.662 109.788 284.184 110.265C283.264 111.182 282.696 112.448 282.696 113.848V114.502C280.243 114.671 278.305 116.708 278.305 119.198V119.198Z" fill="#A9D379"/>
</g>
<circle cx="261.5" cy="85.5" r="11.5" fill="#FDFBF8"/>
<rect x="229.5" y="51.5" width="77" height="106" rx="8.5" stroke="#E1EAF1" stroke-width="3"/>
<rect x="762" y="79" width="79.9474" height="108.624" rx="10" fill="#E1EAF1"/>
<circle cx="772.06" cy="91.0243" r="4.21656" fill="#FDFBF8"/>
<circle cx="831.886" cy="91.0232" r="4.21656" fill="#FDFBF8"/>
<circle cx="772.06" cy="175.6" r="4.21656" fill="#FDFBF8"/>
<circle cx="831.886" cy="175.6" r="4.21656" fill="#FDFBF8"/>
<mask id="mask2" style="mask-type:alpha" maskUnits="userSpaceOnUse" x="762" y="109" width="80" height="58">
<rect x="762" y="109" width="80" height="58" fill="#C4C4C4"/>
</mask>
<g mask="url(#mask2)">
<mask id="mask3" style="mask-type:alpha" maskUnits="userSpaceOnUse" x="699" y="104" width="281" height="60">
<rect x="699" y="104" width="280.263" height="59.8315" fill="#C4C4C4"/>
</mask>
<g mask="url(#mask3)">
<path d="M760.013 133.522C724.143 133.522 695.064 162.601 695.064 198.471H824.962C824.962 162.601 795.883 133.522 760.013 133.522Z" fill="#A9D379"/>
<path d="M869.243 115.022C818.699 115.022 777.725 155.908 777.725 206.343H960.762C960.762 155.908 919.787 115.022 869.243 115.022Z" fill="#80CA5C"/>
</g>
<path d="M837.55 121.721V121.067C837.55 118.269 835.275 116 832.47 116C829.665 116 827.391 118.269 827.391 121.067V121.721C824.938 121.89 823 123.927 823 126.417C823 129.017 825.113 131.125 827.72 131.125H837.22C839.827 131.125 841.94 129.017 841.94 126.417C841.94 123.927 840.003 121.89 837.55 121.721V121.721Z" fill="#A9D379"/>
<path d="M826.803 126.416C826.803 127.717 827.332 128.894 828.186 129.746C829.04 130.598 830.22 131.125 831.524 131.125H827.72C826.417 131.125 825.236 130.598 824.383 129.746C823.528 128.894 823 127.717 823 126.416C823 123.927 824.938 121.889 827.391 121.72V121.067C827.391 119.667 827.959 118.401 828.878 117.484C829.797 116.567 831.068 116 832.471 116C833.143 116 833.786 116.13 834.372 116.368C833.734 116.624 833.16 117.007 832.682 117.484C831.763 118.401 831.194 119.667 831.194 121.067V121.72C828.741 121.889 826.803 123.927 826.803 126.416V126.416Z" fill="#A9D379"/>
<path d="M774.218 146.174V145.52C774.218 142.722 771.943 140.453 769.138 140.453C766.333 140.453 764.059 142.722 764.059 145.52V146.174C761.606 146.343 759.668 148.38 759.668 150.87C759.668 153.47 761.781 155.578 764.388 155.578H773.888C776.495 155.578 778.608 153.47 778.608 150.87C778.608 148.38 776.67 146.343 774.218 146.174V146.174Z" fill="#6EC17D"/>
<path d="M763.471 150.869C763.471 152.17 764 153.347 764.854 154.199C765.708 155.051 766.888 155.578 768.192 155.578H764.388C763.085 155.578 761.904 155.051 761.051 154.199C760.196 153.347 759.668 152.17 759.668 150.869C759.668 148.38 761.606 146.343 764.059 146.174V145.52C764.059 144.12 764.627 142.854 765.546 141.937C766.466 141.02 767.736 140.453 769.139 140.453C769.811 140.453 770.454 140.583 771.041 140.821C770.402 141.077 769.828 141.46 769.35 141.937C768.431 142.854 767.862 144.12 767.862 145.52V146.174C765.409 146.343 763.471 148.38 763.471 150.869V150.869Z" fill="#6EC17D"/>
<path d="M823.052 143.502V142.848C823.052 140.05 820.777 137.781 817.972 137.781C815.167 137.781 812.893 140.05 812.893 142.848V143.502C810.44 143.671 808.502 145.708 808.502 148.198C808.502 150.798 810.615 152.906 813.222 152.906H822.722C825.329 152.906 827.442 150.798 827.442 148.198C827.442 145.708 825.504 143.671 823.052 143.502V143.502Z" fill="#A9D379"/>
<path d="M812.305 148.198C812.305 149.498 812.834 150.675 813.688 151.527C814.542 152.379 815.722 152.906 817.026 152.906H813.222C811.919 152.906 810.738 152.379 809.885 151.527C809.03 150.675 808.502 149.498 808.502 148.198C808.502 145.708 810.44 143.671 812.893 143.502V142.848C812.893 141.448 813.461 140.182 814.38 139.265C815.299 138.348 816.57 137.781 817.973 137.781C818.645 137.781 819.288 137.911 819.875 138.149C819.236 138.405 818.662 138.788 818.184 139.265C817.265 140.182 816.696 141.448 816.696 142.848V143.502C814.243 143.671 812.305 145.708 812.305 148.198V148.198Z" fill="#A9D379"/>
</g>
<circle cx="795.5" cy="114.5" r="11.5" fill="#FDFBF8"/>
<rect x="763.5" y="80.5" width="77" height="106" rx="8.5" stroke="#E1EAF1" stroke-width="3"/>
<mask id="mask4" style="mask-type:alpha" maskUnits="userSpaceOnUse" x="680" y="0" width="92" height="32">
<rect x="680" width="92" height="32" fill="#C4C4C4"/>
</mask>
<g mask="url(#mask4)">
<path d="M725.281 30.4687C752.464 30.4687 774.5 8.43277 774.5 -18.75L676.062 -18.75C676.062 8.43276 698.098 30.4687 725.281 30.4687Z" fill="#FDFBF8"/>
</g>
<path d="M662.167 143.332V141.121C662.167 131.666 654.482 124 645.003 124C635.524 124 627.84 131.666 627.84 141.121V143.332C619.552 143.902 613.004 150.785 613.004 159.198C613.004 167.985 620.144 175.107 628.952 175.107H661.053C669.861 175.107 677.002 167.985 677.002 159.198C677.002 150.786 670.455 143.902 662.167 143.332V143.332Z" fill="#6EC17D"/>
<path d="M625.851 159.196C625.851 163.589 627.636 167.569 630.524 170.445C633.408 173.325 637.397 175.106 641.801 175.106H628.95C624.545 175.106 620.556 173.326 617.673 170.445C614.786 167.569 613 163.589 613 159.196C613 150.784 619.547 143.9 627.836 143.329V141.12C627.836 136.391 629.757 132.112 632.863 129.014C635.969 125.916 640.261 124 645.002 124C647.274 124 649.445 124.439 651.427 125.242C649.27 126.109 647.331 127.401 645.714 129.014C642.608 132.112 640.687 136.391 640.687 141.12V143.329C632.399 143.9 625.851 150.784 625.851 159.196V159.196Z" fill="#6EC17D"/>
<path d="M928.167 92.3316V90.1213C928.167 80.6655 920.482 73 911.003 73C901.524 73 893.84 80.6655 893.84 90.1213V92.3316C885.552 92.9024 879.004 99.785 879.004 108.198C879.004 116.985 886.144 124.107 894.952 124.107H927.053C935.861 124.107 943.002 116.985 943.002 108.198C943.002 99.7855 936.455 92.9024 928.167 92.3316V92.3316Z" fill="#A9D379"/>
<path d="M891.851 108.196C891.851 112.589 893.636 116.569 896.524 119.445C899.408 122.325 903.397 124.106 907.801 124.106H894.95C890.545 124.106 886.556 122.326 883.673 119.445C880.786 116.569 879 112.589 879 108.196C879 99.7845 885.547 92.9003 893.836 92.329V90.1197C893.836 85.3908 895.757 81.1118 898.863 78.0143C901.969 74.9164 906.261 73 911.002 73C913.274 73 915.445 73.4387 917.427 74.2419C915.27 75.1093 913.331 76.401 911.714 78.0143C908.608 81.1123 906.687 85.3913 906.687 90.1197V92.329C898.399 92.9003 891.851 99.7845 891.851 108.196V108.196Z" fill="#A9D379"/>
</svg>
