<svg width="520" height="216" viewBox="0 0 520 216" fill="none" xmlns="http://www.w3.org/2000/svg">
<mask id="mask0" style="mask-type:alpha" maskUnits="userSpaceOnUse" x="100" y="54" width="414" height="162">
<rect x="100" y="54" width="414" height="162" fill="#C4C4C4"/>
</mask>
<g mask="url(#mask0)">
<path d="M218.9 160C165.384 160 122 203.384 122 256.9H315.8C315.8 203.384 272.417 160 218.9 160Z" fill="#A9D379"/>
<path d="M375.541 104C300.132 104 239 165 239 240.248H512.082C512.082 165 450.951 104 375.541 104Z" fill="#80CA5C"/>
</g>
<rect x="132" y="35" width="51.9658" height="70.6058" rx="10" fill="#E1EAF1"/>
<circle cx="138.54" cy="42.8159" r="2.74076" fill="#FDFBF8"/>
<circle cx="177.426" cy="42.8151" r="2.74076" fill="#FDFBF8"/>
<circle cx="138.54" cy="97.7903" r="2.74076" fill="#FDFBF8"/>
<circle cx="177.426" cy="97.7903" r="2.74076" fill="#FDFBF8"/>
<mask id="mask1" style="mask-type:alpha" maskUnits="userSpaceOnUse" x="132" y="54" width="52" height="39">
<rect x="132" y="54.5" width="52" height="37.7" fill="#C4C4C4"/>
</mask>
<g mask="url(#mask1)">
<mask id="mask2" style="mask-type:alpha" maskUnits="userSpaceOnUse" x="91" y="51" width="183" height="40">
<rect x="91.0508" y="51.25" width="182.171" height="38.8904" fill="#C4C4C4"/>
</mask>
<g mask="url(#mask2)">
<path d="M130.709 70.4393C107.393 70.4393 88.4922 89.3403 88.4922 112.656H172.925C172.925 89.3403 154.024 70.4393 130.709 70.4393Z" fill="#A9D379"/>
<path d="M201.708 58.414C168.854 58.414 142.221 84.99 142.221 117.773H261.195C261.195 84.99 234.562 58.414 201.708 58.414Z" fill="#80CA5C"/>
</g>
<path d="M181.108 62.7686V62.3434C181.108 60.5244 179.629 59.0498 177.806 59.0498C175.983 59.0498 174.504 60.5244 174.504 62.3434V62.7686C172.91 62.8784 171.65 64.2024 171.65 65.8208C171.65 67.5111 173.024 68.8812 174.718 68.8812H180.894C182.588 68.8812 183.961 67.5111 183.961 65.8208C183.962 64.2025 182.702 62.8784 181.108 62.7686V62.7686Z" fill="#A9D379"/>
<path d="M174.123 65.8214C174.123 66.6665 174.466 67.432 175.021 67.9854C175.576 68.5394 176.344 68.882 177.191 68.882H174.719C173.871 68.882 173.104 68.5395 172.549 67.9854C171.994 67.432 171.65 66.6665 171.65 65.8214C171.65 64.2033 172.91 62.8789 174.504 62.7691V62.3441C174.504 61.4344 174.874 60.6112 175.471 60.0154C176.069 59.4194 176.895 59.0508 177.806 59.0508C178.244 59.0508 178.661 59.1352 179.043 59.2897C178.628 59.4565 178.254 59.705 177.943 60.0154C177.346 60.6113 176.976 61.4345 176.976 62.3441V62.7691C175.382 62.8789 174.123 64.2033 174.123 65.8214V65.8214Z" fill="#A9D379"/>
<path d="M139.942 78.6621V78.237C139.942 76.418 138.463 74.9434 136.64 74.9434C134.817 74.9434 133.338 76.418 133.338 78.237V78.6621C131.744 78.7719 130.484 80.0959 130.484 81.7144C130.484 83.4046 131.858 84.7748 133.552 84.7748H139.727C141.422 84.7748 142.795 83.4046 142.795 81.7144C142.796 80.096 141.536 78.7719 139.942 78.6621V78.6621Z" fill="#6EC17D"/>
<path d="M132.957 81.7149C132.957 82.5601 133.3 83.3255 133.855 83.8789C134.41 84.4329 135.178 84.7756 136.025 84.7756H133.553C132.705 84.7756 131.938 84.433 131.383 83.8789C130.828 83.3255 130.484 82.5601 130.484 81.7149C130.484 80.0968 131.744 78.7725 133.338 78.6626V78.2376C133.338 77.3279 133.708 76.5048 134.305 75.9089C134.903 75.313 135.729 74.9443 136.64 74.9443C137.078 74.9443 137.495 75.0287 137.877 75.1832C137.462 75.3501 137.088 75.5986 136.777 75.9089C136.18 76.5049 135.81 77.328 135.81 78.2376V78.6626C134.216 78.7725 132.957 80.0968 132.957 81.7149V81.7149Z" fill="#6EC17D"/>
<path d="M171.684 76.9307V76.5055C171.684 74.6865 170.206 73.2119 168.382 73.2119C166.559 73.2119 165.08 74.6865 165.08 76.5055V76.9307C163.486 77.0405 162.227 78.3645 162.227 79.9829C162.227 81.6732 163.6 83.0434 165.295 83.0434H171.47C173.164 83.0434 174.538 81.6732 174.538 79.9829C174.538 78.3646 173.278 77.0405 171.684 76.9307V76.9307Z" fill="#A9D379"/>
<path d="M164.699 79.9835C164.699 80.8286 165.042 81.5941 165.598 82.1475C166.152 82.7015 166.92 83.0441 167.767 83.0441H165.295C164.448 83.0441 163.68 82.7016 163.125 82.1475C162.57 81.5941 162.227 80.8286 162.227 79.9835C162.227 78.3654 163.486 77.0411 165.081 76.9312V76.5062C165.081 75.5965 165.45 74.7733 166.048 74.1775C166.645 73.5815 167.471 73.2129 168.383 73.2129C168.82 73.2129 169.237 73.2973 169.619 73.4518C169.204 73.6187 168.831 73.8671 168.52 74.1775C167.922 74.7734 167.553 75.5966 167.553 76.5062V76.9312C165.958 77.0411 164.699 78.3654 164.699 79.9835V79.9835Z" fill="#A9D379"/>
</g>
<circle cx="153.776" cy="58.075" r="7.475" fill="#FDFBF8"/>
<rect x="133.5" y="36.5" width="49" height="67.85" rx="8.5" stroke="#E1EAF1" stroke-width="3"/>
<circle cx="238" cy="77" r="5" fill="#F1C9DC"/>
<mask id="mask3" style="mask-type:alpha" maskUnits="userSpaceOnUse" x="274" y="0" width="92" height="32">
<rect x="274" width="92" height="32" fill="#C4C4C4"/>
</mask>
<g mask="url(#mask3)">
<path d="M319.281 30.4687C346.464 30.4687 368.5 8.43277 368.5 -18.75L270.062 -18.75C270.062 8.43276 292.098 30.4687 319.281 30.4687Z" fill="#FDFBF8"/>
</g>
<path d="M393.167 96.3318V94.1215C393.167 84.6656 385.482 77 376.003 77C366.524 77 358.84 84.6656 358.84 94.1215V96.3318C350.552 96.9025 344.004 103.785 344.004 112.198C344.004 120.985 351.144 128.108 359.952 128.108H392.053C400.861 128.108 408.002 120.985 408.002 112.198C408.002 103.786 401.455 96.9025 393.167 96.3318V96.3318Z" fill="#A9D379"/>
<path d="M356.851 112.199C356.851 116.593 358.636 120.572 361.524 123.449C364.408 126.329 368.397 128.11 372.801 128.11H359.95C355.545 128.11 351.556 126.329 348.673 123.449C345.786 120.572 344 116.593 344 112.199C344 103.788 350.547 96.9033 358.836 96.332V94.1228C358.836 89.3938 360.757 85.1148 363.863 82.0173C366.969 78.9193 371.261 77.0029 376.002 77.0029C378.274 77.0029 380.445 77.4417 382.427 78.2449C380.27 79.1122 378.331 80.4039 376.714 82.0173C373.608 85.1153 371.687 89.3943 371.687 94.1228V96.332C363.399 96.9033 356.851 103.788 356.851 112.199V112.199Z" fill="#A9D379"/>
<path d="M337.167 165.332V163.121C337.167 153.666 329.482 146 320.003 146C310.524 146 302.84 153.666 302.84 163.121V165.332C294.552 165.903 288.004 172.785 288.004 181.198C288.004 189.985 295.144 197.108 303.952 197.108H336.053C344.861 197.108 352.002 189.985 352.002 181.198C352.002 172.786 345.455 165.903 337.167 165.332V165.332Z" fill="#A9D379"/>
<path d="M300.851 181.199C300.851 185.593 302.636 189.572 305.524 192.449C308.408 195.329 312.397 197.11 316.801 197.11H303.95C299.545 197.11 295.556 195.329 292.673 192.449C289.786 189.572 288 185.593 288 181.199C288 172.788 294.547 165.903 302.836 165.332V163.123C302.836 158.394 304.757 154.115 307.863 151.017C310.969 147.919 315.261 146.003 320.002 146.003C322.274 146.003 324.445 146.442 326.427 147.245C324.27 148.112 322.331 149.404 320.714 151.017C317.608 154.115 315.687 158.394 315.687 163.123V165.332C307.399 165.903 300.851 172.788 300.851 181.199V181.199Z" fill="#A9D379"/>
</svg>
