<svg width="1640" height="216" viewBox="0 0 1640 216" fill="none" xmlns="http://www.w3.org/2000/svg">
<g clip-path="url(#clip0_492_1044)">
<g clip-path="url(#clip1_492_1044)">
<path d="M941.158 113.585C819.954 113.585 721.699 211.84 721.699 333.044H1160.62C1160.62 211.84 1062.36 113.585 941.158 113.585Z" fill="#A9D379"/>
<path d="M1310.25 51.0725C1139.46 51.0725 1001.01 189.225 1001.01 359.646H1619.49C1619.49 189.225 1481.04 51.0725 1310.25 51.0725Z" fill="#80CA5C"/>
</g>
<mask id="mask0_492_1044" style="mask-type:alpha" maskUnits="userSpaceOnUse" x="929" y="0" width="120" height="40">
<rect x="929" width="120" height="40" fill="#C4C4C4"/>
</mask>
<g mask="url(#mask0_492_1044)">
<path d="M989 39C1023.79 39 1052 10.7939 1052 -24L926 -24C926 10.7939 954.206 39 989 39Z" fill="#FDFBF8"/>
</g>
<circle cx="692" cy="166" r="8" fill="#F1C9DC"/>
<circle cx="1092" cy="72" r="8" fill="#F1C9DC"/>
<path d="M863.166 138.358V136.148C863.166 126.692 855.481 119.026 846.002 119.026C836.523 119.026 828.839 126.692 828.839 136.148V138.358C820.551 138.929 814.003 145.812 814.003 154.225C814.003 163.012 821.143 170.134 829.951 170.134H862.052C870.86 170.134 878.001 163.012 878.001 154.225C878.001 145.812 871.454 138.929 863.166 138.358V138.358Z" fill="#6EC17D"/>
<path d="M826.851 154.225C826.851 158.618 828.636 162.598 831.524 165.474C834.408 168.354 838.397 170.136 842.801 170.136H829.95C825.545 170.136 821.556 168.355 818.673 165.474C815.786 162.598 814 158.618 814 154.225C814 145.813 820.547 138.929 828.836 138.358V136.149C828.836 131.42 830.757 127.141 833.863 124.043C836.969 120.945 841.261 119.029 846.002 119.029C848.274 119.029 850.445 119.468 852.427 120.271C850.27 121.138 848.331 122.43 846.714 124.043C843.608 127.141 841.687 131.42 841.687 136.149V138.358C833.399 138.929 826.851 145.813 826.851 154.225V154.225Z" fill="#6EC17D"/>
<path d="M277.064 97.9765V95.0064C277.064 82.3004 266.738 72 254.001 72C241.264 72 230.938 82.3004 230.938 95.0064V97.9765C219.801 98.7434 211.003 107.992 211.003 119.297C211.003 131.104 220.597 140.675 232.433 140.675H275.568C287.403 140.675 296.998 131.104 296.998 119.297C296.999 107.992 288.201 98.7434 277.064 97.9765V97.9765Z" fill="#6EC17D"/>
<path d="M228.269 119.297C228.269 125.201 230.667 130.548 234.547 134.413C238.422 138.283 243.782 140.676 249.7 140.676H232.432C226.514 140.676 221.154 138.284 217.279 134.413C213.399 130.548 211 125.201 211 119.297C211 107.994 219.797 98.7439 230.936 97.9762V95.0076C230.936 88.6532 233.517 82.9034 237.69 78.7413C241.863 74.5785 247.631 72.0034 254.002 72.0034C257.054 72.0034 259.972 72.593 262.636 73.6723C259.737 74.8377 257.131 76.5734 254.958 78.7413C250.785 82.9041 248.204 88.6539 248.204 95.0076V97.9762C237.066 98.7439 228.269 107.994 228.269 119.297V119.297Z" fill="#6EC17D"/>
<path d="M989.166 156.332V154.121C989.166 144.666 981.481 137 972.002 137C962.523 137 954.839 144.666 954.839 154.121V156.332C946.551 156.903 940.003 163.785 940.003 172.198C940.003 180.985 947.143 188.108 955.951 188.108H988.052C996.86 188.108 1004 180.985 1004 172.198C1004 163.786 997.454 156.903 989.166 156.332V156.332Z" fill="#6EC17D"/>
<path d="M952.851 172.199C952.851 176.592 954.636 180.571 957.524 183.448C960.408 186.328 964.397 188.109 968.801 188.109H955.95C951.545 188.109 947.556 186.329 944.673 183.448C941.786 180.571 940 176.592 940 172.199C940 163.787 946.547 156.903 954.836 156.332V154.122C954.836 149.393 956.757 145.114 959.863 142.017C962.969 138.919 967.261 137.002 972.002 137.002C974.274 137.002 976.445 137.441 978.427 138.244C976.27 139.112 974.331 140.403 972.714 142.017C969.608 145.115 967.687 149.394 967.687 154.122V156.332C959.399 156.903 952.851 163.787 952.851 172.199V172.199Z" fill="#6EC17D"/>
<path d="M1154.16 147.332V145.121C1154.16 135.666 1146.48 128 1137 128C1127.52 128 1119.84 135.666 1119.84 145.121V147.332C1111.55 147.903 1105 154.785 1105 163.198C1105 171.985 1112.14 179.108 1120.95 179.108H1153.05C1161.86 179.108 1169 171.985 1169 163.198C1169 154.786 1162.45 147.903 1154.16 147.332V147.332Z" fill="#A9D379"/>
<path d="M1117.85 163.199C1117.85 167.592 1119.64 171.571 1122.52 174.448C1125.41 177.328 1129.4 179.109 1133.8 179.109H1120.95C1116.55 179.109 1112.56 177.329 1109.67 174.448C1106.79 171.571 1105 167.592 1105 163.199C1105 154.787 1111.55 147.903 1119.84 147.332V145.122C1119.84 140.393 1121.76 136.114 1124.86 133.017C1127.97 129.919 1132.26 128.002 1137 128.002C1139.27 128.002 1141.45 128.441 1143.43 129.244C1141.27 130.112 1139.33 131.403 1137.71 133.017C1134.61 136.115 1132.69 140.394 1132.69 145.122V147.332C1124.4 147.903 1117.85 154.787 1117.85 163.199V163.199Z" fill="#A9D379"/>
<path d="M1349.16 76.3318V74.1215C1349.16 64.6656 1341.48 57 1332 57C1322.52 57 1314.84 64.6656 1314.84 74.1215V76.3318C1306.55 76.9025 1300 83.7852 1300 92.1985C1300 100.985 1307.14 108.108 1315.95 108.108H1348.05C1356.86 108.108 1364 100.985 1364 92.1985C1364 83.7858 1357.45 76.9025 1349.16 76.3318V76.3318Z" fill="#A9D379"/>
<path d="M1312.85 92.1987C1312.85 96.5921 1314.64 100.571 1317.52 103.448C1320.41 106.328 1324.4 108.109 1328.8 108.109H1315.95C1311.55 108.109 1307.56 106.329 1304.67 103.448C1301.79 100.571 1300 96.5921 1300 92.1987C1300 83.7871 1306.55 76.9028 1314.84 76.3315V74.1223C1314.84 69.3933 1316.76 65.1143 1319.86 62.0168C1322.97 58.9188 1327.26 57.0024 1332 57.0024C1334.27 57.0024 1336.45 57.4412 1338.43 58.2444C1336.27 59.1117 1334.33 60.4034 1332.71 62.0168C1329.61 65.1148 1327.69 69.3938 1327.69 74.1223V76.3315C1319.4 76.9028 1312.85 83.7871 1312.85 92.1987V92.1987Z" fill="#A9D379"/>
<path d="M1425.16 134.332V132.121C1425.16 122.666 1417.48 115 1408 115C1398.52 115 1390.84 122.666 1390.84 132.121V134.332C1382.55 134.903 1376 141.785 1376 150.198C1376 158.985 1383.14 166.108 1391.95 166.108H1424.05C1432.86 166.108 1440 158.985 1440 150.198C1440 141.786 1433.45 134.903 1425.16 134.332V134.332Z" fill="#A9D379"/>
<path d="M1388.85 150.199C1388.85 154.592 1390.64 158.571 1393.52 161.448C1396.41 164.328 1400.4 166.109 1404.8 166.109H1391.95C1387.55 166.109 1383.56 164.329 1380.67 161.448C1377.79 158.571 1376 154.592 1376 150.199C1376 141.787 1382.55 134.903 1390.84 134.332V132.122C1390.84 127.393 1392.76 123.114 1395.86 120.017C1398.97 116.919 1403.26 115.002 1408 115.002C1410.27 115.002 1412.45 115.441 1414.43 116.244C1412.27 117.112 1410.33 118.403 1408.71 120.017C1405.61 123.115 1403.69 127.394 1403.69 132.122V134.332C1395.4 134.903 1388.85 141.787 1388.85 150.199V150.199Z" fill="#A9D379"/>
<rect x="1195" y="78" width="79.9474" height="108.624" rx="10" fill="#E1EAF1"/>
<circle cx="1205.06" cy="90.0242" r="4.21656" fill="#FDFBF8"/>
<circle cx="1264.89" cy="90.0232" r="4.21656" fill="#FDFBF8"/>
<circle cx="1205.06" cy="174.6" r="4.21656" fill="#FDFBF8"/>
<circle cx="1264.89" cy="174.6" r="4.21656" fill="#FDFBF8"/>
<mask id="mask1_492_1044" style="mask-type:alpha" maskUnits="userSpaceOnUse" x="1195" y="108" width="80" height="58">
<rect x="1195" y="108" width="80" height="58" fill="#C4C4C4"/>
</mask>
<g mask="url(#mask1_492_1044)">
<mask id="mask2_492_1044" style="mask-type:alpha" maskUnits="userSpaceOnUse" x="1132" y="103" width="281" height="60">
<rect x="1132" y="103" width="280.263" height="59.8315" fill="#C4C4C4"/>
</mask>
<g mask="url(#mask2_492_1044)">
<path d="M1193.01 132.522C1157.14 132.522 1128.06 161.601 1128.06 197.471H1257.96C1257.96 161.601 1228.88 132.522 1193.01 132.522Z" fill="#A9D379"/>
<path d="M1302.24 114.021C1251.7 114.021 1210.72 154.908 1210.72 205.343H1393.76C1393.76 154.908 1352.79 114.021 1302.24 114.021Z" fill="#80CA5C"/>
</g>
<path d="M1270.55 120.721V120.067C1270.55 117.269 1268.28 115 1265.47 115C1262.66 115 1260.39 117.269 1260.39 120.067V120.721C1257.94 120.89 1256 122.927 1256 125.417C1256 128.017 1258.11 130.125 1260.72 130.125H1270.22C1272.83 130.125 1274.94 128.017 1274.94 125.417C1274.94 122.927 1273 120.89 1270.55 120.721V120.721Z" fill="#A9D379"/>
<path d="M1259.8 125.417C1259.8 126.717 1260.33 127.895 1261.19 128.746C1262.04 129.599 1263.22 130.126 1264.52 130.126H1260.72C1259.42 130.126 1258.24 129.599 1257.38 128.746C1256.53 127.895 1256 126.717 1256 125.417C1256 122.928 1257.94 120.89 1260.39 120.721V120.067C1260.39 118.668 1260.96 117.401 1261.88 116.485C1262.8 115.568 1264.07 115.001 1265.47 115.001C1266.14 115.001 1266.79 115.131 1267.37 115.368C1266.73 115.625 1266.16 116.007 1265.68 116.485C1264.76 117.402 1264.19 118.668 1264.19 120.067V120.721C1261.74 120.89 1259.8 122.928 1259.8 125.417V125.417Z" fill="#A9D379"/>
<path d="M1207.22 145.173V144.519C1207.22 141.72 1204.94 139.452 1202.14 139.452C1199.33 139.452 1197.06 141.72 1197.06 144.519V145.173C1194.61 145.342 1192.67 147.379 1192.67 149.869C1192.67 152.469 1194.78 154.577 1197.39 154.577H1206.89C1209.49 154.577 1211.61 152.469 1211.61 149.869C1211.61 147.379 1209.67 145.342 1207.22 145.173V145.173Z" fill="#6EC17D"/>
<path d="M1196.47 149.869C1196.47 151.169 1197 152.347 1197.85 153.198C1198.71 154.05 1199.89 154.577 1201.19 154.577H1197.39C1196.08 154.577 1194.9 154.05 1194.05 153.198C1193.2 152.347 1192.67 151.169 1192.67 149.869C1192.67 147.379 1194.61 145.342 1197.06 145.173V144.519C1197.06 143.119 1197.63 141.853 1198.55 140.936C1199.47 140.02 1200.74 139.452 1202.14 139.452C1202.81 139.452 1203.45 139.582 1204.04 139.82C1203.4 140.077 1202.83 140.459 1202.35 140.936C1201.43 141.853 1200.86 143.12 1200.86 144.519V145.173C1198.41 145.342 1196.47 147.379 1196.47 149.869V149.869Z" fill="#6EC17D"/>
<path d="M1256.05 142.51V141.855C1256.05 139.057 1253.78 136.788 1250.97 136.788C1248.17 136.788 1245.89 139.057 1245.89 141.855V142.51C1243.44 142.678 1241.5 144.715 1241.5 147.205C1241.5 149.806 1243.62 151.914 1246.22 151.914H1255.72C1258.33 151.914 1260.44 149.806 1260.44 147.205C1260.44 144.716 1258.5 142.678 1256.05 142.51V142.51Z" fill="#A9D379"/>
<path d="M1245.31 147.205C1245.31 148.505 1245.83 149.683 1246.69 150.534C1247.54 151.387 1248.72 151.914 1250.03 151.914H1246.22C1244.92 151.914 1243.74 151.387 1242.88 150.534C1242.03 149.683 1241.5 148.505 1241.5 147.205C1241.5 144.716 1243.44 142.678 1245.89 142.509V141.855C1245.89 140.456 1246.46 139.189 1247.38 138.273C1248.3 137.356 1249.57 136.789 1250.97 136.789C1251.65 136.789 1252.29 136.919 1252.87 137.156C1252.24 137.413 1251.66 137.795 1251.18 138.273C1250.26 139.19 1249.7 140.456 1249.7 141.855V142.509C1247.24 142.678 1245.31 144.716 1245.31 147.205V147.205Z" fill="#A9D379"/>
</g>
<circle cx="1228.5" cy="113.5" r="11.5" fill="#FFC6A6"/>
<rect x="1196.5" y="79.5" width="77" height="106" rx="8.5" stroke="#E1EAF1" stroke-width="3"/>
<rect x="1414" y="43" width="79.9474" height="108.624" rx="10" fill="#FFC6A6"/>
<circle cx="1424.06" cy="55.0242" r="4.21656" fill="#FDFBF8"/>
<circle cx="1483.89" cy="55.0232" r="4.21656" fill="#FDFBF8"/>
<circle cx="1424.06" cy="139.6" r="4.21656" fill="#FDFBF8"/>
<circle cx="1483.89" cy="139.6" r="4.21656" fill="#FDFBF8"/>
<mask id="mask3_492_1044" style="mask-type:alpha" maskUnits="userSpaceOnUse" x="1414" y="73" width="80" height="58">
<rect x="1414" y="73" width="80" height="58" fill="#C4C4C4"/>
</mask>
<g mask="url(#mask3_492_1044)">
<mask id="mask4_492_1044" style="mask-type:alpha" maskUnits="userSpaceOnUse" x="1351" y="68" width="281" height="60">
<rect x="1351" y="68" width="280.263" height="59.8315" fill="#C4C4C4"/>
</mask>
<g mask="url(#mask4_492_1044)">
<path d="M1412.01 97.5222C1376.14 97.5222 1347.06 126.601 1347.06 162.471H1476.96C1476.96 126.601 1447.88 97.5222 1412.01 97.5222Z" fill="#A9D379"/>
<path d="M1521.24 79.0215C1470.7 79.0215 1429.72 119.908 1429.72 170.343H1612.76C1612.76 119.908 1571.79 79.0215 1521.24 79.0215Z" fill="#80CA5C"/>
</g>
<path d="M1489.55 85.7212V85.0671C1489.55 82.2686 1487.28 80 1484.47 80C1481.66 80 1479.39 82.2686 1479.39 85.0671V85.7212C1476.94 85.8901 1475 87.927 1475 90.4169C1475 93.0174 1477.11 95.1253 1479.72 95.1253H1489.22C1491.83 95.1253 1493.94 93.0174 1493.94 90.4169C1493.94 87.9272 1492 85.8901 1489.55 85.7212V85.7212Z" fill="#D5F872"/>
<path d="M1478.8 90.417C1478.8 91.7172 1479.33 92.8949 1480.19 93.7462C1481.04 94.5986 1482.22 95.1257 1483.52 95.1257H1479.72C1478.42 95.1257 1477.24 94.5987 1476.38 93.7462C1475.53 92.8949 1475 91.7172 1475 90.417C1475 87.9276 1476.94 85.8902 1479.39 85.7211V85.0673C1479.39 83.6678 1479.96 82.4014 1480.88 81.4847C1481.8 80.5679 1483.07 80.0007 1484.47 80.0007C1485.14 80.0007 1485.79 80.1306 1486.37 80.3683C1485.73 80.625 1485.16 81.0072 1484.68 81.4847C1483.76 82.4016 1483.19 83.6679 1483.19 85.0673V85.7211C1480.74 85.8902 1478.8 87.9276 1478.8 90.417V90.417Z" fill="#D5F872"/>
<path d="M1426.22 110.173V109.519C1426.22 106.72 1423.94 104.452 1421.14 104.452C1418.33 104.452 1416.06 106.72 1416.06 109.519V110.173C1413.61 110.342 1411.67 112.379 1411.67 114.869C1411.67 117.469 1413.78 119.577 1416.39 119.577H1425.89C1428.49 119.577 1430.61 117.469 1430.61 114.869C1430.61 112.379 1428.67 110.342 1426.22 110.173V110.173Z" fill="#6EC17D"/>
<path d="M1415.47 114.869C1415.47 116.169 1416 117.347 1416.85 118.198C1417.71 119.05 1418.89 119.577 1420.19 119.577H1416.39C1415.08 119.577 1413.9 119.05 1413.05 118.198C1412.2 117.347 1411.67 116.169 1411.67 114.869C1411.67 112.379 1413.61 110.342 1416.06 110.173V109.519C1416.06 108.119 1416.63 106.853 1417.55 105.936C1418.47 105.02 1419.74 104.452 1421.14 104.452C1421.81 104.452 1422.45 104.582 1423.04 104.82C1422.4 105.077 1421.83 105.459 1421.35 105.936C1420.43 106.853 1419.86 108.12 1419.86 109.519V110.173C1417.41 110.342 1415.47 112.379 1415.47 114.869V114.869Z" fill="#6EC17D"/>
<path d="M1475.05 107.51V106.855C1475.05 104.057 1472.78 101.788 1469.97 101.788C1467.17 101.788 1464.89 104.057 1464.89 106.855V107.51C1462.44 107.678 1460.5 109.715 1460.5 112.205C1460.5 114.806 1462.62 116.914 1465.22 116.914H1474.72C1477.33 116.914 1479.44 114.806 1479.44 112.205C1479.44 109.716 1477.5 107.678 1475.05 107.51V107.51Z" fill="#D5F872"/>
<path d="M1464.31 112.205C1464.31 113.505 1464.83 114.683 1465.69 115.534C1466.54 116.387 1467.72 116.914 1469.03 116.914H1465.22C1463.92 116.914 1462.74 116.387 1461.88 115.534C1461.03 114.683 1460.5 113.505 1460.5 112.205C1460.5 109.716 1462.44 107.678 1464.89 107.509V106.855C1464.89 105.456 1465.46 104.189 1466.38 103.273C1467.3 102.356 1468.57 101.789 1469.97 101.789C1470.65 101.789 1471.29 101.919 1471.87 102.156C1471.24 102.413 1470.66 102.795 1470.18 103.273C1469.26 104.19 1468.7 105.456 1468.7 106.855V107.509C1466.24 107.678 1464.31 109.716 1464.31 112.205V112.205Z" fill="#D5F872"/>
</g>
<circle cx="1447.5" cy="78.5" r="11.5" fill="#FDFBF8"/>
<rect x="1415.5" y="44.5" width="77" height="106" rx="8.5" stroke="#FFC6A6" stroke-width="3"/>
<rect x="884" y="54" width="79.9474" height="108.624" rx="10" fill="#9E8EDD"/>
<circle cx="894.06" cy="66.0242" r="4.21656" fill="#FDFBF8"/>
<circle cx="953.886" cy="66.0232" r="4.21656" fill="#FDFBF8"/>
<circle cx="894.06" cy="150.6" r="4.21656" fill="#FDFBF8"/>
<circle cx="953.886" cy="150.6" r="4.21656" fill="#FDFBF8"/>
<mask id="mask5_492_1044" style="mask-type:alpha" maskUnits="userSpaceOnUse" x="884" y="84" width="80" height="58">
<rect x="884" y="84" width="80" height="58" fill="#C4C4C4"/>
</mask>
<g mask="url(#mask5_492_1044)">
<mask id="mask6_492_1044" style="mask-type:alpha" maskUnits="userSpaceOnUse" x="821" y="79" width="281" height="60">
<rect x="821" y="79" width="280.263" height="59.8315" fill="#C4C4C4"/>
</mask>
<g mask="url(#mask6_492_1044)">
<path d="M882.013 108.522C846.143 108.522 817.064 137.601 817.064 173.471H946.962C946.962 137.601 917.883 108.522 882.013 108.522Z" fill="#A9D379"/>
<path d="M991.243 90.0215C940.699 90.0215 899.725 130.908 899.725 181.343H1082.76C1082.76 130.908 1041.79 90.0215 991.243 90.0215Z" fill="#80CA5C"/>
</g>
<path d="M959.55 96.7212V96.0671C959.55 93.2686 957.275 91 954.47 91C951.665 91 949.391 93.2686 949.391 96.0671V96.7212C946.938 96.8901 945 98.927 945 101.417C945 104.017 947.113 106.125 949.72 106.125H959.22C961.827 106.125 963.94 104.017 963.94 101.417C963.94 98.9272 962.003 96.8901 959.55 96.7212V96.7212Z" fill="#B9E067"/>
<path d="M948.803 101.417C948.803 102.717 949.332 103.895 950.186 104.746C951.04 105.599 952.22 106.126 953.524 106.126H949.72C948.417 106.126 947.236 105.599 946.383 104.746C945.528 103.895 945 102.717 945 101.417C945 98.9276 946.938 96.8902 949.391 96.7211V96.0673C949.391 94.6678 949.959 93.4014 950.878 92.4847C951.798 91.5679 953.068 91.0007 954.471 91.0007C955.143 91.0007 955.786 91.1306 956.373 91.3683C955.734 91.625 955.16 92.0072 954.682 92.4847C953.763 93.4016 953.194 94.6679 953.194 96.0673V96.7211C950.741 96.8902 948.803 98.9276 948.803 101.417V101.417Z" fill="#B9E067"/>
<path d="M896.219 121.173V120.519C896.219 117.72 893.944 115.452 891.139 115.452C888.334 115.452 886.06 117.72 886.06 120.519V121.173C883.607 121.342 881.669 123.379 881.669 125.869C881.669 128.469 883.782 130.577 886.389 130.577H895.889C898.496 130.577 900.609 128.469 900.609 125.869C900.609 123.379 898.671 121.342 896.219 121.173V121.173Z" fill="#6EC17D"/>
<path d="M885.473 125.869C885.473 127.169 886.002 128.347 886.856 129.198C887.71 130.05 888.89 130.577 890.194 130.577H886.39C885.087 130.577 883.906 130.05 883.053 129.198C882.198 128.347 881.67 127.169 881.67 125.869C881.67 123.379 883.608 121.342 886.061 121.173V120.519C886.061 119.119 886.629 117.853 887.548 116.936C888.467 116.02 889.738 115.452 891.141 115.452C891.813 115.452 892.456 115.582 893.042 115.82C892.404 116.077 891.83 116.459 891.352 116.936C890.432 117.853 889.864 119.12 889.864 120.519V121.173C887.411 121.342 885.473 123.379 885.473 125.869V125.869Z" fill="#6EC17D"/>
<path d="M945.051 118.51V117.855C945.051 115.057 942.776 112.788 939.971 112.788C937.166 112.788 934.892 115.057 934.892 117.855V118.51C932.439 118.678 930.501 120.715 930.501 123.205C930.501 125.806 932.614 127.914 935.221 127.914H944.721C947.328 127.914 949.441 125.806 949.441 123.205C949.441 120.716 947.503 118.678 945.051 118.51V118.51Z" fill="#B9E067"/>
<path d="M934.304 123.205C934.304 124.505 934.833 125.683 935.687 126.534C936.541 127.387 937.721 127.914 939.025 127.914H935.221C933.918 127.914 932.737 127.387 931.884 126.534C931.029 125.683 930.501 124.505 930.501 123.205C930.501 120.716 932.439 118.678 934.892 118.509V117.855C934.892 116.456 935.46 115.189 936.379 114.273C937.298 113.356 938.569 112.789 939.972 112.789C940.644 112.789 941.287 112.919 941.874 113.156C941.235 113.413 940.661 113.795 940.183 114.273C939.264 115.19 938.695 116.456 938.695 117.855V118.509C936.242 118.678 934.304 120.716 934.304 123.205V123.205Z" fill="#B9E067"/>
</g>
<circle cx="917.5" cy="89.5" r="11.5" fill="#FFC6A6"/>
<rect x="885.5" y="55.5" width="77" height="106" rx="8.5" stroke="#9E8EDD" stroke-width="3"/>
</g>
<defs>
<clipPath id="clip0_492_1044">
<rect width="1429" height="216" fill="white" transform="translate(211)"/>
</clipPath>
<clipPath id="clip1_492_1044">
<rect width="971" height="202" fill="white" transform="translate(735 14)"/>
</clipPath>
</defs>
</svg>
