<svg width="1640" height="216" viewBox="0 0 1640 216" fill="none" xmlns="http://www.w3.org/2000/svg">
<g clip-path="url(#clip0)">
<path d="M941.091 113.585C819.887 113.585 721.632 211.841 721.632 333.045H1160.55C1160.55 211.841 1062.3 113.585 941.091 113.585Z" fill="#A9D379"/>
<path d="M1310.18 51.0726C1139.39 51.0726 1000.94 189.225 1000.94 359.646H1619.42C1619.42 189.225 1480.97 51.0726 1310.18 51.0726Z" fill="#80CA5C"/>
<mask id="mask0" style="mask-type:alpha" maskUnits="userSpaceOnUse" x="928" y="0" width="121" height="40">
<rect x="928.933" width="120" height="40" fill="#C4C4C4"/>
</mask>
<g mask="url(#mask0)">
<path d="M988.933 39C1023.73 39 1051.93 10.7939 1051.93 -24L925.933 -24C925.933 10.7939 954.139 39 988.933 39Z" fill="#FDFBF8"/>
</g>
<circle cx="691.933" cy="166" r="8" fill="#F1C9DC"/>
<circle cx="1091.93" cy="72" r="8" fill="#F1C9DC"/>
<path d="M863.098 138.358V136.148C863.098 126.692 855.414 119.026 845.935 119.026C836.456 119.026 828.771 126.692 828.771 136.148V138.358C820.483 138.929 813.936 145.812 813.936 154.225C813.936 163.012 821.076 170.134 829.884 170.134H861.985C870.793 170.134 877.934 163.012 877.934 154.225C877.934 145.812 871.386 138.929 863.098 138.358V138.358Z" fill="#6EC17D"/>
<path d="M826.784 154.225C826.784 158.619 828.569 162.598 831.457 165.475C834.34 168.355 838.329 170.136 842.734 170.136H829.882C825.478 170.136 821.489 168.355 818.605 165.475C815.718 162.598 813.933 158.619 813.933 154.225C813.933 145.814 820.48 138.929 828.769 138.358V136.149C828.769 131.42 830.69 127.141 833.796 124.043C836.901 120.945 841.194 119.029 845.935 119.029C848.207 119.029 850.378 119.468 852.36 120.271C850.203 121.138 848.263 122.43 846.647 124.043C843.541 127.141 841.62 131.42 841.62 136.149V138.358C833.331 138.929 826.784 145.814 826.784 154.225V154.225Z" fill="#6EC17D"/>
<path d="M276.996 97.9765V95.0064C276.996 82.3004 266.671 72 253.933 72C241.196 72 230.871 82.3004 230.871 95.0064V97.9765C219.734 98.7434 210.936 107.992 210.936 119.297C210.936 131.104 220.53 140.675 232.366 140.675H275.5C287.336 140.675 296.931 131.104 296.931 119.297C296.931 107.992 288.133 98.7434 276.996 97.9765V97.9765Z" fill="#6EC17D"/>
<path d="M228.201 119.297C228.201 125.201 230.6 130.548 234.48 134.413C238.355 138.283 243.715 140.676 249.633 140.676H232.364C226.446 140.676 221.086 138.284 217.211 134.413C213.332 130.548 210.933 125.201 210.933 119.297C210.933 107.994 219.73 98.7439 230.868 97.9762V95.0076C230.868 88.6532 233.45 82.9034 237.623 78.7413C241.796 74.5785 247.564 72.0034 253.934 72.0034C256.987 72.0034 259.905 72.593 262.568 73.6723C259.669 74.8377 257.063 76.5734 254.891 78.7413C250.718 82.9041 248.136 88.6539 248.136 95.0076V97.9762C236.999 98.7439 228.201 107.994 228.201 119.297V119.297Z" fill="#6EC17D"/>
<path d="M989.098 156.332V154.121C989.098 144.666 981.414 137 971.935 137C962.456 137 954.771 144.666 954.771 154.121V156.332C946.483 156.903 939.936 163.785 939.936 172.198C939.936 180.985 947.076 188.108 955.884 188.108H987.985C996.793 188.108 1003.93 180.985 1003.93 172.198C1003.93 163.786 997.386 156.903 989.098 156.332V156.332Z" fill="#6EC17D"/>
<path d="M952.784 172.199C952.784 176.592 954.569 180.571 957.457 183.448C960.34 186.328 964.329 188.109 968.734 188.109H955.882C951.478 188.109 947.489 186.329 944.605 183.448C941.718 180.571 939.933 176.592 939.933 172.199C939.933 163.787 946.48 156.903 954.769 156.332V154.122C954.769 149.393 956.69 145.114 959.796 142.017C962.901 138.919 967.194 137.003 971.935 137.003C974.207 137.003 976.378 137.441 978.36 138.245C976.203 139.112 974.263 140.404 972.647 142.017C969.541 145.115 967.62 149.394 967.62 154.122V156.332C959.331 156.903 952.784 163.787 952.784 172.199V172.199Z" fill="#6EC17D"/>
<path d="M1154.1 147.332V145.121C1154.1 135.666 1146.41 128 1136.93 128C1127.46 128 1119.77 135.666 1119.77 145.121V147.332C1111.48 147.903 1104.94 154.785 1104.94 163.198C1104.94 171.985 1112.08 179.108 1120.88 179.108H1152.99C1161.79 179.108 1168.93 171.985 1168.93 163.198C1168.93 154.786 1162.39 147.903 1154.1 147.332V147.332Z" fill="#A9D379"/>
<path d="M1117.78 163.199C1117.78 167.592 1119.57 171.571 1122.46 174.448C1125.34 177.328 1129.33 179.109 1133.73 179.109H1120.88C1116.48 179.109 1112.49 177.329 1109.61 174.448C1106.72 171.571 1104.93 167.592 1104.93 163.199C1104.93 154.787 1111.48 147.903 1119.77 147.332V145.122C1119.77 140.393 1121.69 136.114 1124.8 133.017C1127.9 129.919 1132.19 128.003 1136.93 128.003C1139.21 128.003 1141.38 128.441 1143.36 129.245C1141.2 130.112 1139.26 131.404 1137.65 133.017C1134.54 136.115 1132.62 140.394 1132.62 145.122V147.332C1124.33 147.903 1117.78 154.787 1117.78 163.199V163.199Z" fill="#A9D379"/>
<path d="M1349.1 76.3318V74.1215C1349.1 64.6656 1341.41 57 1331.93 57C1322.46 57 1314.77 64.6656 1314.77 74.1215V76.3318C1306.48 76.9025 1299.94 83.7852 1299.94 92.1985C1299.94 100.985 1307.08 108.108 1315.88 108.108H1347.99C1356.79 108.108 1363.93 100.985 1363.93 92.1985C1363.93 83.7858 1357.39 76.9025 1349.1 76.3318V76.3318Z" fill="#A9D379"/>
<path d="M1312.78 92.1989C1312.78 96.5923 1314.57 100.571 1317.46 103.448C1320.34 106.328 1324.33 108.109 1328.73 108.109H1315.88C1311.48 108.109 1307.49 106.329 1304.61 103.448C1301.72 100.571 1299.93 96.5923 1299.93 92.1989C1299.93 83.7872 1306.48 76.9029 1314.77 76.3317V74.1224C1314.77 69.3934 1316.69 65.1144 1319.8 62.0169C1322.9 58.919 1327.19 57.0026 1331.93 57.0026C1334.21 57.0026 1336.38 57.4413 1338.36 58.2445C1336.2 59.1119 1334.26 60.4036 1332.65 62.0169C1329.54 65.1149 1327.62 69.3939 1327.62 74.1224V76.3317C1319.33 76.9029 1312.78 83.7872 1312.78 92.1989V92.1989Z" fill="#A9D379"/>
<path d="M1425.1 134.332V132.121C1425.1 122.666 1417.41 115 1407.93 115C1398.46 115 1390.77 122.666 1390.77 132.121V134.332C1382.48 134.903 1375.94 141.785 1375.94 150.198C1375.94 158.985 1383.08 166.108 1391.88 166.108H1423.99C1432.79 166.108 1439.93 158.985 1439.93 150.198C1439.93 141.786 1433.39 134.903 1425.1 134.332V134.332Z" fill="#A9D379"/>
<path d="M1388.78 150.199C1388.78 154.592 1390.57 158.571 1393.46 161.448C1396.34 164.328 1400.33 166.109 1404.73 166.109H1391.88C1387.48 166.109 1383.49 164.329 1380.61 161.448C1377.72 158.571 1375.93 154.592 1375.93 150.199C1375.93 141.787 1382.48 134.903 1390.77 134.332V132.122C1390.77 127.393 1392.69 123.114 1395.8 120.017C1398.9 116.919 1403.19 115.003 1407.93 115.003C1410.21 115.003 1412.38 115.441 1414.36 116.245C1412.2 117.112 1410.26 118.404 1408.65 120.017C1405.54 123.115 1403.62 127.394 1403.62 132.122V134.332C1395.33 134.903 1388.78 141.787 1388.78 150.199V150.199Z" fill="#A9D379"/>
<rect x="1194.93" y="78" width="79.9474" height="108.624" rx="10" fill="#E1EAF1"/>
<circle cx="1204.99" cy="90.0243" r="4.21656" fill="#FDFBF8"/>
<circle cx="1264.82" cy="90.0232" r="4.21656" fill="#FDFBF8"/>
<circle cx="1204.99" cy="174.6" r="4.21656" fill="#FDFBF8"/>
<circle cx="1264.82" cy="174.6" r="4.21656" fill="#FDFBF8"/>
<mask id="mask1" style="mask-type:alpha" maskUnits="userSpaceOnUse" x="1194" y="108" width="81" height="58">
<rect x="1194.93" y="108" width="80" height="58" fill="#C4C4C4"/>
</mask>
<g mask="url(#mask1)">
<mask id="mask2" style="mask-type:alpha" maskUnits="userSpaceOnUse" x="1131" y="103" width="282" height="60">
<rect x="1131.93" y="103" width="280.263" height="59.8315" fill="#C4C4C4"/>
</mask>
<g mask="url(#mask2)">
<path d="M1192.95 132.522C1157.08 132.522 1128 161.601 1128 197.471H1257.89C1257.89 161.601 1228.82 132.522 1192.95 132.522Z" fill="#A9D379"/>
<path d="M1302.18 114.022C1251.63 114.022 1210.66 154.908 1210.66 205.343H1393.69C1393.69 154.908 1352.72 114.022 1302.18 114.022Z" fill="#80CA5C"/>
</g>
<path d="M1270.48 120.721V120.067C1270.48 117.269 1268.21 115 1265.4 115C1262.6 115 1260.32 117.269 1260.32 120.067V120.721C1257.87 120.89 1255.93 122.927 1255.93 125.417C1255.93 128.017 1258.05 130.125 1260.65 130.125H1270.15C1272.76 130.125 1274.87 128.017 1274.87 125.417C1274.87 122.927 1272.94 120.89 1270.48 120.721V120.721Z" fill="#A9D379"/>
<path d="M1259.74 125.417C1259.74 126.717 1260.26 127.895 1261.12 128.746C1261.97 129.598 1263.15 130.126 1264.46 130.126H1260.65C1259.35 130.126 1258.17 129.599 1257.32 128.746C1256.46 127.895 1255.93 126.717 1255.93 125.417C1255.93 122.927 1257.87 120.89 1260.32 120.721V120.067C1260.32 118.668 1260.89 117.401 1261.81 116.485C1262.73 115.568 1264 115.001 1265.4 115.001C1266.08 115.001 1266.72 115.13 1267.31 115.368C1266.67 115.625 1266.09 116.007 1265.61 116.485C1264.7 117.401 1264.13 118.668 1264.13 120.067V120.721C1261.67 120.89 1259.74 122.927 1259.74 125.417V125.417Z" fill="#A9D379"/>
<path d="M1207.15 145.173V144.519C1207.15 141.72 1204.88 139.452 1202.07 139.452C1199.27 139.452 1196.99 141.72 1196.99 144.519V145.173C1194.54 145.342 1192.6 147.379 1192.6 149.869C1192.6 152.469 1194.71 154.577 1197.32 154.577H1206.82C1209.43 154.577 1211.54 152.469 1211.54 149.869C1211.54 147.379 1209.6 145.342 1207.15 145.173V145.173Z" fill="#6EC17D"/>
<path d="M1196.41 149.869C1196.41 151.169 1196.93 152.347 1197.79 153.198C1198.64 154.05 1199.82 154.577 1201.13 154.577H1197.32C1196.02 154.577 1194.84 154.05 1193.99 153.198C1193.13 152.347 1192.6 151.169 1192.6 149.869C1192.6 147.379 1194.54 145.342 1196.99 145.173V144.519C1196.99 143.119 1197.56 141.853 1198.48 140.936C1199.4 140.02 1200.67 139.452 1202.07 139.452C1202.75 139.452 1203.39 139.582 1203.98 139.82C1203.34 140.077 1202.76 140.459 1202.28 140.936C1201.37 141.853 1200.8 143.12 1200.8 144.519V145.173C1198.34 145.342 1196.41 147.379 1196.41 149.869V149.869Z" fill="#6EC17D"/>
<path d="M1255.98 142.509V141.855C1255.98 139.057 1253.71 136.788 1250.9 136.788C1248.1 136.788 1245.82 139.057 1245.82 141.855V142.509C1243.37 142.678 1241.43 144.715 1241.43 147.205C1241.43 149.806 1243.55 151.914 1246.15 151.914H1255.65C1258.26 151.914 1260.37 149.806 1260.37 147.205C1260.37 144.715 1258.44 142.678 1255.98 142.509V142.509Z" fill="#A9D379"/>
<path d="M1245.24 147.205C1245.24 148.505 1245.77 149.683 1246.62 150.534C1247.47 151.387 1248.65 151.914 1249.96 151.914H1246.15C1244.85 151.914 1243.67 151.387 1242.82 150.534C1241.96 149.683 1241.43 148.505 1241.43 147.205C1241.43 144.716 1243.37 142.678 1245.82 142.509V141.855C1245.82 140.456 1246.39 139.189 1247.31 138.273C1248.23 137.356 1249.5 136.789 1250.9 136.789C1251.58 136.789 1252.22 136.919 1252.81 137.156C1252.17 137.413 1251.59 137.795 1251.12 138.273C1250.2 139.19 1249.63 140.456 1249.63 141.855V142.509C1247.17 142.678 1245.24 144.716 1245.24 147.205V147.205Z" fill="#A9D379"/>
</g>
<circle cx="1228.43" cy="113.5" r="11.5" fill="#FDFBF8"/>
<rect x="1196.43" y="79.5" width="77" height="106" rx="8.5" stroke="#E1EAF1" stroke-width="3"/>
<rect x="1413.93" y="43" width="79.9474" height="108.624" rx="10" fill="#E1EAF1"/>
<circle cx="1423.99" cy="55.0243" r="4.21656" fill="#FDFBF8"/>
<circle cx="1483.82" cy="55.0232" r="4.21656" fill="#FDFBF8"/>
<circle cx="1423.99" cy="139.6" r="4.21656" fill="#FDFBF8"/>
<circle cx="1483.82" cy="139.6" r="4.21656" fill="#FDFBF8"/>
<mask id="mask3" style="mask-type:alpha" maskUnits="userSpaceOnUse" x="1413" y="73" width="81" height="58">
<rect x="1413.93" y="73" width="80" height="58" fill="#C4C4C4"/>
</mask>
<g mask="url(#mask3)">
<mask id="mask4" style="mask-type:alpha" maskUnits="userSpaceOnUse" x="1350" y="68" width="282" height="60">
<rect x="1350.93" y="68" width="280.263" height="59.8315" fill="#C4C4C4"/>
</mask>
<g mask="url(#mask4)">
<path d="M1411.95 97.5221C1376.08 97.5221 1347 126.601 1347 162.471H1476.89C1476.89 126.601 1447.82 97.5221 1411.95 97.5221Z" fill="#A9D379"/>
<path d="M1521.18 79.0216C1470.63 79.0216 1429.66 119.908 1429.66 170.343H1612.69C1612.69 119.908 1571.72 79.0216 1521.18 79.0216Z" fill="#80CA5C"/>
</g>
<path d="M1489.48 85.7212V85.0671C1489.48 82.2686 1487.21 80 1484.4 80C1481.6 80 1479.32 82.2686 1479.32 85.0671V85.7212C1476.87 85.8901 1474.93 87.927 1474.93 90.4169C1474.93 93.0174 1477.05 95.1253 1479.65 95.1253H1489.15C1491.76 95.1253 1493.87 93.0174 1493.87 90.4169C1493.87 87.9272 1491.94 85.8901 1489.48 85.7212V85.7212Z" fill="#A9D379"/>
<path d="M1478.74 90.4169C1478.74 91.7171 1479.26 92.8948 1480.12 93.7461C1480.97 94.5984 1482.15 95.1256 1483.46 95.1256H1479.65C1478.35 95.1256 1477.17 94.5986 1476.32 93.7461C1475.46 92.8948 1474.93 91.7171 1474.93 90.4169C1474.93 87.9275 1476.87 85.8901 1479.32 85.721V85.0672C1479.32 83.6677 1479.89 82.4013 1480.81 81.4846C1481.73 80.5678 1483 80.0006 1484.4 80.0006C1485.08 80.0006 1485.72 80.1305 1486.31 80.3682C1485.67 80.6249 1485.09 81.0071 1484.61 81.4846C1483.7 82.4014 1483.13 83.6678 1483.13 85.0672V85.721C1480.67 85.8901 1478.74 87.9275 1478.74 90.4169V90.4169Z" fill="#A9D379"/>
<path d="M1426.15 110.173V109.519C1426.15 106.72 1423.88 104.452 1421.07 104.452C1418.27 104.452 1415.99 106.72 1415.99 109.519V110.173C1413.54 110.342 1411.6 112.379 1411.6 114.869C1411.6 117.469 1413.71 119.577 1416.32 119.577H1425.82C1428.43 119.577 1430.54 117.469 1430.54 114.869C1430.54 112.379 1428.6 110.342 1426.15 110.173V110.173Z" fill="#6EC17D"/>
<path d="M1415.41 114.869C1415.41 116.169 1415.93 117.347 1416.79 118.198C1417.64 119.05 1418.82 119.577 1420.13 119.577H1416.32C1415.02 119.577 1413.84 119.05 1412.99 118.198C1412.13 117.347 1411.6 116.169 1411.6 114.869C1411.6 112.379 1413.54 110.342 1415.99 110.173V109.519C1415.99 108.119 1416.56 106.853 1417.48 105.936C1418.4 105.02 1419.67 104.452 1421.07 104.452C1421.75 104.452 1422.39 104.582 1422.98 104.82C1422.34 105.077 1421.76 105.459 1421.28 105.936C1420.37 106.853 1419.8 108.12 1419.8 109.519V110.173C1417.34 110.342 1415.41 112.379 1415.41 114.869V114.869Z" fill="#6EC17D"/>
<path d="M1474.98 107.509V106.855C1474.98 104.057 1472.71 101.788 1469.9 101.788C1467.1 101.788 1464.82 104.057 1464.82 106.855V107.509C1462.37 107.678 1460.43 109.715 1460.43 112.205C1460.43 114.806 1462.55 116.914 1465.15 116.914H1474.65C1477.26 116.914 1479.37 114.806 1479.37 112.205C1479.37 109.715 1477.44 107.678 1474.98 107.509V107.509Z" fill="#A9D379"/>
<path d="M1464.24 112.205C1464.24 113.505 1464.77 114.683 1465.62 115.534C1466.47 116.387 1467.65 116.914 1468.96 116.914H1465.15C1463.85 116.914 1462.67 116.387 1461.82 115.534C1460.96 114.683 1460.43 113.505 1460.43 112.205C1460.43 109.716 1462.37 107.678 1464.82 107.509V106.855C1464.82 105.456 1465.39 104.189 1466.31 103.273C1467.23 102.356 1468.5 101.789 1469.9 101.789C1470.58 101.789 1471.22 101.919 1471.81 102.156C1471.17 102.413 1470.59 102.795 1470.12 103.273C1469.2 104.19 1468.63 105.456 1468.63 106.855V107.509C1466.17 107.678 1464.24 109.716 1464.24 112.205V112.205Z" fill="#A9D379"/>
</g>
<circle cx="1447.43" cy="78.5" r="11.5" fill="#FDFBF8"/>
<rect x="1415.43" y="44.5" width="77" height="106" rx="8.5" stroke="#E1EAF1" stroke-width="3"/>
<rect x="883.933" y="54" width="79.9474" height="108.624" rx="10" fill="#E1EAF1"/>
<circle cx="893.993" cy="66.0243" r="4.21656" fill="#FDFBF8"/>
<circle cx="953.819" cy="66.0232" r="4.21656" fill="#FDFBF8"/>
<circle cx="893.993" cy="150.6" r="4.21656" fill="#FDFBF8"/>
<circle cx="953.819" cy="150.6" r="4.21656" fill="#FDFBF8"/>
<mask id="mask5" style="mask-type:alpha" maskUnits="userSpaceOnUse" x="883" y="84" width="81" height="58">
<rect x="883.933" y="84" width="80" height="58" fill="#C4C4C4"/>
</mask>
<g mask="url(#mask5)">
<mask id="mask6" style="mask-type:alpha" maskUnits="userSpaceOnUse" x="820" y="79" width="282" height="60">
<rect x="820.933" y="79" width="280.263" height="59.8315" fill="#C4C4C4"/>
</mask>
<g mask="url(#mask6)">
<path d="M881.946 108.522C846.076 108.522 816.997 137.601 816.997 173.471H946.894C946.894 137.601 917.816 108.522 881.946 108.522Z" fill="#A9D379"/>
<path d="M991.176 90.0216C940.631 90.0216 899.657 130.908 899.657 181.343H1082.69C1082.69 130.908 1041.72 90.0216 991.176 90.0216Z" fill="#80CA5C"/>
</g>
<path d="M959.482 96.7212V96.0671C959.482 93.2686 957.208 91 954.403 91C951.597 91 949.323 93.2686 949.323 96.0671V96.7212C946.87 96.8901 944.933 98.927 944.933 101.417C944.933 104.017 947.046 106.125 949.653 106.125H959.153C961.759 106.125 963.873 104.017 963.873 101.417C963.873 98.9272 961.935 96.8901 959.482 96.7212V96.7212Z" fill="#A9D379"/>
<path d="M948.736 101.417C948.736 102.717 949.264 103.895 950.119 104.746C950.972 105.598 952.153 106.126 953.456 106.126H949.653C948.349 106.126 947.169 105.599 946.315 104.746C945.461 103.895 944.933 102.717 944.933 101.417C944.933 98.9275 946.87 96.8901 949.323 96.721V96.0672C949.323 94.6677 949.892 93.4013 950.811 92.4846C951.73 91.5678 953.001 91.0006 954.404 91.0006C955.076 91.0006 955.719 91.1305 956.305 91.3682C955.667 91.6249 955.093 92.0071 954.614 92.4846C953.695 93.4014 953.127 94.6678 953.127 96.0672V96.721C950.674 96.8901 948.736 98.9275 948.736 101.417V101.417Z" fill="#A9D379"/>
<path d="M896.151 121.173V120.519C896.151 117.72 893.877 115.452 891.072 115.452C888.266 115.452 885.992 117.72 885.992 120.519V121.173C883.539 121.342 881.602 123.379 881.602 125.869C881.602 128.469 883.715 130.577 886.321 130.577H895.822C898.428 130.577 900.542 128.469 900.542 125.869C900.542 123.379 898.604 121.342 896.151 121.173V121.173Z" fill="#6EC17D"/>
<path d="M885.406 125.869C885.406 127.169 885.934 128.347 886.789 129.198C887.642 130.05 888.823 130.577 890.126 130.577H886.323C885.019 130.577 883.839 130.05 882.985 129.198C882.131 128.347 881.603 127.169 881.603 125.869C881.603 123.379 883.54 121.342 885.993 121.173V120.519C885.993 119.119 886.562 117.853 887.481 116.936C888.4 116.02 889.67 115.452 891.073 115.452C891.746 115.452 892.388 115.582 892.975 115.82C892.337 116.077 891.763 116.459 891.284 116.936C890.365 117.853 889.797 119.12 889.797 120.519V121.173C887.343 121.342 885.406 123.379 885.406 125.869V125.869Z" fill="#6EC17D"/>
<path d="M944.983 118.509V117.855C944.983 115.057 942.709 112.788 939.904 112.788C937.098 112.788 934.824 115.057 934.824 117.855V118.509C932.371 118.678 930.434 120.715 930.434 123.205C930.434 125.806 932.547 127.914 935.154 127.914H944.654C947.26 127.914 949.374 125.806 949.374 123.205C949.374 120.715 947.436 118.678 944.983 118.509V118.509Z" fill="#A9D379"/>
<path d="M934.237 123.205C934.237 124.505 934.765 125.683 935.62 126.534C936.473 127.387 937.654 127.914 938.957 127.914H935.154C933.85 127.914 932.67 127.387 931.816 126.534C930.962 125.683 930.434 124.505 930.434 123.205C930.434 120.716 932.371 118.678 934.824 118.509V117.855C934.824 116.456 935.393 115.189 936.312 114.273C937.231 113.356 938.502 112.789 939.905 112.789C940.577 112.789 941.219 112.919 941.806 113.156C941.168 113.413 940.594 113.795 940.115 114.273C939.196 115.19 938.628 116.456 938.628 117.855V118.509C936.175 118.678 934.237 120.716 934.237 123.205V123.205Z" fill="#A9D379"/>
</g>
<circle cx="917.433" cy="89.5" r="11.5" fill="#FDFBF8"/>
<rect x="885.433" y="55.5" width="77" height="106" rx="8.5" stroke="#E1EAF1" stroke-width="3"/>
</g>
<defs>
<clipPath id="clip0">
<rect width="1494.09" height="216" fill="white" transform="translate(110.933)"/>
</clipPath>
</defs>
</svg>
