<svg xmlns="http://www.w3.org/2000/svg" width="156" height="156" fill="none" viewBox="0 0 156 156"><path fill="#A9D379" d="M78 34a44 44 0 1 1 0 88 44 44 0 0 1 0-88Z"/><path fill="#FFD875" d="M91.23 79.42c0 14.4-13.5 17.73-13.5 17.73s-13.5-3.33-13.5-17.73c0-1.06.11-2.03.3-2.93.2-.89.48-1.7.85-2.43a65.96 65.96 0 0 1 24.7 0c.37.74.66 1.54.85 2.43.2.9.3 1.87.3 2.93Z"/><path fill="#995C0D" d="M77.93 67.1h-.03c-.4-.02-.7-.37-.69-.8 0-.02.07-1.87-.47-3.79-.68-2.4-1.98-3.8-3.86-4.12-.4-.06-.66-.46-.6-.88.07-.42.44-.7.83-.63 2.45.42 4.2 2.23 5.03 5.23.6 2.16.52 4.18.52 4.26a.74.74 0 0 1-.73.74Z"/><path fill="#B27214" d="M92.47 72.98c0 .48-.05.97-.15 1.47a68.34 68.34 0 0 0-28.97 0c-.83-4.18 1.98-8.19 6.04-8.65a75.2 75.2 0 0 1 16.9 0 7.12 7.12 0 0 1 6.18 7.18Z"/><path fill="#995C0D" d="M75.46 65.8c1.82-.2 3.64-.34 5.47-.41a75.92 75.92 0 0 0-11.51.41c-4.08.46-6.9 4.47-6.07 8.65a68.74 68.74 0 0 1 5.91-1 7.15 7.15 0 0 1 6.2-7.65Z"/><path fill="#313137" fill-opacity=".5" d="m156 80.1-.78 9.6-2.53-.2.54-6.6-3.23-.25-.4 4.84-2.3-.19.39-4.84-5.76-.47.25-3L156 80.1ZM153.38 98.21l-.8 2.85-14.84 1.6.83-2.96 3.22-.34 1.48-5.3-2.59-1.95.84-2.98 11.86 9.08Zm-9.06 1.03 5.61-.47-4.56-3.31-1.05 3.78ZM134.08 109.49a9.55 9.55 0 0 1 2.7-3.22 6.43 6.43 0 0 1 3.43-1.25 7.08 7.08 0 0 1 3.71.93 7.18 7.18 0 0 1 2.84 2.64c.65 1.1.98 2.28.96 3.55a7.9 7.9 0 0 1-1 3.77 7.68 7.68 0 0 1-2.6 2.86 6.63 6.63 0 0 1-3.5 1.13 7.16 7.16 0 0 1-3.75-.93 5.6 5.6 0 0 1-1.94-1.75 5.61 5.61 0 0 1-1.01-2.27l-1.15 2.13-2.17-1.17 3.48-6.42Zm2.5.93c-.4.73-.6 1.46-.62 2.19 0 .73.19 1.41.58 2.05.4.64 1 1.17 1.78 1.6.78.41 1.55.61 2.31.6a3.8 3.8 0 0 0 2.1-.63c.62-.4 1.13-.95 1.51-1.66.4-.72.59-1.46.59-2.21 0-.74-.21-1.44-.62-2.1a4.55 4.55 0 0 0-1.77-1.61 4.21 4.21 0 0 0-3.36-.47 4.44 4.44 0 0 0-2.5 2.23ZM133.07 133.95l-7.19 6.4-1.69-1.9 4.94-4.39-2.15-2.42-3.63 3.24-1.55-1.74 3.64-3.23-3.84-4.31 2.25-2 9.22 10.35ZM118.64 145.22l-2.54 1.52-11.86-9.09 2.65-1.57 2.56 1.98 4.72-2.81-.52-3.2 2.66-1.59 2.33 14.76Zm-7.28-5.5 4.4 3.53-1.02-5.54-3.38 2ZM96.88 140.04a9.53 9.53 0 0 1 4.16-.46c1.3.18 2.41.67 3.35 1.47.93.81 1.6 1.9 2.04 3.24.43 1.35.5 2.64.22 3.87a6.65 6.65 0 0 1-1.76 3.23c-.9.93-2.01 1.6-3.33 2.02-1.33.43-2.6.52-3.85.28a6.64 6.64 0 0 1-3.31-1.6 7.17 7.17 0 0 1-2.07-3.28 5.61 5.61 0 0 1-.19-2.61c.13-.9.4-1.68.84-2.33l-2.3.74-.76-2.35 6.96-2.22Zm1.16 2.4c-.8.25-1.45.63-1.97 1.15a3.76 3.76 0 0 0-1 1.88c-.15.74-.09 1.53.18 2.38.27.84.7 1.52 1.26 2.03.56.53 1.2.87 1.95 1 .72.15 1.47.1 2.24-.15a4.6 4.6 0 0 0 1.95-1.19c.5-.54.84-1.19 1-1.94.17-.75.11-1.55-.16-2.4a4.2 4.2 0 0 0-2.1-2.65c-1-.47-2.12-.51-3.35-.12ZM78.87 157l-9.61-.42.1-2.53 6.6.28.14-3.24-4.85-.2.1-2.32 4.85.2.25-5.76 3.01.12-.59 13.86ZM60.67 155.06l-2.88-.69-2.16-14.77 2.99.71.46 3.21 5.34 1.28 1.86-2.66 3.01.72-8.62 12.2Zm-1.38-9.02.69 5.6 3.13-4.69-3.82-.9ZM48.69 136.22c1.4.68 2.5 1.53 3.32 2.55a6.43 6.43 0 0 1 1.4 3.38 7.08 7.08 0 0 1-.79 3.75 7.18 7.18 0 0 1-2.52 2.94 6.64 6.64 0 0 1-3.5 1.11 7.9 7.9 0 0 1-3.81-.85 7.69 7.69 0 0 1-2.97-2.47 6.64 6.64 0 0 1-1.27-3.45c-.1-1.26.16-2.53.78-3.8.39-.78.94-1.45 1.67-2a5.61 5.61 0 0 1 2.22-1.1l-2.17-1.07 1.08-2.21 6.56 3.22Zm-.83 2.53a4.83 4.83 0 0 0-2.2-.53c-.74.02-1.42.24-2.04.66a4.67 4.67 0 0 0-1.52 1.84c-.39.8-.56 1.58-.5 2.34.03.77.27 1.46.7 2.07.43.6 1 1.09 1.73 1.44a4.6 4.6 0 0 0 2.23.5 3.95 3.95 0 0 0 2.07-.7 4.54 4.54 0 0 0 1.54-1.84c.6-1.21.7-2.34.33-3.38a4.44 4.44 0 0 0-2.34-2.4ZM24.2 136.13l-6.66-6.95 1.83-1.76 4.57 4.77 2.34-2.23-3.37-3.52 1.68-1.6 3.36 3.51 4.18-4 2.08 2.19-10.02 9.59ZM12.42 122.17l-1.6-2.48 8.63-12.18 1.67 2.58-1.88 2.64 2.98 4.62 3.18-.64 1.68 2.6-14.66 2.86Zm5.23-7.47-3.36 4.52 5.5-1.22-2.14-3.3ZM16.8 100.33c.54 1.47.75 2.85.63 4.15a6.43 6.43 0 0 1-1.33 3.4 7.07 7.07 0 0 1-3.15 2.17 7.16 7.16 0 0 1-3.86.38 6.63 6.63 0 0 1-3.3-1.62 7.9 7.9 0 0 1-2.16-3.24 7.68 7.68 0 0 1-.44-3.84 6.64 6.64 0 0 1 1.47-3.37 7.17 7.17 0 0 1 3.19-2.2c.82-.3 1.69-.4 2.6-.3.9.09 1.7.34 2.36.74l-.83-2.27 2.3-.85 2.52 6.85Zm-2.35 1.27a4.82 4.82 0 0 0-1.23-1.92 3.76 3.76 0 0 0-1.92-.92 4.67 4.67 0 0 0-2.37.28c-.83.3-1.5.75-1.98 1.34a3.8 3.8 0 0 0-.92 1.98c-.12.73-.03 1.48.24 2.24.29.77.7 1.4 1.27 1.9.56.48 1.22.8 1.99.92.75.13 1.54.05 2.38-.26a4.21 4.21 0 0 0 2.57-2.21 4.44 4.44 0 0 0-.03-3.35ZM-.88 83.02l.04-9.62H1.7l-.02 6.62H4.9l.02-4.85h2.32l-.02 4.87 5.78.02-.01 3.02-13.88-.06ZM.3 64.94l.56-2.9 14.68-2.78-.6 3.02-3.18.59-1.05 5.4L13.44 70l-.59 3.04L.3 64.95Zm8.95-1.75-5.55.92 4.8 2.93.75-3.85ZM18.66 52.06a9.53 9.53 0 0 1-2.43 3.41c-1 .85-2.1 1.35-3.32 1.52a7.07 7.07 0 0 1-3.78-.64 7.17 7.17 0 0 1-3.03-2.41 6.64 6.64 0 0 1-1.24-3.47 7.9 7.9 0 0 1 .7-3.83 7.68 7.68 0 0 1 2.37-3.05c1-.79 2.13-1.26 3.4-1.4a7.17 7.17 0 0 1 3.82.64c.8.35 1.49.88 2.07 1.59.59.7.98 1.42 1.18 2.18l.99-2.21 2.24 1-2.97 6.67Zm-2.56-.73c.34-.76.49-1.5.45-2.23-.05-.74-.3-1.4-.74-2a4.67 4.67 0 0 0-1.9-1.46c-.8-.36-1.59-.5-2.35-.41a3.8 3.8 0 0 0-2.04.78 4.45 4.45 0 0 0-1.38 1.78 4.6 4.6 0 0 0-.41 2.24c.06.74.32 1.42.78 2.05.45.62 1.08 1.1 1.89 1.47 1.23.55 2.36.61 3.38.2a4.44 4.44 0 0 0 2.32-2.42ZM17.63 27.7l6.68-6.93 1.83 1.76-4.59 4.76 2.33 2.24 3.38-3.5 1.67 1.62-3.38 3.5 4.16 4-2.1 2.17-9.98-9.62ZM31.4 15.11l2.42-1.7 12.5 8.2-2.53 1.76-2.7-1.79-4.5 3.15.75 3.16-2.54 1.77-3.4-14.55Zm7.66 4.96-4.63-3.2 1.41 5.45 3.22-2.25ZM53.24 18.72c-1.44.6-2.81.86-4.11.8a6.43 6.43 0 0 1-3.46-1.21 7.07 7.07 0 0 1-2.28-3.07 7.17 7.17 0 0 1-.53-3.84 6.64 6.64 0 0 1 1.5-3.36 7.9 7.9 0 0 1 3.16-2.28 7.68 7.68 0 0 1 3.82-.58c1.26.12 2.4.57 3.42 1.34a7.17 7.17 0 0 1 2.32 3.1c.33.81.47 1.67.4 2.59a5.6 5.6 0 0 1-.65 2.39l2.24-.92.93 2.28-6.76 2.76Zm-1.35-2.3c.77-.31 1.4-.74 1.87-1.3.47-.56.75-1.21.85-1.95.1-.76-.03-1.54-.36-2.36a4.55 4.55 0 0 0-1.42-1.93 3.8 3.8 0 0 0-2.02-.85 4.45 4.45 0 0 0-2.22.33 4.6 4.6 0 0 0-1.85 1.34 3.96 3.96 0 0 0-.85 2.02c-.1.76.01 1.55.35 2.37a4.21 4.21 0 0 0 2.3 2.49c1.04.39 2.15.34 3.35-.15ZM76 0l9.62.4-.11 2.55-6.6-.28-.14 3.23 4.86.2-.1 2.32-4.86-.2-.25 5.77-3-.13L76 0ZM93.78 1.8l2.88.68 2.22 14.77-3-.7-.47-3.2-5.35-1.26-1.85 2.66-3-.7L93.77 1.8Zm1.41 9.02-.7-5.58-3.13 4.69 3.83.9ZM106 20.62a9.54 9.54 0 0 1-3.33-2.56 6.42 6.42 0 0 1-1.39-3.37c-.1-1.23.16-2.48.78-3.76A7.17 7.17 0 0 1 104.58 8a6.64 6.64 0 0 1 3.51-1.11 7.9 7.9 0 0 1 3.8.84 7.68 7.68 0 0 1 2.97 2.48 6.63 6.63 0 0 1 1.27 3.45 7.18 7.18 0 0 1-.78 3.8 5.63 5.63 0 0 1-1.67 2 5.6 5.6 0 0 1-2.22 1.1l2.18 1.07-1.09 2.2-6.55-3.2Zm.82-2.53c.75.36 1.49.54 2.21.53.74-.02 1.41-.25 2.03-.66a4.67 4.67 0 0 0 1.52-1.84c.4-.8.56-1.58.5-2.34a3.8 3.8 0 0 0-.7-2.07c-.43-.6-1-1.09-1.72-1.45a4.6 4.6 0 0 0-2.24-.5c-.74.04-1.43.28-2.07.72a4.56 4.56 0 0 0-1.54 1.83 4.2 4.2 0 0 0-.33 3.37 4.44 4.44 0 0 0 2.34 2.4ZM130.75 20.8l6.65 6.95-1.83 1.75-4.57-4.77-2.34 2.24 3.37 3.5-1.68 1.61-3.36-3.5-4.18 3.99-2.08-2.18 10.02-9.6ZM142.52 34.71l1.6 2.48-8.63 12.18-1.68-2.58 1.9-2.64-3-4.61-3.17.64-1.68-2.6 14.66-2.87Zm-5.23 7.47 3.36-4.51-5.5 1.21 2.14 3.3ZM138.16 56.53a9.52 9.52 0 0 1-.63-4.14c.13-1.3.57-2.44 1.33-3.4a7.07 7.07 0 0 1 3.16-2.18 7.17 7.17 0 0 1 3.85-.38c1.26.23 2.36.77 3.3 1.62a7.9 7.9 0 0 1 2.17 3.25c.47 1.3.62 2.58.43 3.83a6.63 6.63 0 0 1-1.47 3.37 7.17 7.17 0 0 1-3.19 2.2c-.82.3-1.68.4-2.6.3a5.6 5.6 0 0 1-2.36-.73l.84 2.27-2.31.85-2.52-6.86Zm2.35-1.26c.29.78.7 1.42 1.23 1.91.55.5 1.19.8 1.93.93.75.12 1.54.02 2.37-.28.83-.3 1.49-.75 1.98-1.34.5-.58.81-1.24.92-1.99.11-.73.03-1.47-.25-2.23a4.6 4.6 0 0 0-1.27-1.9 3.96 3.96 0 0 0-1.98-.92 4.54 4.54 0 0 0-2.38.25 4.21 4.21 0 0 0-2.57 2.22 4.43 4.43 0 0 0 .02 3.35Z"><animateTransform attributeName="transform" attributeType="XML" type="rotate" from="0 78 78" to="-360 78 78" dur="60s" begin="0s" repeatCount="indefinite" fill="freeze"/></path></svg>